{
.appVersion = "3507";
.formatVersion = 3;
axes = (
{
name = Weight;
tag = wght;
}
);
customParameters = (
{
name = "Use Typo Metrics";
value = 1;
},
{
name = fsType;
value = (
);
},
{
name = panose;
value = (
2,
11,
8,
3,
5,
3,
2,
2,
2,
4
);
},
{
name = unicodeRanges;
value = (
0,
1,
2
);
},
{
name = blueScale;
value = 0.0353571;
},
{
name = blueShift;
value = 6;
},
{
name = "Enforce Compatibility Check";
value = 0;
}
);
date = "2011-08-05 09:31:55 +0000";
familyName = Coustard;
featurePrefixes = (
{
automatic = 1;
code = "languagesystem DFLT dflt;

languagesystem latn dflt;
languagesystem latn CAT;
";
name = Languagesystems;
}
);
features = (
{
automatic = 1;
code = "feature locl;
feature sups;
feature frac;
feature ordn;
";
tag = aalt;
},
{
code = "script DFLT;
language dflt;
lookup SUB_0 {
	sub f l by fl;
	sub f i by fi;
} SUB_0;
script latn;
language dflt;
lookup SUB_0;
";
tag = liga;
},
{
automatic = 1;
code = "lookup ccmp_latn_1 {
	lookupflag 0;
	sub fi by f i;
	sub fl by f l;
	sub Dzcaron by D zcaron;
	sub DZcaron by D Zcaron;
} ccmp_latn_1;

script latn;
lookup ccmp_latn_1;
";
tag = ccmp;
},
{
automatic = 1;
code = "script latn;
language CAT;
lookup locl_latn_0 {
	sub  l' periodcentered' l by ldot;
	sub  L' periodcentered' L by Ldot;
} locl_latn_0;
";
tag = locl;
},
{
automatic = 1;
code = "sub one by onesuperior;
sub two by twosuperior;
sub three by threesuperior;
sub four by foursuperior;
";
tag = sups;
},
{
automatic = 1;
code = "sub one slash four by onequarter;
sub one slash two by onehalf;
sub three slash four by threequarters;
";
tag = frac;
},
{
automatic = 1;
code = "sub [zero one two three four five six seven eight nine] [A a]' by ordfeminine;
sub [zero one two three four five six seven eight nine] [O o]' by ordmasculine;
";
tag = ordn;
}
);
fontMaster = (
{
axesValues = (
400
);
customParameters = (
{
name = typoAscender;
value = 1629;
},
{
name = typoDescender;
value = -507;
},
{
name = typoLineGap;
value = 0;
},
{
name = winAscent;

glyphs = (
{
glyphname = A;
kernLeft = A;
kernRight = A;
lastChange = "2026-02-05 15:44:33 +0000";
layers = (
{
anchors = (
{
name = bottom;
pos = (768,0);
},
{
name = ogonek;
pos = (1442,0);
},
{
name = top;
pos = (768,1489);
}
);
background = {
shapes = (
{
closed = 1;
nodes = (
(635,1479,o),
(539,1482,o),
(462,1487,c),
(446,1466,o),
(433,1396,o),
(427,1347,cs),
(426,1343,o),
(425,1339,o),
(425,1337,cs),
(425,1270,o),
(558,1328,o),
(558,1269,cs),
(558,1259,o),
(554,1247,o),
(550,1236,cs),
(180,252,ls),
(167,219,o),
(150,189,o),
(93,189,cs),
(52,189,o),
(5,176,o),
(-5,141,c),
(-8,109,o),
(-11,71,o),
(-11,38,cs),
(-11,18,o),
(-6,-3,o),
(6,-11,c),
(71,-7,o),
(157,0,o),
(246,0,cs),
(352,0,o),
(437,-6,o),
(509,-11,c),
(520,12,o),
(531,94,o),
(536,149,c),
(536,206,o),
(392,169,o),
(392,217,cs),
(392,229,o),
(396,239,o),
(401,254,cs),
(492,523,l),
(1017,523,l),
(1112,254,ls),
(1117,241,o),
(1121,229,o),
(1121,217,cs),
(1121,169,o),
(979,206,o),
(979,149,cs),
(979,91,o),
(989,13,o),
(996,-11,c),
(1071,0,o),
(1165,0,o),
(1275,0,cs),
(1368,0,o),
(1459,-6,o),
(1527,-11,c),
(1539,-3,o),
(1544,18,o),
(1544,38,cs),
(1544,71,o),
(1546,109,o),
(1548,141,c),
(1538,176,o),
(1489,189,o),
(1448,189,cs),
(1391,189,o),
(1374,219,o),
(1361,252,cs),
(991,1216,ls),
(984,1233,o),
(923,1418,o),
(914,1483,c),
(914,1487,l),
(869,1479,o),
(806,1479,o),
(744,1479,cs)
);
},
{
closed = 1;
nodes = (
(757,1256,o),
(855,1001,o),
(964,675,c),
(544,675,l),
(652,1001,o),
(757,1256,o),
(757,1256,c)
);
}
);
};
hints = (
{
horizontal = 1;
origin = (0,44);
target = (1,3);
type = Stem;
},
{
horizontal = 1;
place = (1299.27,179.73);
type = Stem;
},
{
horizontal = 1;
origin = (0,60);
target = (0,69);
type = Stem;
},
{
origin = (0,24);
target = (0,66);
type = Stem;
}
);
layerId = m01;
shapes = (
{
closed = 1;
nodes = (
(635,1479,o),
(539,1482,o),
(462,1487,c),
(446,1466,o),
(433,1396,o),
(427,1347,cs),
(426,1343,o),
(425,1339,o),
(425,1337,cs),
(425,1270,o),
(558,1328,o),
(558,1269,cs),
(558,1259,o),
(554,1247,o),
(550,1236,cs),
(180,252,ls),
(167,219,o),
(150,189,o),
(93,189,cs),
(52,189,o),
(5,176,o),
(-5,141,c),
(-8,109,o),
(-11,71,o),
(-11,38,cs),
(-11,18,o),
(-6,-3,o),
(6,-11,c),
(71,-7,o),
(157,0,o),
(246,0,cs),
(352,0,o),
(437,-6,o),
(509,-11,c),
(520,12,o),
(531,94,o),
(536,149,c),
(536,206,o),
(392,169,o),
(392,217,cs),
(392,229,o),
(396,239,o),
(401,254,cs),
(492,523,l),
(1017,523,l),
(1112,254,ls),
(1117,241,o),
(1121,229,o),
(1121,217,cs),
(1121,169,o),
(979,206,o),
(979,149,cs),
(979,91,o),
(989,13,o),
(996,-11,c),
(1071,0,o),
(1165,0,o),
(1275,0,cs),
(1368,0,o),
(1459,-6,o),
(1527,-11,c),
(1539,-3,o),
(1544,18,o),
(1544,38,cs),
(1544,71,o),
(1546,109,o),
(1548,141,c),
(1538,176,o),
(1489,189,o),
(1448,189,cs),
(1391,189,o),
(1374,219,o),
(1361,252,cs),
(991,1216,ls),
(984,1233,o),
(923,1418,o),
(914,1483,c),
(914,1487,l),
(869,1479,o),
(806,1479,o),
(744,1479,cs)
);
},
{
closed = 1;
nodes = (
(757,1256,o),
(855,1001,o),
(964,675,c),
(544,675,l),
(652,1001,o),
(757,1256,o),
(757,1256,c)
);
}
);
width = 1536;
},
{
anchors = (
{
name = bottom;
pos = (945,0);
},
{
name = ogonek;
pos = (1701,10);
},
{
name = top;
pos = (910,1489);
}
);
background = {
anchors = (
{
name = bottom;
pos = (945,0);
},
{
name = ogonek;
pos = (1701,10);
},
{
name = top;
pos = (945,173);
}
);
shapes = (
{
closed = 1;
nodes = (
(1044,535,l),
(1065,487,o),
(1078,429,o),
(1078,382,cs),
(1078,333,o),
(1063,295,o),
(1026,294,c),
(991,289,o),
(950,281,o),
(950,227,cs),
(950,148,o),
(973,14,o),
(1028,-13,c),
(1080,-8,o),
(1242,0,o),
(1437,0,cs),
(1587,0,o),
(1713,-8,o),
(1756,-13,c),
(1811,14,o),
(1834,148,o),
(1834,227,cs),
(1834,281,o),
(1793,288,o),
(1758,294,c),
(1708,294,o),
(1626,464,o),
(1574,604,cs),
(1262,1443,ls),
(1243,1493,o),
(1224,1502,o),
(1221,1503,c),
(1144,1492,o),
(1041,1489,o),
(934,1489,cs),
(797,1489,o),
(655,1495,o),
(558,1503,c),
(530,1491,o),
(491,1413,o),
(491,1270,cs),
(491,1165,o),
(576,1239,o),
(576,1155,cs),
(576,1134,o),
(568,1105,o),
(552,1063,cs),
(307,422,ls),
(236,236,o),
(58,365,o),
(58,196,cs),
(58,128,o),
(61,24,o),
(118,-13,c),
(156,-8,o),
(262,0,o),
(387,0,cs),
(512,0,o),
(618,-8,o),
(656,-13,c),
(725,21,o),
(749,131,o),
(749,251,cs),
(749,316,o),
(584,262,o),
(584,394,cs),
(584,437,o),
(600,482,o),
(616,535,c)
);
},
{
closed = 1;
nodes = (
(681,705,l),
(805,1042,ls),
(826,1098,o),
(836,1125,o),
(845,1125,cs),
(856,1125,o),
(869,1082,o),
(897,1003,cs),
(932,904,o),
(968,807,o),
(1000,705,c)
);
}
);
};
hints = (
{
horizontal = 1;
origin = (0,59);
target = (0,24);
type = Stem;
},
{
horizontal = 1;
origin = (0,68);
target = (1,10);
type = Stem;
},
{
horizontal = 1;
origin = (0,37);
target = down;
type = TopGhost;
},
{
horizontal = 1;
origin = (0,37);
target = (1,4);
type = Stem;
},
{
origin = (0,50);
target = (0,65);
type = Stem;
},
{
origin = (0,50);
target = (0,62);
type = Stem;
}
);
layerId = "5152A785-FF48-4BC0-8F27-F3AFCF9810FE";
shapes = (
{
closed = 1;
nodes = (
(1044,535,l),
(1065,487,o),
(1078,429,o),
(1078,382,cs),
(1078,333,o),
(1063,295,o),
(1026,294,c),
(991,289,o),
(950,281,o),
(950,227,cs),
(950,148,o),
(973,14,o),
(1028,-13,c),
(1080,-8,o),
(1242,0,o),
(1437,0,cs),
(1587,0,o),
(1713,-8,o),
(1756,-13,c),
(1811,14,o),
(1834,148,o),
(1834,227,cs),
(1834,281,o),
(1793,288,o),
(1758,294,c),
(1708,294,o),
(1626,464,o),
(1574,604,cs),
(1262,1443,ls),
(1243,1493,o),
(1224,1502,o),
(1221,1503,c),
(1144,1492,o),
(1041,1489,o),
(934,1489,cs),
(797,1489,o),
(655,1495,o),
(558,1503,c),
(530,1491,o),
(491,1413,o),
(491,1270,cs),
(491,1165,o),
(576,1239,o),
(576,1155,cs),
(576,1134,o),
(568,1105,o),
(552,1063,cs),
(307,422,ls),
(236,236,o),
(58,365,o),
(58,196,cs),
(58,128,o),
(61,24,o),
(118,-13,c),
(156,-8,o),
(262,0,o),
(387,0,cs),
(512,0,o),
(618,-8,o),
(656,-13,c),
(725,21,o),
(749,131,o),
(749,251,cs),
(749,316,o),
(584,262,o),
(584,394,cs),
(584,437,o),
(600,482,o),
(616,535,c)
);
},
{
closed = 1;
nodes = (
(681,705,l),
(805,1042,ls),
(826,1098,o),
(836,1125,o),
(845,1125,cs),
(856,1125,o),
(869,1082,o),
(897,1003,cs),
(932,904,o),
(968,807,o),
(1000,705,c)
);
}
);
width = 1890;
}
);
note = A;
unicode = 65;
},
{
glyphname = Aacute;
kernLeft = A;
kernRight = A;
lastChange = "2026-02-05 15:41:17 +0000";
layers = (
{
background = {
shapes = (
{
closed = 1;
nodes = (
(764,1614,l),
(880,1703,o),
(1067,1866,o),
(1105,1903,cs),
(1169,1966,o),
(1223,1999,o),
(1223,2029,cs),
(1223,2071,o),
(1184,2090,o),
(1076,2090,cs),
(981,2090,o),
(949,2067,o),
(905,1997,cs),
(855,1918,o),
(710,1698,o),
(653,1614,c)
);
},
{
closed = 1;
nodes = (
(635,1479,o),
(539,1482,o),
(462,1487,c),
(446,1466,o),
(433,1396,o),
(427,1347,cs),
(426,1343,o),
(425,1339,o),
(425,1337,cs),
(425,1270,o),
(558,1328,o),
(558,1269,cs),
(558,1259,o),
(554,1247,o),
(550,1236,cs),
(180,252,ls),
(167,219,o),
(150,189,o),
(93,189,cs),
(52,189,o),
(5,176,o),
(-5,141,c),
(-8,109,o),
(-11,71,o),
(-11,38,cs),
(-11,18,o),
(-6,-3,o),
(6,-11,c),
(71,-7,o),
(157,0,o),
(246,0,cs),
(352,0,o),
(437,-6,o),
(509,-11,c),
(520,12,o),
(531,94,o),
(536,149,c),
(536,206,o),
(392,169,o),
(392,217,cs),
(392,229,o),
(396,239,o),
(401,254,cs),
(492,523,l),
(1017,523,l),
(1112,254,ls),
(1117,241,o),
(1121,229,o),
(1121,217,cs),
(1121,169,o),
(979,206,o),
(979,149,cs),
(979,91,o),
(989,13,o),
(996,-11,c),
(1071,0,o),
(1165,0,o),
(1275,0,cs),
(1368,0,o),
(1459,-6,o),
(1527,-11,c),
(1539,-3,o),
(1544,18,o),
(1544,38,cs),
(1544,71,o),
(1546,109,o),
(1548,141,c),
(1538,176,o),
(1489,189,o),
(1448,189,cs),
(1391,189,o),
(1374,219,o),
(1361,252,cs),
(991,1216,ls),
(984,1233,o),
(923,1418,o),
(914,1483,c),
(914,1487,l),
(869,1479,o),
(806,1479,o),
(744,1479,cs)
);
},
{
closed = 1;
nodes = (
(757,1256,o),
(855,1001,o),
(964,675,c),
(544,675,l),
(652,1001,o),
(757,1256,o),
(757,1256,c)
);
}
);
};
layerId = m01;
shapes = (
{
ref = A;
},
{
pos = (610,422);
ref = acutecomb;
}
);
width = 1536;
},
{
background = {
shapes = (
{
closed = 1;
nodes = (
(943,1618,l),
(1059,1707,o),
(1245,1870,o),
(1283,1907,cs),
(1347,1970,o),
(1401,2003,o),
(1401,2033,cs),
(1401,2075,o),
(1363,2094,o),
(1255,2094,cs),
(1160,2094,o),
(1127,2071,o),
(1083,2001,cs),
(1033,1922,o),
(888,1702,o),
(831,1618,c)
);
},
{
closed = 1;
nodes = (
(1044,535,l),
(1065,487,o),
(1078,429,o),
(1078,382,cs),
(1078,333,o),
(1063,295,o),
(1026,294,c),
(991,289,o),
(950,281,o),
(950,227,cs),
(950,148,o),
(973,14,o),
(1028,-13,c),
(1080,-8,o),
(1242,0,o),
(1437,0,cs),
(1587,0,o),
(1713,-8,o),
(1756,-13,c),
(1811,14,o),
(1834,148,o),
(1834,227,cs),
(1834,281,o),
(1793,288,o),
(1758,294,c),
(1708,294,o),
(1626,464,o),
(1574,604,cs),
(1262,1443,ls),
(1243,1493,o),
(1224,1502,o),
(1221,1503,c),
(1144,1492,o),
(1041,1489,o),
(934,1489,cs),
(797,1489,o),
(655,1495,o),
(558,1503,c),
(530,1491,o),
(491,1413,o),
(491,1270,cs),
(491,1165,o),
(576,1239,o),
(576,1155,cs),
(576,1134,o),
(568,1105,o),
(552,1063,cs),
(307,422,ls),
(236,236,o),
(58,365,o),
(58,196,cs),
(58,128,o),
(61,24,o),
(118,-13,c),
(156,-8,o),
(262,0,o),
(387,0,cs),
(512,0,o),
(618,-8,o),
(656,-13,c),
(725,21,o),
(749,131,o),
(749,251,cs),
(749,316,o),
(584,262,o),
(584,394,cs),
(584,437,o),
(600,482,o),
(616,535,c)
);
},
{
closed = 1;
nodes = (
(681,705,l),
(805,1042,ls),
(826,1098,o),
(836,1125,o),
(845,1125,cs),
(856,1125,o),
(869,1082,o),
(897,1003,cs),
(932,904,o),
(968,807,o),
(1000,705,c)
);
}
);
};
layerId = "5152A785-FF48-4BC0-8F27-F3AFCF9810FE";
shapes = (
{
ref = A;
},
{
pos = (745,422);
ref = acutecomb;
}
);
width = 1890;
}
);
note = Aacute;
unicode = 193;
},
{
glyphname = Abreve;
kernLeft = A;
lastChange = "2026-02-05 15:41:17 +0000";
layers = (
{
background = {
shapes = (
{
closed = 1;
nodes = (
(923,1614,o),
(1054,1712,o),
(1070,1895,c),
(876,1895,l),
(876,1798,o),
(814,1750,o),
(752,1750,cs),
(690,1750,o),
(628,1798,o),
(628,1895,c),
(434,1895,l),
(450,1712,o),
(580,1614,o),
(754,1614,cs)
);
},
{
closed = 1;
nodes = (
(635,1479,o),
(539,1482,o),
(462,1487,c),
(446,1466,o),
(433,1396,o),
(427,1347,cs),
(426,1343,o),
(425,1339,o),
(425,1337,cs),
(425,1270,o),
(558,1328,o),
(558,1269,cs),
(558,1259,o),
(554,1247,o),
(550,1236,cs),
(180,252,ls),
(167,219,o),
(150,189,o),
(93,189,cs),
(52,189,o),
(5,176,o),
(-5,141,c),
(-8,109,o),
(-11,71,o),
(-11,38,cs),
(-11,18,o),
(-6,-3,o),
(6,-11,c),
(71,-7,o),
(157,0,o),
(246,0,cs),
(352,0,o),
(437,-6,o),
(509,-11,c),
(520,12,o),
(531,94,o),
(536,149,c),
(536,206,o),
(392,169,o),
(392,217,cs),
(392,229,o),
(396,239,o),
(401,254,cs),
(492,523,l),
(1017,523,l),
(1112,254,ls),
(1117,241,o),
(1121,229,o),
(1121,217,cs),
(1121,169,o),
(979,206,o),
(979,149,cs),
(979,91,o),
(989,13,o),
(996,-11,c),
(1071,0,o),
(1165,0,o),
(1275,0,cs),
(1368,0,o),
(1459,-6,o),
(1527,-11,c),
(1539,-3,o),
(1544,18,o),
(1544,38,cs),
(1544,71,o),
(1546,109,o),
(1548,141,c),
(1538,176,o),
(1489,189,o),
(1448,189,cs),
(1391,189,o),
(1374,219,o),
(1361,252,cs),
(991,1216,ls),
(984,1233,o),
(923,1418,o),
(914,1483,c),
(914,1487,l),
(869,1479,o),
(806,1479,o),
(744,1479,cs)
);
},
{
closed = 1;
nodes = (
(757,1256,o),
(855,1001,o),
(964,675,c),
(544,675,l),
(652,1001,o),
(757,1256,o),
(757,1256,c)
);
}
);
};
layerId = m01;
shapes = (
{
ref = A;
},
{
pos = (216,422);
ref = brevecomb;
}
);
width = 1536;
},
{
background = {
shapes = (
{
closed = 1;
nodes = (
(1101,1618,o),
(1273,1734,o),
(1293,1949,c),
(999,1949,l),
(997,1857,o),
(972,1808,o),
(887,1808,cs),
(802,1808,o),
(783,1857,o),
(781,1949,c),
(487,1949,l),
(507,1734,o),
(673,1618,o),
(887,1618,cs)
);
},
{
closed = 1;
nodes = (
(1044,535,l),
(1065,487,o),
(1078,429,o),
(1078,382,cs),
(1078,333,o),
(1063,295,o),
(1026,294,c),
(991,289,o),
(950,281,o),
(950,227,cs),
(950,148,o),
(973,14,o),
(1028,-13,c),
(1080,-8,o),
(1242,0,o),
(1437,0,cs),
(1587,0,o),
(1713,-8,o),
(1756,-13,c),
(1811,14,o),
(1834,148,o),
(1834,227,cs),
(1834,281,o),
(1793,288,o),
(1758,294,c),
(1708,294,o),
(1626,464,o),
(1574,604,cs),
(1262,1443,ls),
(1243,1493,o),
(1224,1502,o),
(1221,1503,c),
(1144,1492,o),
(1041,1489,o),
(934,1489,cs),
(797,1489,o),
(655,1495,o),
(558,1503,c),
(530,1491,o),
(491,1413,o),
(491,1270,cs),
(491,1165,o),
(576,1239,o),
(576,1155,cs),
(576,1134,o),
(568,1105,o),
(552,1063,cs),
(307,422,ls),
(236,236,o),
(58,365,o),
(58,196,cs),
(58,128,o),
(61,24,o),
(118,-13,c),
(156,-8,o),
(262,0,o),
(387,0,cs),
(512,0,o),
(618,-8,o),
(656,-13,c),
(725,21,o),
(749,131,o),
(749,251,cs),
(749,316,o),
(584,262,o),
(584,394,cs),
(584,437,o),
(600,482,o),
(616,535,c)
);
},
{
closed = 1;
nodes = (
(681,705,l),
(805,1042,ls),
(826,1098,o),
(836,1125,o),
(845,1125,cs),
(856,1125,o),
(869,1082,o),
(897,1003,cs),
(932,904,o),
(968,807,o),
(1000,705,c)
);
}
);
};
layerId = "5152A785-FF48-4BC0-8F27-F3AFCF9810FE";
shapes = (
{
ref = A;
},
{
pos = (424,422);
ref = brevecomb;
}
);
width = 1890;
}
);
note = Abreve;
unicode = 258;
},
{
glyphname = Acircumflex;
kernLeft = A;
kernRight = A;
lastChange = "2026-02-05 15:41:33 +0000";
layers = (
{
background = {
shapes = (
{
closed = 1;
nodes = (
(685,2090,l),
(597,2001,o),
(462,1839,o),
(433,1802,cs),
(384,1740,o),
(346,1705,o),
(346,1675,cs),
(346,1633,o),
(368,1614,o),
(433,1614,cs),
(502,1614,o),
(521,1639,o),
(559,1687,cs),
(740,1918,l),
(921,1687,ls),
(959,1639,o),
(978,1614,o),
(1047,1614,cs),
(1105,1614,o),
(1124,1633,o),
(1124,1675,cs),
(1124,1705,o),
(1086,1740,o),
(1037,1802,cs),
(1008,1839,o),
(872,2001,o),
(785,2090,c)
);
},
{
closed = 1;
nodes = (
(635,1479,o),
(539,1482,o),
(462,1487,c),
(446,1466,o),
(433,1396,o),
(427,1347,cs),
(426,1343,o),
(425,1339,o),
(425,1337,cs),
(425,1270,o),
(558,1328,o),
(558,1269,cs),
(558,1259,o),
(554,1247,o),
(550,1236,cs),
(180,252,ls),
(167,219,o),
(150,189,o),
(93,189,cs),
(52,189,o),
(5,176,o),
(-5,141,c),
(-8,109,o),
(-11,71,o),
(-11,38,cs),
(-11,18,o),
(-6,-3,o),
(6,-11,c),
(71,-7,o),
(157,0,o),
(246,0,cs),
(352,0,o),
(437,-6,o),
(509,-11,c),
(520,12,o),
(531,94,o),
(536,149,c),
(536,206,o),
(392,169,o),
(392,217,cs),
(392,229,o),
(396,239,o),
(401,254,cs),
(492,523,l),
(1017,523,l),
(1112,254,ls),
(1117,241,o),
(1121,229,o),
(1121,217,cs),
(1121,169,o),
(979,206,o),
(979,149,cs),
(979,91,o),
(989,13,o),
(996,-11,c),
(1071,0,o),
(1165,0,o),
(1275,0,cs),
(1368,0,o),
(1459,-6,o),
(1527,-11,c),
(1539,-3,o),
(1544,18,o),
(1544,38,cs),
(1544,71,o),
(1546,109,o),
(1548,141,c),
(1538,176,o),
(1489,189,o),
(1448,189,cs),
(1391,189,o),
(1374,219,o),
(1361,252,cs),
(991,1216,ls),
(984,1233,o),
(923,1418,o),
(914,1483,c),
(914,1487,l),
(869,1479,o),
(806,1479,o),
(744,1479,cs)
);
},
{
closed = 1;
nodes = (
(757,1256,o),
(855,1001,o),
(964,675,c),
(544,675,l),
(652,1001,o),
(757,1256,o),
(757,1256,c)
);
}
);
};
layerId = m01;
shapes = (
{
ref = A;
},
{
pos = (308,422);
ref = circumflexcomb;
}
);
width = 1536;
},
{
background = {
shapes = (
{
closed = 1;
nodes = (
(814,2094,l),
(717,2005,o),
(564,1843,o),
(533,1805,cs),
(483,1744,o),
(445,1709,o),
(445,1679,cs),
(445,1637,o),
(481,1618,o),
(582,1618,cs),
(666,1618,o),
(691,1643,o),
(738,1691,c),
(889,1882,l),
(1040,1691,l),
(1087,1643,o),
(1112,1618,o),
(1196,1618,cs),
(1297,1618,o),
(1333,1637,o),
(1333,1679,cs),
(1333,1709,o),
(1295,1744,o),
(1245,1805,cs),
(1214,1843,o),
(1061,2005,o),
(964,2094,c)
);
},
{
closed = 1;
nodes = (
(1044,535,l),
(1065,487,o),
(1078,429,o),
(1078,382,cs),
(1078,333,o),
(1063,295,o),
(1026,294,c),
(991,289,o),
(950,281,o),
(950,227,cs),
(950,148,o),
(973,14,o),
(1028,-13,c),
(1080,-8,o),
(1242,0,o),
(1437,0,cs),
(1587,0,o),
(1713,-8,o),
(1756,-13,c),
(1811,14,o),
(1834,148,o),
(1834,227,cs),
(1834,281,o),
(1793,288,o),
(1758,294,c),
(1708,294,o),
(1626,464,o),
(1574,604,cs),
(1262,1443,ls),
(1243,1493,o),
(1224,1502,o),
(1221,1503,c),
(1144,1492,o),
(1041,1489,o),
(934,1489,cs),
(797,1489,o),
(655,1495,o),
(558,1503,c),
(530,1491,o),
(491,1413,o),
(491,1270,cs),
(491,1165,o),
(576,1239,o),
(576,1155,cs),
(576,1134,o),
(568,1105,o),
(552,1063,cs),
(307,422,ls),
(236,236,o),
(58,365,o),
(58,196,cs),
(58,128,o),
(61,24,o),
(118,-13,c),
(156,-8,o),
(262,0,o),
(387,0,cs),
(512,0,o),
(618,-8,o),
(656,-13,c),
(725,21,o),
(749,131,o),
(749,251,cs),
(749,316,o),
(584,262,o),
(584,394,cs),
(584,437,o),
(600,482,o),
(616,535,c)
);
},
{
closed = 1;
nodes = (
(681,705,l),
(805,1042,ls),
(826,1098,o),
(836,1125,o),
(845,1125,cs),
(856,1125,o),
(869,1082,o),
(897,1003,cs),
(932,904,o),
(968,807,o),
(1000,705,c)
);
}
);
};
layerId = "5152A785-FF48-4BC0-8F27-F3AFCF9810FE";
shapes = (
{
ref = A;
},
{
pos = (383,422);
ref = circumflexcomb;
}
);
width = 1890;
}
);
note = Acircumflex;
unicode = 194;
},
{
glyphname = Adieresis;
kernLeft = A;
kernRight = A;
lastChange = "2026-02-05 15:41:17 +0000";
layers = (
{
background = {
shapes = (
{
closed = 1;
nodes = (
(278,1681,o),
(324,1614,o),
(430,1614,cs),
(534,1614,o),
(577,1683,o),
(577,1750,cs),
(577,1818,o),
(534,1886,o),
(430,1886,cs),
(324,1886,o),
(278,1820,o),
(278,1750,cs)
);
},
{
closed = 1;
nodes = (
(868,1681,o),
(914,1614,o),
(1020,1614,cs),
(1125,1614,o),
(1167,1683,o),
(1167,1750,cs),
(1167,1818,o),
(1125,1886,o),
(1020,1886,cs),
(914,1886,o),
(868,1820,o),
(868,1750,cs)
);
},
{
closed = 1;
nodes = (
(635,1479,o),
(539,1482,o),
(462,1487,c),
(446,1466,o),
(433,1396,o),
(427,1347,cs),
(426,1343,o),
(425,1339,o),
(425,1337,cs),
(425,1270,o),
(558,1328,o),
(558,1269,cs),
(558,1259,o),
(554,1247,o),
(550,1236,cs),
(180,252,ls),
(167,219,o),
(150,189,o),
(93,189,cs),
(52,189,o),
(5,176,o),
(-5,141,c),
(-8,109,o),
(-11,71,o),
(-11,38,cs),
(-11,18,o),
(-6,-3,o),
(6,-11,c),
(71,-7,o),
(157,0,o),
(246,0,cs),
(352,0,o),
(437,-6,o),
(509,-11,c),
(520,12,o),
(531,94,o),
(536,149,c),
(536,206,o),
(392,169,o),
(392,217,cs),
(392,229,o),
(396,239,o),
(401,254,cs),
(492,523,l),
(1017,523,l),
(1112,254,ls),
(1117,241,o),
(1121,229,o),
(1121,217,cs),
(1121,169,o),
(979,206,o),
(979,149,cs),
(979,91,o),
(989,13,o),
(996,-11,c),
(1071,0,o),
(1165,0,o),
(1275,0,cs),
(1368,0,o),
(1459,-6,o),
(1527,-11,c),
(1539,-3,o),
(1544,18,o),
(1544,38,cs),
(1544,71,o),
(1546,109,o),
(1548,141,c),
(1538,176,o),
(1489,189,o),
(1448,189,cs),
(1391,189,o),
(1374,219,o),
(1361,252,cs),
(991,1216,ls),
(984,1233,o),
(923,1418,o),
(914,1483,c),
(914,1487,l),
(869,1479,o),
(806,1479,o),
(744,1479,cs)
);
},
{
closed = 1;
nodes = (
(757,1256,o),
(855,1001,o),
(964,675,c),
(544,675,l),
(652,1001,o),
(757,1256,o),
(757,1256,c)
);
}
);
};
layerId = m01;
shapes = (
{
ref = A;
},
{
pos = (280,422);
ref = dieresiscomb;
}
);
width = 1536;
},
{
background = {
shapes = (
{
closed = 1;
nodes = (
(437,1708,o),
(499,1618,o),
(642,1618,cs),
(783,1618,o),
(840,1711,o),
(840,1802,cs),
(840,1893,o),
(783,1985,o),
(642,1985,cs),
(499,1985,o),
(437,1896,o),
(437,1802,cs)
);
},
{
closed = 1;
nodes = (
(950,1708,o),
(1012,1618,o),
(1155,1618,cs),
(1296,1618,o),
(1353,1711,o),
(1353,1802,cs),
(1353,1893,o),
(1296,1985,o),
(1155,1985,cs),
(1012,1985,o),
(950,1896,o),
(950,1802,cs)
);
},
{
closed = 1;
nodes = (
(1044,535,l),
(1065,487,o),
(1078,429,o),
(1078,382,cs),
(1078,333,o),
(1063,295,o),
(1026,294,c),
(991,289,o),
(950,281,o),
(950,227,cs),
(950,148,o),
(973,14,o),
(1028,-13,c),
(1080,-8,o),
(1242,0,o),
(1437,0,cs),
(1587,0,o),
(1713,-8,o),
(1756,-13,c),
(1811,14,o),
(1834,148,o),
(1834,227,cs),
(1834,281,o),
(1793,288,o),
(1758,294,c),
(1708,294,o),
(1626,464,o),
(1574,604,cs),
(1262,1443,ls),
(1243,1493,o),
(1224,1502,o),
(1221,1503,c),
(1144,1492,o),
(1041,1489,o),
(934,1489,cs),
(797,1489,o),
(655,1495,o),
(558,1503,c),
(530,1491,o),
(491,1413,o),
(491,1270,cs),
(491,1165,o),
(576,1239,o),
(576,1155,cs),
(576,1134,o),
(568,1105,o),
(552,1063,cs),
(307,422,ls),
(236,236,o),
(58,365,o),
(58,196,cs),
(58,128,o),
(61,24,o),
(118,-13,c),
(156,-8,o),
(262,0,o),
(387,0,cs),
(512,0,o),
(618,-8,o),
(656,-13,c),
(725,21,o),
(749,131,o),
(749,251,cs),
(749,316,o),
(584,262,o),
(584,394,cs),
(584,437,o),
(600,482,o),
(616,535,c)
);
},
{
closed = 1;
nodes = (
(681,705,l),
(805,1042,ls),
(826,1098,o),
(836,1125,o),
(845,1125,cs),
(856,1125,o),
(869,1082,o),
(897,1003,cs),
(932,904,o),
(968,807,o),
(1000,705,c)
);
}
);
};
layerId = "5152A785-FF48-4BC0-8F27-F3AFCF9810FE";
shapes = (
{
ref = A;
},
{
pos = (377,422);
ref = dieresiscomb;
}
);
width = 1890;
}
);
note = Adieresis;
unicode = 196;
},
{
glyphname = Agrave;
kernLeft = A;
kernRight = A;
lastChange = "2026-02-05 15:53:19 +0000";
layers = (
{
background = {
shapes = (
{
closed = 1;
nodes = (
(763,1614,l),
(706,1698,o),
(561,1918,o),
(511,1997,cs),
(467,2067,o),
(435,2090,o),
(340,2090,cs),
(232,2090,o),
(193,2071,o),
(193,2029,cs),
(193,1999,o),
(247,1966,o),
(311,1903,cs),
(349,1866,o),
(536,1703,o),
(652,1614,c)
);
},
{
closed = 1;
nodes = (
(635,1479,o),
(539,1482,o),
(462,1487,c),
(446,1466,o),
(433,1396,o),
(427,1347,cs),
(426,1343,o),
(425,1339,o),
(425,1337,cs),
(425,1270,o),
(558,1328,o),
(558,1269,cs),
(558,1259,o),
(554,1247,o),
(550,1236,cs),
(180,252,ls),
(167,219,o),
(150,189,o),
(93,189,cs),
(52,189,o),
(5,176,o),
(-5,141,c),
(-8,109,o),
(-11,71,o),
(-11,38,cs),
(-11,18,o),
(-6,-3,o),
(6,-11,c),
(71,-7,o),
(157,0,o),
(246,0,cs),
(352,0,o),
(437,-6,o),
(509,-11,c),
(520,12,o),
(531,94,o),
(536,149,c),
(536,206,o),
(392,169,o),
(392,217,cs),
(392,229,o),
(396,239,o),
(401,254,cs),
(492,523,l),
(1017,523,l),
(1112,254,ls),
(1117,241,o),
(1121,229,o),
(1121,217,cs),
(1121,169,o),
(979,206,o),
(979,149,cs),
(979,91,o),
(989,13,o),
(996,-11,c),
(1071,0,o),
(1165,0,o),
(1275,0,cs),
(1368,0,o),
(1459,-6,o),
(1527,-11,c),
(1539,-3,o),
(1544,18,o),
(1544,38,cs),
(1544,71,o),
(1546,109,o),
(1548,141,c),
(1538,176,o),
(1489,189,o),
(1448,189,cs),
(1391,189,o),
(1374,219,o),
(1361,252,cs),
(991,1216,ls),
(984,1233,o),
(923,1418,o),
(914,1483,c),
(914,1487,l),
(869,1479,o),
(806,1479,o),
(744,1479,cs)
);
},
{
closed = 1;
nodes = (
(757,1256,o),
(855,1001,o),
(964,675,c),
(544,675,l),
(652,1001,o),
(757,1256,o),
(757,1256,c)
);
}
);
};
layerId = m01;
shapes = (
{
ref = A;
},
{
pos = (212,422);
ref = gravecomb;
}
);
width = 1536;
},
{
background = {
shapes = (
{
closed = 1;
nodes = (
(965,1618,l),
(916,1702,o),
(800,1925,o),
(753,2001,cs),
(708,2074,o),
(669,2094,o),
(562,2094,cs),
(447,2094,o),
(405,2075,o),
(405,2033,cs),
(405,2003,o),
(454,1970,o),
(513,1907,cs),
(547,1870,o),
(710,1707,o),
(814,1618,c)
);
},
{
closed = 1;
nodes = (
(1044,535,l),
(1065,487,o),
(1078,429,o),
(1078,382,cs),
(1078,333,o),
(1063,295,o),
(1026,294,c),
(991,289,o),
(950,281,o),
(950,227,cs),
(950,148,o),
(973,14,o),
(1028,-13,c),
(1080,-8,o),
(1242,0,o),
(1437,0,cs),
(1587,0,o),
(1713,-8,o),
(1756,-13,c),
(1811,14,o),
(1834,148,o),
(1834,227,cs),
(1834,281,o),
(1793,288,o),
(1758,294,c),
(1708,294,o),
(1626,464,o),
(1574,604,cs),
(1262,1443,ls),
(1243,1493,o),
(1224,1502,o),
(1221,1503,c),
(1144,1492,o),
(1041,1489,o),
(934,1489,cs),
(797,1489,o),
(655,1495,o),
(558,1503,c),
(530,1491,o),
(491,1413,o),
(491,1270,cs),
(491,1165,o),
(576,1239,o),
(576,1155,cs),
(576,1134,o),
(568,1105,o),
(552,1063,cs),
(307,422,ls),
(236,236,o),
(58,365,o),
(58,196,cs),
(58,128,o),
(61,24,o),
(118,-13,c),
(156,-8,o),
(262,0,o),
(387,0,cs),
(512,0,o),
(618,-8,o),
(656,-13,c),
(725,21,o),
(749,131,o),
(749,251,cs),
(749,316,o),
(584,262,o),
(584,394,cs),
(584,437,o),
(600,482,o),
(616,535,c)
);
},
{
closed = 1;
nodes = (
(681,705,l),
(805,1042,ls),
(826,1098,o),
(836,1125,o),
(845,1125,cs),
(856,1125,o),
(869,1082,o),
(897,1003,cs),
(932,904,o),
(968,807,o),
(1000,705,c)
);
}
);
};
layerId = "5152A785-FF48-4BC0-8F27-F3AFCF9810FE";
shapes = (
{
ref = A;
},
{
pos = (264,422);
ref = gravecomb;
}
);
width = 1890;
}
);
note = Agrave;
unicode = 192;
},
{
glyphname = Amacron;
kernLeft = A;
kernRight = A;
lastChange = "2026-02-05 15:41:17 +0000";
layers = (
{
background = {
shapes = (
{
closed = 1;
nodes = (
(1024,1614,ls),
(1063,1614,o),
(1071,1659,o),
(1071,1698,cs),
(1071,1750,o),
(1056,1763,o),
(1023,1763,cs),
(436,1763,ls),
(401,1763,o),
(390,1730,o),
(390,1686,cs),
(390,1651,o),
(396,1614,o),
(428,1614,cs)
);
},
{
closed = 1;
nodes = (
(635,1479,o),
(539,1482,o),
(462,1487,c),
(446,1466,o),
(433,1396,o),
(427,1347,cs),
(426,1343,o),
(425,1339,o),
(425,1337,cs),
(425,1270,o),
(558,1328,o),
(558,1269,cs),
(558,1259,o),
(554,1247,o),
(550,1236,cs),
(180,252,ls),
(167,219,o),
(150,189,o),
(93,189,cs),
(52,189,o),
(5,176,o),
(-5,141,c),
(-8,109,o),
(-11,71,o),
(-11,38,cs),
(-11,18,o),
(-6,-3,o),
(6,-11,c),
(71,-7,o),
(157,0,o),
(246,0,cs),
(352,0,o),
(437,-6,o),
(509,-11,c),
(520,12,o),
(531,94,o),
(536,149,c),
(536,206,o),
(392,169,o),
(392,217,cs),
(392,229,o),
(396,239,o),
(401,254,cs),
(492,523,l),
(1017,523,l),
(1112,254,ls),
(1117,241,o),
(1121,229,o),
(1121,217,cs),
(1121,169,o),
(979,206,o),
(979,149,cs),
(979,91,o),
(989,13,o),
(996,-11,c),
(1071,0,o),
(1165,0,o),
(1275,0,cs),
(1368,0,o),
(1459,-6,o),
(1527,-11,c),
(1539,-3,o),
(1544,18,o),
(1544,38,cs),
(1544,71,o),
(1546,109,o),
(1548,141,c),
(1538,176,o),
(1489,189,o),
(1448,189,cs),
(1391,189,o),
(1374,219,o),
(1361,252,cs),
(991,1216,ls),
(984,1233,o),
(923,1418,o),
(914,1483,c),
(914,1487,l),
(869,1479,o),
(806,1479,o),
(744,1479,cs)
);
},
{
closed = 1;
nodes = (
(757,1256,o),
(855,1001,o),
(964,675,c),
(544,675,l),
(652,1001,o),
(757,1256,o),
(757,1256,c)
);
}
);
};
layerId = m01;
shapes = (
{
ref = A;
},
{
pos = (361,422);
ref = macroncomb;
}
);
width = 1536;
},
{
background = {
shapes = (
{
closed = 1;
nodes = (
(628,1620,o),
(708,1618,o),
(789,1618,cs),
(923,1618,o),
(1085,1619,o),
(1218,1619,cs),
(1258,1619,o),
(1265,1699,o),
(1265,1764,cs),
(1265,1872,o),
(1250,1899,o),
(1217,1899,cs),
(981,1899,ls),
(822,1899,o),
(685,1902,o),
(560,1902,cs),
(525,1902,o),
(514,1837,o),
(514,1752,cs),
(514,1687,o),
(520,1620,o),
(552,1620,cs)
);
},
{
closed = 1;
nodes = (
(1044,535,l),
(1065,487,o),
(1078,429,o),
(1078,382,cs),
(1078,333,o),
(1063,295,o),
(1026,294,c),
(991,289,o),
(950,281,o),
(950,227,cs),
(950,148,o),
(973,14,o),
(1028,-13,c),
(1080,-8,o),
(1242,0,o),
(1437,0,cs),
(1587,0,o),
(1713,-8,o),
(1756,-13,c),
(1811,14,o),
(1834,148,o),
(1834,227,cs),
(1834,281,o),
(1793,288,o),
(1758,294,c),
(1708,294,o),
(1626,464,o),
(1574,604,cs),
(1262,1443,ls),
(1243,1493,o),
(1224,1502,o),
(1221,1503,c),
(1144,1492,o),
(1041,1489,o),
(934,1489,cs),
(797,1489,o),
(655,1495,o),
(558,1503,c),
(530,1491,o),
(491,1413,o),
(491,1270,cs),
(491,1165,o),
(576,1239,o),
(576,1155,cs),
(576,1134,o),
(568,1105,o),
(552,1063,cs),
(307,422,ls),
(236,236,o),
(58,365,o),
(58,196,cs),
(58,128,o),
(61,24,o),
(118,-13,c),
(156,-8,o),
(262,0,o),
(387,0,cs),
(512,0,o),
(618,-8,o),
(656,-13,c),
(725,21,o),
(749,131,o),
(749,251,cs),
(749,316,o),
(584,262,o),
(584,394,cs),
(584,437,o),
(600,482,o),
(616,535,c)
);
},
{
closed = 1;
nodes = (
(681,705,l),
(805,1042,ls),
(826,1098,o),
(836,1125,o),
(845,1125,cs),
(856,1125,o),
(869,1082,o),
(897,1003,cs),
(932,904,o),
(968,807,o),
(1000,705,c)
);
}
);
};
layerId = "5152A785-FF48-4BC0-8F27-F3AFCF9810FE";
shapes = (
{
ref = A;
},
{
pos = (452,422);
ref = macroncomb;
}
);
width = 1890;
}
);
note = Amacron;
unicode = 256;
},
{
glyphname = Aogonek;
kernLeft = A;
kernRight = A;
lastChange = "2026-02-05 15:44:33 +0000";
layers = (
{
anchors = (
{
name = top;
pos = (768,1489);
}
);
background = {
shapes = (
{
closed = 1;
nodes = (
(1513,-262,l),
(1475,-279,o),
(1419,-297,o),
(1373,-297,cs),
(1330,-297,o),
(1296,-277,o),
(1296,-214,cs),
(1296,-146,o),
(1351,-49,o),
(1444,-3,c),
(1444,97,l),
(1238,11,o),
(1131,-139,o),
(1131,-257,cs),
(1131,-388,o),
(1224,-452,o),
(1357,-452,cs),
(1416,-452,o),
(1486,-436,o),
(1557,-405,c)
);
},
{
closed = 1;
nodes = (
(635,1479,o),
(539,1482,o),
(462,1487,c),
(446,1466,o),
(433,1396,o),
(427,1347,cs),
(426,1343,o),
(425,1339,o),
(425,1337,cs),
(425,1270,o),
(558,1328,o),
(558,1269,cs),
(558,1259,o),
(554,1247,o),
(550,1236,cs),
(180,252,ls),
(167,219,o),
(150,189,o),
(93,189,cs),
(52,189,o),
(5,176,o),
(-5,141,c),
(-8,109,o),
(-11,71,o),
(-11,38,cs),
(-11,18,o),
(-6,-3,o),
(6,-11,c),
(71,-7,o),
(157,0,o),
(246,0,cs),
(352,0,o),
(437,-6,o),
(509,-11,c),
(520,12,o),
(531,94,o),
(536,149,c),
(536,206,o),
(392,169,o),
(392,217,cs),
(392,229,o),
(396,239,o),
(401,254,cs),
(492,523,l),
(1017,523,l),
(1112,254,ls),
(1117,241,o),
(1121,229,o),
(1121,217,cs),
(1121,169,o),
(979,206,o),
(979,149,cs),
(979,91,o),
(989,13,o),
(996,-11,c),
(1071,0,o),
(1165,0,o),
(1275,0,cs),
(1368,0,o),
(1459,-6,o),
(1527,-11,c),
(1539,-3,o),
(1544,18,o),
(1544,38,cs),
(1544,71,o),
(1546,109,o),
(1548,141,c),
(1538,176,o),
(1489,189,o),
(1448,189,cs),
(1391,189,o),
(1374,219,o),
(1361,252,cs),
(991,1216,ls),
(984,1233,o),
(923,1418,o),
(914,1483,c),
(914,1487,l),
(869,1479,o),
(806,1479,o),
(744,1479,cs)
);
},
{
closed = 1;
nodes = (
(757,1256,o),
(855,1001,o),
(964,675,c),
(544,675,l),
(652,1001,o),
(757,1256,o),
(757,1256,c)
);
}
);
};
layerId = m01;
shapes = (
{
ref = A;
},
{
pos = (1041,0);
ref = ogonekcomb;
}
);
width = 1536;
},
{
anchors = (
{
name = top;
pos = (945,1489);
}
);
background = {
shapes = (
{
closed = 1;
nodes = (
(1765,-235,l),
(1733,-252,o),
(1685,-270,o),
(1645,-270,cs),
(1602,-270,o),
(1568,-250,o),
(1568,-187,cs),
(1568,-125,o),
(1615,-38,o),
(1696,4,c),
(1696,104,l),
(1490,18,o),
(1383,-132,o),
(1383,-250,cs),
(1383,-381,o),
(1476,-445,o),
(1609,-445,cs),
(1674,-445,o),
(1750,-429,o),
(1829,-398,c)
);
},
{
closed = 1;
nodes = (
(1044,535,l),
(1065,487,o),
(1078,429,o),
(1078,382,cs),
(1078,333,o),
(1063,295,o),
(1026,294,c),
(991,289,o),
(950,281,o),
(950,227,cs),
(950,148,o),
(973,14,o),
(1028,-13,c),
(1080,-8,o),
(1242,0,o),
(1437,0,cs),
(1587,0,o),
(1713,-8,o),
(1756,-13,c),
(1811,14,o),
(1834,148,o),
(1834,227,cs),
(1834,281,o),
(1793,288,o),
(1758,294,c),
(1708,294,o),
(1626,464,o),
(1574,604,cs),
(1262,1443,ls),
(1243,1493,o),
(1224,1502,o),
(1221,1503,c),
(1144,1492,o),
(1041,1489,o),
(934,1489,cs),
(797,1489,o),
(655,1495,o),
(558,1503,c),
(530,1491,o),
(491,1413,o),
(491,1270,cs),
(491,1165,o),
(576,1239,o),
(576,1155,cs),
(576,1134,o),
(568,1105,o),
(552,1063,cs),
(307,422,ls),
(236,236,o),
(58,365,o),
(58,196,cs),
(58,128,o),
(61,24,o),
(118,-13,c),
(156,-8,o),
(262,0,o),
(387,0,cs),
(512,0,o),
(618,-8,o),
(656,-13,c),
(725,21,o),
(749,131,o),
(749,251,cs),
(749,316,o),
(584,262,o),
(584,394,cs),
(584,437,o),
(600,482,o),
(616,535,c)
);
},
{
closed = 1;
nodes = (
(681,705,l),
(805,1042,ls),
(826,1098,o),
(836,1125,o),
(845,1125,cs),
(856,1125,o),
(869,1082,o),
(897,1003,cs),
(932,904,o),
(968,807,o),
(1000,705,c)
);
}
);
};
layerId = "5152A785-FF48-4BC0-8F27-F3AFCF9810FE";
shapes = (
{
ref = A;
},
{
pos = (1294,10);
ref = ogonekcomb;
}
);
width = 1890;
}
);
note = Aogonek;
unicode = 260;
},
{
glyphname = Aring;
kernLeft = A;
kernRight = A;
lastChange = "2026-02-05 15:41:17 +0000";
layers = (
{
background = {
shapes = (
{
closed = 1;
nodes = (
(896,1536,o),
(1006,1632,o),
(1006,1765,cs),
(1006,1891,o),
(908,1986,o),
(760,1986,cs),
(613,1986,o),
(506,1902,o),
(506,1762,cs),
(506,1617,o),
(627,1536,o),
(758,1536,cs)
);
},
{
closed = 1;
nodes = (
(609,1864,o),
(682,1916,o),
(755,1916,cs),
(827,1916,o),
(900,1865,o),
(900,1762,cs),
(900,1657,o),
(827,1604,o),
(754,1604,cs),
(681,1604,o),
(609,1656,o),
(609,1761,cs)
);
},
{
closed = 1;
nodes = (
(635,1479,o),
(539,1482,o),
(462,1487,c),
(446,1466,o),
(433,1396,o),
(427,1347,cs),
(426,1343,o),
(425,1339,o),
(425,1337,cs),
(425,1270,o),
(558,1328,o),
(558,1269,cs),
(558,1259,o),
(554,1247,o),
(550,1236,cs),
(180,252,ls),
(167,219,o),
(150,189,o),
(93,189,cs),
(52,189,o),
(5,176,o),
(-5,141,c),
(-8,109,o),
(-11,71,o),
(-11,38,cs),
(-11,18,o),
(-6,-3,o),
(6,-11,c),
(71,-7,o),
(157,0,o),
(246,0,cs),
(352,0,o),
(437,-6,o),
(509,-11,c),
(520,12,o),
(531,94,o),
(536,149,c),
(536,206,o),
(392,169,o),
(392,217,cs),
(392,229,o),
(396,239,o),
(401,254,cs),
(492,523,l),
(1017,523,l),
(1112,254,ls),
(1117,241,o),
(1121,229,o),
(1121,217,cs),
(1121,169,o),
(979,206,o),
(979,149,cs),
(979,91,o),
(989,13,o),
(996,-11,c),
(1071,0,o),
(1165,0,o),
(1275,0,cs),
(1368,0,o),
(1459,-6,o),
(1527,-11,c),
(1539,-3,o),
(1544,18,o),
(1544,38,cs),
(1544,71,o),
(1546,109,o),
(1548,141,c),
(1538,176,o),
(1489,189,o),
(1448,189,cs),
(1391,189,o),
(1374,219,o),
(1361,252,cs),
(991,1216,ls),
(984,1233,o),
(923,1418,o),
(914,1483,c),
(914,1487,l),
(869,1479,o),
(806,1479,o),
(744,1479,cs)
);
},
{
closed = 1;
nodes = (
(757,1256,o),
(855,1001,o),
(964,675,c),
(544,675,l),
(652,1001,o),
(757,1256,o),
(757,1256,c)
);
}
);
};
layerId = m01;
shapes = (
{
ref = A;
},
{
pos = (446,422);
ref = ringcomb;
}
);
width = 1536;
},
{
background = {
shapes = (
{
closed = 1;
nodes = (
(1054,1528,o),
(1164,1624,o),
(1164,1757,cs),
(1164,1883,o),
(1066,1978,o),
(918,1978,cs),
(771,1978,o),
(664,1894,o),
(664,1754,cs),
(664,1609,o),
(785,1528,o),
(916,1528,cs)
);
},
{
closed = 1;
nodes = (
(767,1856,o),
(840,1908,o),
(913,1908,cs),
(985,1908,o),
(1058,1857,o),
(1058,1754,cs),
(1058,1649,o),
(985,1596,o),
(912,1596,cs),
(839,1596,o),
(767,1648,o),
(767,1753,cs)
);
},
{
closed = 1;
nodes = (
(1044,535,l),
(1065,487,o),
(1078,429,o),
(1078,382,cs),
(1078,333,o),
(1063,295,o),
(1026,294,c),
(991,289,o),
(950,281,o),
(950,227,cs),
(950,148,o),
(973,14,o),
(1028,-13,c),
(1080,-8,o),
(1242,0,o),
(1437,0,cs),
(1587,0,o),
(1713,-8,o),
(1756,-13,c),
(1811,14,o),
(1834,148,o),
(1834,227,cs),
(1834,281,o),
(1793,288,o),
(1758,294,c),
(1708,294,o),
(1626,464,o),
(1574,604,cs),
(1262,1443,ls),
(1243,1493,o),
(1224,1502,o),
(1221,1503,c),
(1144,1492,o),
(1041,1489,o),
(934,1489,cs),
(797,1489,o),
(655,1495,o),
(558,1503,c),
(530,1491,o),
(491,1413,o),
(491,1270,cs),
(491,1165,o),
(576,1239,o),
(576,1155,cs),
(576,1134,o),
(568,1105,o),
(552,1063,cs),
(307,422,ls),
(236,236,o),
(58,365,o),
(58,196,cs),
(58,128,o),
(61,24,o),
(118,-13,c),
(156,-8,o),
(262,0,o),
(387,0,cs),
(512,0,o),
(618,-8,o),
(656,-13,c),
(725,21,o),
(749,131,o),
(749,251,cs),
(749,316,o),
(584,262,o),
(584,394,cs),
(584,437,o),
(600,482,o),
(616,535,c)
);
},
{
closed = 1;
nodes = (
(681,705,l),
(805,1042,ls),
(826,1098,o),
(836,1125,o),
(845,1125,cs),
(856,1125,o),
(869,1082,o),
(897,1003,cs),
(932,904,o),
(968,807,o),
(1000,705,c)
);
}
);
};
layerId = "5152A785-FF48-4BC0-8F27-F3AFCF9810FE";
shapes = (
{
ref = A;
},
{
pos = (572,422);
ref = ringcomb;
}
);
width = 1890;
}
);
note = Aring;
unicode = 197;
},
{
glyphname = Atilde;
kernLeft = A;
kernRight = A;
lastChange = "2026-02-05 15:41:17 +0000";
layers = (
{
background = {
shapes = (
{
closed = 1;
nodes = (
(1099,1835,l),
(1071,1842,o),
(1022,1853,o),
(981,1853,cs),
(957,1853,o),
(936,1850,o),
(936,1850,c),
(932,1803,o),
(918,1777,o),
(888,1777,cs),
(826,1777,o),
(650,1873,o),
(519,1873,cs),
(402,1873,o),
(355,1780,o),
(344,1676,cs),
(341,1648,l),
(341,1634,o),
(415,1621,o),
(459,1621,cs),
(483,1621,o),
(502,1623,o),
(506,1629,c),
(512,1678,o),
(521,1705,o),
(554,1705,cs),
(628,1705,o),
(811,1614,o),
(940,1614,cs),
(1036,1614,o),
(1088,1696,o),
(1097,1810,cs)
);
},
{
closed = 1;
nodes = (
(635,1479,o),
(539,1482,o),
(462,1487,c),
(446,1466,o),
(433,1396,o),
(427,1347,cs),
(426,1343,o),
(425,1339,o),
(425,1337,cs),
(425,1270,o),
(558,1328,o),
(558,1269,cs),
(558,1259,o),
(554,1247,o),
(550,1236,cs),
(180,252,ls),
(167,219,o),
(150,189,o),
(93,189,cs),
(52,189,o),
(5,176,o),
(-5,141,c),
(-8,109,o),
(-11,71,o),
(-11,38,cs),
(-11,18,o),
(-6,-3,o),
(6,-11,c),
(71,-7,o),
(157,0,o),
(246,0,cs),
(352,0,o),
(437,-6,o),
(509,-11,c),
(520,12,o),
(531,94,o),
(536,149,c),
(536,206,o),
(392,169,o),
(392,217,cs),
(392,229,o),
(396,239,o),
(401,254,cs),
(492,523,l),
(1017,523,l),
(1112,254,ls),
(1117,241,o),
(1121,229,o),
(1121,217,cs),
(1121,169,o),
(979,206,o),
(979,149,cs),
(979,91,o),
(989,13,o),
(996,-11,c),
(1071,0,o),
(1165,0,o),
(1275,0,cs),
(1368,0,o),
(1459,-6,o),
(1527,-11,c),
(1539,-3,o),
(1544,18,o),
(1544,38,cs),
(1544,71,o),
(1546,109,o),
(1548,141,c),
(1538,176,o),
(1489,189,o),
(1448,189,cs),
(1391,189,o),
(1374,219,o),
(1361,252,cs),
(991,1216,ls),
(984,1233,o),
(923,1418,o),
(914,1483,c),
(914,1487,l),
(869,1479,o),
(806,1479,o),
(744,1479,cs)
);
},
{
closed = 1;
nodes = (
(757,1256,o),
(855,1001,o),
(964,675,c),
(544,675,l),
(652,1001,o),
(757,1256,o),
(757,1256,c)
);
}
);
};
layerId = m01;
shapes = (
{
ref = A;
},
{
pos = (268,422);
ref = tildecomb;
}
);
width = 1536;
},
{
background = {
shapes = (
{
closed = 1;
nodes = (
(1272,1994,o),
(1236,1996,o),
(1200,1996,cs),
(1144,1996,o),
(1086,1989,o),
(1086,1988,cs),
(1086,1919,ls),
(1086,1889,o),
(1063,1875,o),
(1037,1875,cs),
(982,1875,o),
(801,1986,o),
(673,1986,cs),
(504,1986,o),
(450,1877,o),
(450,1761,cs),
(450,1718,o),
(456,1674,o),
(465,1633,cs),
(467,1623,o),
(529,1618,o),
(591,1618,cs),
(639,1618,o),
(687,1623,o),
(690,1633,c),
(690,1633,o),
(689,1679,o),
(689,1697,cs),
(689,1723,o),
(695,1747,o),
(735,1747,cs),
(795,1747,o),
(977,1625,o),
(1120,1625,cs),
(1271,1625,o),
(1328,1724,o),
(1328,1847,cs),
(1328,1892,o),
(1316,1941,o),
(1297,1990,c)
);
},
{
closed = 1;
nodes = (
(1044,535,l),
(1065,487,o),
(1078,429,o),
(1078,382,cs),
(1078,333,o),
(1063,295,o),
(1026,294,c),
(991,289,o),
(950,281,o),
(950,227,cs),
(950,148,o),
(973,14,o),
(1028,-13,c),
(1080,-8,o),
(1242,0,o),
(1437,0,cs),
(1587,0,o),
(1713,-8,o),
(1756,-13,c),
(1811,14,o),
(1834,148,o),
(1834,227,cs),
(1834,281,o),
(1793,288,o),
(1758,294,c),
(1708,294,o),
(1626,464,o),
(1574,604,cs),
(1262,1443,ls),
(1243,1493,o),
(1224,1502,o),
(1221,1503,c),
(1144,1492,o),
(1041,1489,o),
(934,1489,cs),
(797,1489,o),
(655,1495,o),
(558,1503,c),
(530,1491,o),
(491,1413,o),
(491,1270,cs),
(491,1165,o),
(576,1239,o),
(576,1155,cs),
(576,1134,o),
(568,1105,o),
(552,1063,cs),
(307,422,ls),
(236,236,o),
(58,365,o),
(58,196,cs),
(58,128,o),
(61,24,o),
(118,-13,c),
(156,-8,o),
(262,0,o),
(387,0,cs),
(512,0,o),
(618,-8,o),
(656,-13,c),
(725,21,o),
(749,131,o),
(749,251,cs),
(749,316,o),
(584,262,o),
(584,394,cs),
(584,437,o),
(600,482,o),
(616,535,c)
);
},
{
closed = 1;
nodes = (
(681,705,l),
(805,1042,ls),
(826,1098,o),
(836,1125,o),
(845,1125,cs),
(856,1125,o),
(869,1082,o),
(897,1003,cs),
(932,904,o),
(968,807,o),
(1000,705,c)
);
}
);
};
layerId = "5152A785-FF48-4BC0-8F27-F3AFCF9810FE";
shapes = (
{
ref = A;
},
{
pos = (377,422);
ref = tildecomb;
}
);
width = 1890;
}
);
note = Atilde;
unicode = 195;
},
{
glyphname = AE;
kernLeft = A;
lastChange = "2026-02-05 15:40:54 +0000";
layers = (
{
anchors = (
{
name = bottom;
pos = (1144,0);
},
{
name = top;
pos = (1144,1489);
}
);
background = {
shapes = (
{
closed = 1;
nodes = (
(1170,238,l),
(1170,232,ls),
(1170,158,o),
(1026,214,o),
(1008,149,cs),
(992,91,o),
(980,13,o),
(980,-11,c),
(1199,0,o),
(1402,0,o),
(1625,0,cs),
(1870,0,o),
(2041,-5,o),
(2135,-11,c),
(2159,10,o),
(2215,372,o),
(2215,447,cs),
(2215,456,ls),
(2214,472,o),
(2173,537,o),
(2065,537,cs),
(2021,537,o),
(1996,249,o),
(1972,178,c),
(1817,178,o),
(1648,179,o),
(1456,179,cs),
(1423,179,o),
(1419,214,o),
(1416,244,cs),
(1368,746,l),
(1398,750,o),
(1431,753,o),
(1462,753,cs),
(1542,753,o),
(1613,733,o),
(1677,662,c),
(1740,662,o),
(1793,711,o),
(1793,779,cs),
(1793,883,o),
(1721,921,o),
(1648,921,cs),
(1548,921,o),
(1420,894,o),
(1353,869,c),
(1314,1246,ls),
(1313,1254,o),
(1313,1262,o),
(1313,1269,cs),
(1313,1298,o),
(1322,1310,o),
(1342,1310,cs),
(1534,1310,o),
(1702,1311,o),
(1857,1311,c),
(1887,1248,o),
(1954,992,o),
(1989,992,cs),
(2095,992,o),
(2123,1055,o),
(2123,1072,cs),
(2123,1115,o),
(1994,1482,o),
(1971,1503,c),
(1874,1501,o),
(1641,1490,o),
(1396,1490,cs),
(1234,1490,o),
(1079,1491,o),
(862,1503,c),
(840,1482,o),
(806,1407,o),
(787,1358,c),
(782,1348,o),
(781,1342,o),
(781,1337,cs),
(781,1291,o),
(897,1330,o),
(897,1289,cs),
(897,1275,o),
(888,1262,o),
(880,1247,c),
(237,252,ls),
(215,219,o),
(190,189,o),
(135,189,cs),
(94,189,o),
(44,176,o),
(24,141,c),
(14,101,o),
(-5,40,o),
(-5,11,cs),
(-5,2,o),
(-1,-7,o),
(3,-11,c),
(69,-7,o),
(157,0,o),
(243,0,cs),
(345,0,o),
(426,-6,o),
(493,-11,c),
(511,12,o),
(544,94,o),
(564,149,cs),
(565,152,o),
(565,155,o),
(565,157,cs),
(565,200,o),
(438,173,o),
(438,211,cs),
(437,223,o),
(449,237,o),
(459,254,cs),
(624,523,l),
(1149,523,l)
);
},
{
closed = 1;
nodes = (
(1092,1267,o),
(1119,1007,o),
(1138,675,c),
(718,675,l),
(916,1007,o),
(1092,1267,o),
(1092,1267,c)
);
}
);
};
hints = (
{
horizontal = 1;
origin = (0,101);
target = (0,26);
type = Stem;
},
{
horizontal = 1;
origin = (0,115);
target = (1,3);
type = Stem;
},
{
horizontal = 1;
origin = (0,70);
target = (0,52);
type = Stem;
},
{
horizontal = 1;
origin = (0,36);
target = (0,42);
type = Stem;
},
{
horizontal = 1;
origin = (0,101);
target = (0,86);
type = Stem;
},
{
horizontal = 1;
place = (1311.59,191.41);
type = Stem;
},
{
place = (2001.82,213.18);
type = Stem;
}
);
layerId = m01;
shapes = (
{
closed = 1;
nodes = (
(1170,238,l),
(1170,232,ls),
(1170,158,o),
(1026,214,o),
(1008,149,cs),
(992,91,o),
(980,13,o),
(980,-11,c),
(1199,0,o),
(1402,0,o),
(1625,0,cs),
(1870,0,o),
(2041,-5,o),
(2135,-11,c),
(2159,10,o),
(2215,372,o),
(2215,447,cs),
(2215,456,ls),
(2214,472,o),
(2173,537,o),
(2065,537,cs),
(2021,537,o),
(1996,249,o),
(1972,178,c),
(1817,178,o),
(1648,179,o),
(1456,179,cs),
(1423,179,o),
(1419,214,o),
(1416,244,cs),
(1368,746,l),
(1398,750,o),
(1431,753,o),
(1462,753,cs),
(1542,753,o),
(1613,733,o),
(1677,662,c),
(1740,662,o),
(1793,711,o),
(1793,779,cs),
(1793,883,o),
(1721,921,o),
(1648,921,cs),
(1548,921,o),
(1420,894,o),
(1353,869,c),
(1314,1246,ls),
(1313,1254,o),
(1313,1262,o),
(1313,1269,cs),
(1313,1298,o),
(1322,1310,o),
(1342,1310,cs),
(1534,1310,o),
(1702,1311,o),
(1857,1311,c),
(1887,1248,o),
(1954,992,o),
(1989,992,cs),
(2095,992,o),
(2123,1055,o),
(2123,1072,cs),
(2123,1115,o),
(1994,1482,o),
(1971,1503,c),
(1874,1501,o),
(1641,1490,o),
(1396,1490,cs),
(1234,1490,o),
(1079,1491,o),
(862,1503,c),
(840,1482,o),
(806,1407,o),
(787,1358,c),
(782,1348,o),
(781,1342,o),
(781,1337,cs),
(781,1291,o),
(897,1330,o),
(897,1289,cs),
(897,1275,o),
(888,1262,o),
(880,1247,c),
(237,252,ls),
(215,219,o),
(190,189,o),
(135,189,cs),
(94,189,o),
(44,176,o),
(24,141,c),
(14,101,o),
(-5,40,o),
(-5,11,cs),
(-5,2,o),
(-1,-7,o),
(3,-11,c),
(69,-7,o),
(157,0,o),
(243,0,cs),
(345,0,o),
(426,-6,o),
(493,-11,c),
(511,12,o),
(544,94,o),
(564,149,cs),
(565,152,o),
(565,155,o),
(565,157,cs),
(565,200,o),
(438,173,o),
(438,211,cs),
(437,223,o),
(449,237,o),
(459,254,cs),
(624,523,l),
(1149,523,l)
);
},
{
closed = 1;
nodes = (
(1092,1267,o),
(1119,1007,o),
(1138,675,c),
(718,675,l),
(916,1007,o),
(1092,1267,o),
(1092,1267,c)
);
}
);
width = 2288;
},
{
anchors = (
{
name = bottom;
pos = (1201,0);
},
{
name = top;
pos = (1201,1489);
}
);
background = {
shapes = (
{
closed = 1;
nodes = (
(807,705,l),
(1027,1042,l),
(1060,1098,o),
(1077,1125,o),
(1091,1125,cs),
(1095,1125,o),
(1099,1082,o),
(1108,1003,c),
(1114,904,o),
(1120,807,o),
(1126,705,c)
);
},
{
closed = 1;
nodes = (
(1149,1487,o),
(1008,1494,o),
(912,1503,c),
(856,1491,o),
(778,1413,o),
(778,1270,cs),
(778,1165,o),
(831,1239,o),
(831,1155,cs),
(831,1134,o),
(813,1105,o),
(780,1063,c),
(353,422,l),
(264,236,o),
(40,365,o),
(40,196,cs),
(40,-13,l),
(79,-8,o),
(186,0,o),
(313,0,cs),
(436,0,o),
(541,-8,o),
(578,-13,c),
(703,21,o),
(746,131,o),
(746,251,cs),
(746,316,o),
(622,262,o),
(622,394,cs),
(622,437,o),
(658,482,o),
(694,535,c),
(1117,535,l),
(1105,433,o),
(1110,321,o),
(1054,312,cs),
(1013,307,o),
(973,301,o),
(973,247,cs),
(973,165,o),
(1000,15,o),
(1066,-13,c),
(1352,-12,o),
(1516,-2,o),
(1794,-2,cs),
(1928,-2,o),
(2088,-4,o),
(2300,-11,c),
(2318,20,o),
(2337,93,o),
(2344,127,c),
(2359,233,o),
(2377,404,o),
(2377,473,cs),
(2377,487,o),
(2375,499,o),
(2367,507,c),
(2341,550,o),
(2227,586,o),
(2161,586,cs),
(2150,586,o),
(2140,585,o),
(2132,582,c),
(2061,383,o),
(1990,224,o),
(1858,194,c),
(1770,194,ls),
(1713,194,o),
(1703,288,o),
(1703,378,c),
(1667,641,l),
(1688,676,o),
(1715,690,o),
(1743,690,cs),
(1812,690,o),
(1888,646,o),
(1938,593,c),
(2021,593,o),
(2098,672,o),
(2098,782,cs),
(2098,872,o),
(2027,968,o),
(1895,968,cs),
(1792,968,o),
(1713,908,o),
(1644,819,c),
(1614,1037,ls),
(1607,1086,o),
(1605,1124,o),
(1605,1155,cs),
(1605,1272,o),
(1646,1276,o),
(1682,1276,cs),
(1872,1276,o),
(2024,1033,o),
(2051,1033,cs),
(2104,1033,o),
(2217,1056,o),
(2217,1137,cs),
(2217,1241,o),
(2119,1430,o),
(2062,1503,c),
(1876,1493,o),
(1674,1489,o),
(1473,1489,cs),
(1410,1489,o),
(1347,1488,o),
(1285,1487,cs)
);
}
);
};
hints = (
{
horizontal = 1;
origin = (1,44);
target = (1,66);
type = Stem;
},
{
horizontal = 1;
origin = (1,32);
target = (0,10);
type = Stem;
},
{
horizontal = 1;
origin = (1,104);
target = (1,92);
type = Stem;
},
{
horizontal = 1;
origin = (1,101);
target = down;
type = TopGhost;
},
{
horizontal = 1;
origin = (1,73);
target = (1,82);
type = Stem;
},
{
horizontal = 1;
origin = (1,76);
target = (1,82);
type = Stem;
},
{
origin = (1,16);
target = (1,25);
type = Stem;
},
{
origin = (1,16);
target = (1,28);
type = Stem;
}
);
layerId = "5152A785-FF48-4BC0-8F27-F3AFCF9810FE";
shapes = (
{
closed = 1;
nodes = (
(807,705,l),
(1027,1042,l),
(1060,1098,o),
(1077,1125,o),
(1091,1125,cs),
(1095,1125,o),
(1099,1082,o),
(1108,1003,c),
(1114,904,o),
(1120,807,o),
(1126,705,c)
);
},
{
closed = 1;
nodes = (
(1149,1487,o),
(1008,1494,o),
(912,1503,c),
(856,1491,o),
(778,1413,o),
(778,1270,cs),
(778,1165,o),
(831,1239,o),
(831,1155,cs),
(831,1134,o),
(813,1105,o),
(780,1063,c),
(353,422,l),
(264,236,o),
(40,365,o),
(40,196,cs),
(40,-13,l),
(79,-8,o),
(186,0,o),
(313,0,cs),
(436,0,o),
(541,-8,o),
(578,-13,c),
(703,21,o),
(746,131,o),
(746,251,cs),
(746,316,o),
(622,262,o),
(622,394,cs),
(622,437,o),
(658,482,o),
(694,535,c),
(1117,535,l),
(1105,433,o),
(1110,321,o),
(1054,312,cs),
(1013,307,o),
(973,301,o),
(973,247,cs),
(973,165,o),
(1000,15,o),
(1066,-13,c),
(1352,-12,o),
(1516,-2,o),
(1794,-2,cs),
(1928,-2,o),
(2088,-4,o),
(2300,-11,c),
(2318,20,o),
(2337,93,o),
(2344,127,c),
(2359,233,o),
(2377,404,o),
(2377,473,cs),
(2377,487,o),
(2375,499,o),
(2367,507,c),
(2341,550,o),
(2227,586,o),
(2161,586,cs),
(2150,586,o),
(2140,585,o),
(2132,582,c),
(2061,383,o),
(1990,224,o),
(1858,194,c),
(1770,194,ls),
(1713,194,o),
(1703,288,o),
(1703,378,c),
(1667,641,l),
(1688,676,o),
(1715,690,o),
(1743,690,cs),
(1812,690,o),
(1888,646,o),
(1938,593,c),
(2021,593,o),
(2098,672,o),
(2098,782,cs),
(2098,872,o),
(2027,968,o),
(1895,968,cs),
(1792,968,o),
(1713,908,o),
(1644,819,c),
(1614,1037,ls),
(1607,1086,o),
(1605,1124,o),
(1605,1155,cs),
(1605,1272,o),
(1646,1276,o),
(1682,1276,cs),
(1872,1276,o),
(2024,1033,o),
(2051,1033,cs),
(2104,1033,o),
(2217,1056,o),
(2217,1137,cs),
(2217,1241,o),
(2119,1430,o),
(2062,1503,c),
(1876,1493,o),
(1674,1489,o),
(1473,1489,cs),
(1410,1489,o),
(1347,1488,o),
(1285,1487,cs)
);
}
);
width = 2401;
}
);
note = AE;
unicode = 198;
},
{
glyphname = B;
lastChange = "2026-02-05 15:40:54 +0000";
layers = (
{
anchors = (
{
name = bottom;
pos = (740,0);
},
{
name = center;
pos = (370,449);
},
{
name = top;
pos = (740,1489);
}
);
background = {
shapes = (
{
closed = 1;
nodes = (
(226,-5,o),
(333,0,o),
(434,0,cs),
(636,0,o),
(813,-11,o),
(892,-11,cs),
(1249,-11,o),
(1435,211,o),
(1435,431,cs),
(1435,582,o),
(1349,754,o),
(1139,818,c),
(1267,869,o),
(1331,990,o),
(1331,1091,cs),
(1331,1298,o),
(1181,1506,o),
(881,1506,cs),
(782,1506,o),
(649,1490,o),
(490,1490,cs),
(386,1490,o),
(244,1491,o),
(122,1503,c),
(83,1481,o),
(69,1398,o),
(69,1344,cs),
(69,1299,o),
(137,1292,o),
(181,1292,cs),
(238,1292,o),
(244,1262,o),
(244,1229,cs),
(244,263,ls),
(244,230,o),
(238,200,o),
(181,200,cs),
(127,200,o),
(69,187,o),
(69,152,cs),
(69,95,o),
(82,12,o),
(122,-11,c)
);
},
{
closed = 1;
nodes = (
(861,714,ls),
(1101,714,o),
(1214,575,o),
(1214,438,cs),
(1214,306,o),
(1109,176,o),
(911,176,cs),
(489,176,ls),
(476,176,o),
(475,201,o),
(475,215,cs),
(475,714,l)
);
},
{
closed = 1;
nodes = (
(475,873,l),
(475,1322,l),
(891,1322,ls),
(1037,1322,o),
(1110,1202,o),
(1110,1084,cs),
(1110,978,o),
(1023,873,o),
(861,873,cs)
);
}
);
};
hints = (
{
horizontal = 1;
origin = (0,42);
target = (1,7);
type = Stem;
},
{
horizontal = 1;
origin = (1,11);
target = (2,8);
type = Stem;
},
{
horizontal = 1;
origin = (0,17);
target = (2,2);
type = Stem;
},
{
horizontal = 1;
origin = (0,42);
target = (0,36);
type = Stem;
},
{
origin = (0,33);
target = (2,1);
type = Stem;
},
{
origin = (1,3);
target = (0,8);
type = Stem;
},
{
origin = (2,5);
target = (0,14);
type = Stem;
}
);
layerId = m01;
shapes = (
{
closed = 1;
nodes = (
(226,-5,o),
(333,0,o),
(434,0,cs),
(636,0,o),
(813,-11,o),
(892,-11,cs),
(1249,-11,o),
(1435,211,o),
(1435,431,cs),
(1435,582,o),
(1349,754,o),
(1139,818,c),
(1267,869,o),
(1331,990,o),
(1331,1091,cs),
(1331,1298,o),
(1181,1506,o),
(881,1506,cs),
(782,1506,o),
(649,1490,o),
(490,1490,cs),
(386,1490,o),
(244,1491,o),
(122,1503,c),
(83,1481,o),
(69,1398,o),
(69,1344,cs),
(69,1299,o),
(137,1292,o),
(181,1292,cs),
(238,1292,o),
(244,1262,o),
(244,1229,cs),
(244,263,ls),
(244,230,o),
(238,200,o),
(181,200,cs),
(127,200,o),
(69,187,o),
(69,152,cs),
(69,95,o),
(82,12,o),
(122,-11,c)
);
},
{
closed = 1;
nodes = (
(861,714,ls),
(1101,714,o),
(1214,575,o),
(1214,438,cs),
(1214,306,o),
(1109,176,o),
(911,176,cs),
(489,176,ls),
(476,176,o),
(475,201,o),
(475,215,cs),
(475,714,l)
);
},
{
closed = 1;
nodes = (
(475,873,l),
(475,1322,l),
(891,1322,ls),
(1037,1322,o),
(1110,1202,o),
(1110,1084,cs),
(1110,978,o),
(1023,873,o),
(861,873,cs)
);
}
);
width = 1479;
},
{
anchors = (
{
name = bottom;
pos = (809,0);
},
{
name = center;
pos = (404,447);
},
{
name = top;
pos = (809,1489);
}
);
background = {
anchors = (
{
name = bottom;
pos = (809,0);
},
{
name = center;
pos = (404,447);
},
{
name = top;
pos = (809,173);
}
);
shapes = (
{
closed = 1;
nodes = (
(790,869,o),
(786,877,o),
(786,892,cs),
(786,921,ls),
(786,1017,o),
(787,1245,o),
(801,1271,c),
(827,1275,o),
(847,1279,o),
(865,1279,cs),
(934,1279,o),
(960,1145,o),
(960,1075,cs),
(960,918,o),
(909,869,o),
(816,869,cs)
);
},
{
closed = 1;
nodes = (
(787,378,o),
(786,522,o),
(786,673,cs),
(786,696,o),
(794,709,o),
(868,709,cs),
(954,709,o),
(990,609,o),
(990,493,cs),
(990,367,o),
(976,210,o),
(871,210,cs),
(843,210,o),
(808,225,o),
(791,251,c)
);
},
{
closed = 1;
nodes = (
(403,1489,o),
(156,1503,o),
(100,1503,c),
(59,1476,o),
(42,1331,o),
(42,1252,cs),
(42,1198,o),
(86,1191,o),
(131,1186,cs),
(214,1177,o),
(221,1087,o),
(221,974,cs),
(221,535,ls),
(221,432,o),
(211,321,o),
(128,312,cs),
(83,307,o),
(39,301,o),
(39,247,cs),
(39,165,o),
(56,15,o),
(97,-13,c),
(255,-7,o),
(463,0,o),
(524,0,cs),
(695,0,o),
(847,-13,o),
(985,-13,cs),
(1380,-13,o),
(1583,102,o),
(1583,449,cs),
(1583,680,o),
(1381,787,o),
(1124,811,c),
(1313,849,o),
(1467,932,o),
(1467,1138,cs),
(1467,1427,o),
(1215,1503,o),
(951,1503,cs),
(818,1503,o),
(684,1489,o),
(556,1489,cs)
);
}
);
};
hints = (
{
horizontal = 1;
origin = (2,27);
target = (1,11);
type = Stem;
},
{
horizontal = 1;
origin = (1,5);
target = (0,15);
type = Stem;
},
{
horizontal = 1;
origin = (2,42);
target = down;
type = TopGhost;
},
{
horizontal = 1;
origin = (2,39);
target = (0,9);
type = Stem;
},
{
origin = (2,12);
target = (1,2);
type = Stem;
},
{
origin = (0,12);
target = (2,36);
type = Stem;
},
{
origin = (1,8);
target = (2,30);
type = Stem;
}
);
layerId = "5152A785-FF48-4BC0-8F27-F3AFCF9810FE";
shapes = (
{
closed = 1;
nodes = (
(790,869,o),
(786,877,o),
(786,892,cs),
(786,921,ls),
(786,1017,o),
(787,1245,o),
(801,1271,c),
(827,1275,o),
(847,1279,o),
(865,1279,cs),
(934,1279,o),
(960,1145,o),
(960,1075,cs),
(960,918,o),
(909,869,o),
(816,869,cs)
);
},
{
closed = 1;
nodes = (
(787,378,o),
(786,522,o),
(786,673,cs),
(786,696,o),
(794,709,o),
(868,709,cs),
(954,709,o),
(990,609,o),
(990,493,cs),
(990,367,o),
(976,210,o),
(871,210,cs),
(843,210,o),
(808,225,o),
(791,251,c)
);
},
{
closed = 1;
nodes = (
(403,1489,o),
(156,1503,o),
(100,1503,c),
(59,1476,o),
(42,1331,o),
(42,1252,cs),
(42,1198,o),
(86,1191,o),
(131,1186,cs),
(214,1177,o),
(221,1087,o),
(221,974,cs),
(221,535,ls),
(221,432,o),
(211,321,o),
(128,312,cs),
(83,307,o),
(39,301,o),
(39,247,cs),
(39,165,o),
(56,15,o),
(97,-13,c),
(255,-7,o),
(463,0,o),
(524,0,cs),
(695,0,o),
(847,-13,o),
(985,-13,cs),
(1380,-13,o),
(1583,102,o),
(1583,449,cs),
(1583,680,o),
(1381,787,o),
(1124,811,c),
(1313,849,o),
(1467,932,o),
(1467,1138,cs),
(1467,1427,o),
(1215,1503,o),
(951,1503,cs),
(818,1503,o),
(684,1489,o),
(556,1489,cs)
);
}
);
width = 1617;
}
);
note = B;
unicode = 66;
},
{
glyphname = C;
lastChange = "2026-02-05 15:55:58 +0000";
layers = (
{
anchors = (
{
name = bottom;
pos = (828,0);
},
{
name = top;
pos = (668,1489);
}
);
background = {
shapes = (
{
closed = 1;
nodes = (
(1243,994,l),
(1278,998,o),
(1291,1002,o),
(1291,1119,cs),
(1291,1386,ls),
(1291,1466,o),
(1267,1490,o),
(1243,1490,cs),
(1131,1490,ls),
(1092,1490,o),
(1092,1340,o),
(1092,1340,c),
(1004,1461,o),
(850,1512,o),
(731,1512,cs),
(309,1512,o),
(29,1156,o),
(29,734,cs),
(29,355,o),
(280,-27,o),
(808,-27,cs),
(1033,-27,o),
(1304,76,o),
(1304,228,cs),
(1304,260,o),
(1292,294,o),
(1265,330,c),
(1128,228,o),
(975,183,o),
(835,183,cs),
(461,183,o),
(271,463,o),
(271,738,cs),
(271,1027,o),
(429,1325,o),
(748,1325,cs),
(1010,1325,o),
(1115,994,o),
(1160,994,cs)
);
}
);
};
hints = (
{
horizontal = 1;
origin = (0,20);
target = (0,29);
type = Stem;
},
{
horizontal = 1;
origin = (0,14);
target = (0,35);
type = Stem;
},
{
horizontal = 1;
origin = (0,8);
target = (0,38);
type = Stem;
},
{
origin = (0,17);
target = (0,32);
type = Stem;
},
{
origin = (0,11);
target = (0,4);
type = Stem;
}
);
layerId = m01;
shapes = (
{
closed = 1;
nodes = (
(1243,994,l),
(1278,998,o),
(1291,1002,o),
(1291,1119,cs),
(1291,1386,ls),
(1291,1466,o),
(1267,1490,o),
(1243,1490,cs),
(1131,1490,ls),
(1092,1490,o),
(1092,1340,o),
(1092,1340,c),
(1004,1461,o),
(850,1512,o),
(731,1512,cs),
(309,1512,o),
(29,1156,o),
(29,734,cs),
(29,355,o),
(280,-27,o),
(808,-27,cs),
(1033,-27,o),
(1304,76,o),
(1304,228,cs),
(1304,260,o),
(1292,294,o),
(1265,330,c),
(1128,228,o),
(975,183,o),
(835,183,cs),
(461,183,o),
(271,463,o),
(271,738,cs),
(271,1027,o),
(429,1325,o),
(748,1325,cs),
(1010,1325,o),
(1115,994,o),
(1160,994,cs)
);
}
);
width = 1336;
},
{
anchors = (
{
name = bottom;
pos = (968,0);
},
{
name = top;
pos = (768,1489);
}
);
background = {
anchors = (
{
name = bottom;
pos = (768,0);
},
{
name = top;
pos = (768,173);
}
);
shapes = (
{
closed = 1;
nodes = (
(1269,-27,o),
(1481,154,o),
(1481,343,cs),
(1481,390,o),
(1469,438,o),
(1444,483,c),
(1327,417,o),
(1200,386,o),
(1084,386,cs),
(852,386,o),
(658,577,o),
(658,885,cs),
(658,1116,o),
(775,1232,o),
(910,1232,cs),
(1004,1232,o),
(1103,1174,o),
(1177,1057,c),
(1194,1024,o),
(1214,1004,o),
(1252,1004,cs),
(1256,1004,o),
(1260,1004,o),
(1357,1013,cs),
(1443,1020,o),
(1465,1022,o),
(1465,1116,cs),
(1465,1144,o),
(1461,1182,o),
(1451,1250,cs),
(1416,1484,o),
(1381,1503,o),
(1223,1503,cs),
(1122,1503,o),
(1104,1492,o),
(1104,1452,cs),
(1104,1443,o),
(1105,1433,o),
(1106,1421,c),
(973,1496,o),
(880,1516,o),
(738,1516,cs),
(281,1516,o),
(37,1139,o),
(37,759,cs),
(37,369,o),
(304,-27,o),
(875,-27,cs)
);
}
);
};
hints = (
{
horizontal = 1;
origin = (0,47);
target = (0,8);
type = Stem;
},
{
horizontal = 1;
origin = (0,32);
target = down;
type = TopGhost;
},
{
horizontal = 1;
origin = (0,41);
target = (0,14);
type = Stem;
},
{
origin = (0,44);
target = (0,11);
type = Stem;
}
);
layerId = "5152A785-FF48-4BC0-8F27-F3AFCF9810FE";
shapes = (
{
closed = 1;
nodes = (
(1269,-27,o),
(1481,154,o),
(1481,343,cs),
(1481,390,o),
(1469,438,o),
(1444,483,c),
(1327,417,o),
(1200,386,o),
(1084,386,cs),
(852,386,o),
(658,577,o),
(658,885,cs),
(658,1116,o),
(775,1232,o),
(910,1232,cs),
(1004,1232,o),
(1103,1174,o),
(1177,1057,c),
(1194,1024,o),
(1214,1004,o),
(1252,1004,cs),
(1256,1004,o),
(1260,1004,o),
(1357,1013,cs),
(1443,1020,o),
(1465,1022,o),
(1465,1116,cs),
(1465,1144,o),
(1461,1182,o),
(1451,1250,cs),
(1416,1484,o),
(1381,1503,o),
(1223,1503,cs),
(1122,1503,o),
(1104,1492,o),
(1104,1452,cs),
(1104,1443,o),
(1105,1433,o),
(1106,1421,c),
(973,1496,o),
(880,1516,o),
(738,1516,cs),
(281,1516,o),
(37,1139,o),
(37,759,cs),
(37,369,o),
(304,-27,o),
(875,-27,cs)
);
}
);
width = 1536;
}
);
note = C;
unicode = 67;
},
{
glyphname = Cacute;
lastChange = "2026-02-05 15:39:25 +0000";
layers = (
{
background = {
shapes = (
{
closed = 1;
nodes = (
(786,1614,l),
(902,1703,o),
(1089,1866,o),
(1127,1903,cs),
(1191,1966,o),
(1245,1999,o),
(1245,2029,cs),
(1245,2071,o),
(1206,2090,o),
(1098,2090,cs),
(1003,2090,o),
(971,2067,o),
(927,1997,cs),
(877,1918,o),
(732,1698,o),
(675,1614,c)
);
},
{
closed = 1;
nodes = (
(1243,994,l),
(1278,998,o),
(1291,1002,o),
(1291,1119,cs),
(1291,1386,ls),
(1291,1466,o),
(1267,1490,o),
(1243,1490,cs),
(1131,1490,ls),
(1092,1490,o),
(1092,1340,o),
(1092,1340,c),
(1004,1461,o),
(850,1512,o),
(731,1512,cs),
(309,1512,o),
(29,1156,o),
(29,734,cs),
(29,355,o),
(280,-27,o),
(808,-27,cs),
(1033,-27,o),
(1304,76,o),
(1304,228,cs),
(1304,260,o),
(1292,294,o),
(1265,330,c),
(1128,228,o),
(975,183,o),
(835,183,cs),
(461,183,o),
(271,463,o),
(271,738,cs),
(271,1027,o),
(429,1325,o),
(748,1325,cs),
(1010,1325,o),
(1115,994,o),
(1160,994,cs)
);
}
);
};
layerId = m01;
shapes = (
{
ref = C;
},
{
pos = (510,422);
ref = acutecomb;
}
);
width = 1336;
},
{
background = {
shapes = (
{
closed = 1;
nodes = (
(794,1618,l),
(910,1707,o),
(1096,1870,o),
(1134,1907,cs),
(1198,1970,o),
(1252,2003,o),
(1252,2033,cs),
(1252,2075,o),
(1214,2094,o),
(1106,2094,cs),
(1011,2094,o),
(978,2071,o),
(934,2001,cs),
(884,1922,o),
(739,1702,o),
(682,1618,c)
);
},
{
closed = 1;
nodes = (
(1269,-27,o),
(1481,154,o),
(1481,343,cs),
(1481,390,o),
(1469,438,o),
(1444,483,c),
(1327,417,o),
(1200,386,o),
(1084,386,cs),
(852,386,o),
(658,577,o),
(658,885,cs),
(658,1116,o),
(775,1232,o),
(910,1232,cs),
(1004,1232,o),
(1103,1174,o),
(1177,1057,c),
(1194,1024,o),
(1214,1004,o),
(1252,1004,cs),
(1256,1004,o),
(1260,1004,o),
(1357,1013,cs),
(1443,1020,o),
(1465,1022,o),
(1465,1116,cs),
(1465,1144,o),
(1461,1182,o),
(1451,1250,cs),
(1416,1484,o),
(1381,1503,o),
(1223,1503,cs),
(1122,1503,o),
(1104,1492,o),
(1104,1452,cs),
(1104,1443,o),
(1105,1433,o),
(1106,1421,c),
(973,1496,o),
(880,1516,o),
(738,1516,cs),
(281,1516,o),
(37,1139,o),
(37,759,cs),
(37,369,o),
(304,-27,o),
(875,-27,cs)
);
}
);
};
layerId = "5152A785-FF48-4BC0-8F27-F3AFCF9810FE";
shapes = (
{
ref = C;
},
{
pos = (603,422);
ref = acutecomb;
}
);
width = 1536;
}
);
note = Cacute;
unicode = 262;
},
{
glyphname = Ccaron;
lastChange = "2026-02-05 15:38:49 +0000";
layers = (
{
background = {
shapes = (
{
closed = 1;
nodes = (
(781,1614,l),
(868,1703,o),
(1004,1865,o),
(1033,1902,cs),
(1082,1964,o),
(1120,1999,o),
(1120,2029,cs),
(1120,2071,o),
(1101,2090,o),
(1043,2090,cs),
(974,2090,o),
(955,2065,o),
(917,2017,cs),
(736,1786,l),
(555,2017,ls),
(517,2065,o),
(498,2090,o),
(429,2090,cs),
(364,2090,o),
(342,2071,o),
(342,2029,cs),
(342,1999,o),
(380,1964,o),
(429,1902,cs),
(458,1865,o),
(593,1703,o),
(681,1614,c)
);
},
{
closed = 1;
nodes = (
(1243,994,l),
(1278,998,o),
(1291,1002,o),
(1291,1119,cs),
(1291,1386,ls),
(1291,1466,o),
(1267,1490,o),
(1243,1490,cs),
(1131,1490,ls),
(1092,1490,o),
(1092,1340,o),
(1092,1340,c),
(1004,1461,o),
(850,1512,o),
(731,1512,cs),
(309,1512,o),
(29,1156,o),
(29,734,cs),
(29,355,o),
(280,-27,o),
(808,-27,cs),
(1033,-27,o),
(1304,76,o),
(1304,228,cs),
(1304,260,o),
(1292,294,o),
(1265,330,c),
(1128,228,o),
(975,183,o),
(835,183,cs),
(461,183,o),
(271,463,o),
(271,738,cs),
(271,1027,o),
(429,1325,o),
(748,1325,cs),
(1010,1325,o),
(1115,994,o),
(1160,994,cs)
);
}
);
};
layerId = m01;
shapes = (
{
ref = C;
},
{
pos = (208,422);
ref = caroncomb;
}
);
width = 1336;
},
{
background = {
shapes = (
{
closed = 1;
nodes = (
(813,1618,l),
(910,1707,o),
(1063,1869,o),
(1094,1907,cs),
(1144,1968,o),
(1182,2003,o),
(1182,2033,cs),
(1182,2075,o),
(1146,2094,o),
(1045,2094,cs),
(961,2094,o),
(936,2069,o),
(889,2021,c),
(738,1830,l),
(587,2021,l),
(540,2069,o),
(515,2094,o),
(431,2094,cs),
(330,2094,o),
(294,2075,o),
(294,2033,cs),
(294,2003,o),
(332,1968,o),
(382,1907,cs),
(413,1869,o),
(566,1707,o),
(663,1618,c)
);
},
{
closed = 1;
nodes = (
(1269,-27,o),
(1481,154,o),
(1481,343,cs),
(1481,390,o),
(1469,438,o),
(1444,483,c),
(1327,417,o),
(1200,386,o),
(1084,386,cs),
(852,386,o),
(658,577,o),
(658,885,cs),
(658,1116,o),
(775,1232,o),
(910,1232,cs),
(1004,1232,o),
(1103,1174,o),
(1177,1057,c),
(1194,1024,o),
(1214,1004,o),
(1252,1004,cs),
(1256,1004,o),
(1260,1004,o),
(1357,1013,cs),
(1443,1020,o),
(1465,1022,o),
(1465,1116,cs),
(1465,1144,o),
(1461,1182,o),
(1451,1250,cs),
(1416,1484,o),
(1381,1503,o),
(1223,1503,cs),
(1122,1503,o),
(1104,1492,o),
(1104,1452,cs),
(1104,1443,o),
(1105,1433,o),
(1106,1421,c),
(973,1496,o),
(880,1516,o),
(738,1516,cs),
(281,1516,o),
(37,1139,o),
(37,759,cs),
(37,369,o),
(304,-27,o),
(875,-27,cs)
);
}
);
};
layerId = "5152A785-FF48-4BC0-8F27-F3AFCF9810FE";
shapes = (
{
ref = C;
},
{
pos = (248,422);
ref = caroncomb;
}
);
width = 1536;
}
);
note = Ccaron;
unicode = 268;
},
{
glyphname = Ccedilla;
lastChange = "2026-02-05 15:55:58 +0000";
layers = (
{
background = {
shapes = (
{
closed = 1;
nodes = (
(620,-501,l),
(658,-511,o),
(700,-516,o),
(740,-516,cs),
(909,-516,o),
(998,-416,o),
(998,-315,cs),
(998,-224,o),
(927,-131,o),
(779,-106,c),
(779,-10,l),
(675,-10,l),
(675,-171,l),
(805,-171,o),
(872,-239,o),
(872,-302,cs),
(872,-356,o),
(823,-405,o),
(724,-405,cs),
(693,-405,o),
(663,-400,o),
(641,-393,c)
);
},
{
closed = 1;
nodes = (
(1243,994,l),
(1278,998,o),
(1291,1002,o),
(1291,1119,cs),
(1291,1386,ls),
(1291,1466,o),
(1267,1490,o),
(1243,1490,cs),
(1131,1490,ls),
(1092,1490,o),
(1092,1340,o),
(1092,1340,c),
(1004,1461,o),
(850,1512,o),
(731,1512,cs),
(309,1512,o),
(29,1156,o),
(29,734,cs),
(29,355,o),
(280,-27,o),
(808,-27,cs),
(1033,-27,o),
(1304,76,o),
(1304,228,cs),
(1304,260,o),
(1292,294,o),
(1265,330,c),
(1128,228,o),
(975,183,o),
(835,183,cs),
(461,183,o),
(271,463,o),
(271,738,cs),
(271,1027,o),
(429,1325,o),
(748,1325,cs),
(1010,1325,o),
(1115,994,o),
(1160,994,cs)
);
}
);
};
layerId = m01;
shapes = (
{
ref = C;
},
{
pos = (596,0);
ref = cedillacomb;
}
);
width = 1336;
},
{
background = {
shapes = (
{
closed = 1;
nodes = (
(766,-501,l),
(813,-510,o),
(858,-514,o),
(900,-514,cs),
(1087,-514,o),
(1176,-416,o),
(1176,-308,cs),
(1176,-219,o),
(1119,-92,o),
(924,-86,c),
(924,-10,l),
(820,-10,l),
(820,-191,l),
(839,-187,o),
(856,-185,o),
(872,-185,cs),
(948,-185,o),
(988,-229,o),
(988,-271,cs),
(988,-308,o),
(956,-344,o),
(890,-344,cs),
(858,-344,o),
(824,-337,o),
(798,-329,c)
);
},
{
closed = 1;
nodes = (
(1269,-27,o),
(1481,154,o),
(1481,343,cs),
(1481,390,o),
(1469,438,o),
(1444,483,c),
(1327,417,o),
(1200,386,o),
(1084,386,cs),
(852,386,o),
(658,577,o),
(658,885,cs),
(658,1116,o),
(775,1232,o),
(910,1232,cs),
(1004,1232,o),
(1103,1174,o),
(1177,1057,c),
(1194,1024,o),
(1214,1004,o),
(1252,1004,cs),
(1256,1004,o),
(1260,1004,o),
(1357,1013,cs),
(1443,1020,o),
(1465,1022,o),
(1465,1116,cs),
(1465,1144,o),
(1461,1182,o),
(1451,1250,cs),
(1416,1484,o),
(1381,1503,o),
(1223,1503,cs),
(1122,1503,o),
(1104,1492,o),
(1104,1452,cs),
(1104,1443,o),
(1105,1433,o),
(1106,1421,c),
(973,1496,o),
(880,1516,o),
(738,1516,cs),
(281,1516,o),
(37,1139,o),
(37,759,cs),
(37,369,o),
(304,-27,o),
(875,-27,cs)
);
}
);
};
layerId = "5152A785-FF48-4BC0-8F27-F3AFCF9810FE";
shapes = (
{
ref = C;
},
{
pos = (697,0);
ref = cedillacomb;
}
);
width = 1536;
}
);
note = Ccedilla;
unicode = 199;
},
{
glyphname = Cdotaccent;
lastChange = "2026-02-05 15:38:49 +0000";
layers = (
{
background = {
shapes = (
{
closed = 1;
nodes = (
(553,1694,o),
(608,1614,o),
(734,1614,cs),
(859,1614,o),
(909,1697,o),
(909,1777,cs),
(909,1858,o),
(859,1940,o),
(734,1940,cs),
(608,1940,o),
(553,1861,o),
(553,1777,cs)
);
},
{
closed = 1;
nodes = (
(1243,994,l),
(1278,998,o),
(1291,1002,o),
(1291,1119,cs),
(1291,1386,ls),
(1291,1466,o),
(1267,1490,o),
(1243,1490,cs),
(1131,1490,ls),
(1092,1490,o),
(1092,1340,o),
(1092,1340,c),
(1004,1461,o),
(850,1512,o),
(731,1512,cs),
(309,1512,o),
(29,1156,o),
(29,734,cs),
(29,355,o),
(280,-27,o),
(808,-27,cs),
(1033,-27,o),
(1304,76,o),
(1304,228,cs),
(1304,260,o),
(1292,294,o),
(1265,330,c),
(1128,228,o),
(975,183,o),
(835,183,cs),
(461,183,o),
(271,463,o),
(271,738,cs),
(271,1027,o),
(429,1325,o),
(748,1325,cs),
(1010,1325,o),
(1115,994,o),
(1160,994,cs)
);
}
);
};
layerId = m01;
shapes = (
{
ref = C;
},
{
pos = (377,422);
ref = dotaccentcomb;
}
);
width = 1336;
},
{
background = {
shapes = (
{
closed = 1;
nodes = (
(499,1725,o),
(573,1618,o),
(742,1618,cs),
(910,1618,o),
(977,1729,o),
(977,1837,cs),
(977,1945,o),
(910,2056,o),
(742,2056,cs),
(573,2056,o),
(499,1949,o),
(499,1837,cs)
);
},
{
closed = 1;
nodes = (
(1269,-27,o),
(1481,154,o),
(1481,343,cs),
(1481,390,o),
(1469,438,o),
(1444,483,c),
(1327,417,o),
(1200,386,o),
(1084,386,cs),
(852,386,o),
(658,577,o),
(658,885,cs),
(658,1116,o),
(775,1232,o),
(910,1232,cs),
(1004,1232,o),
(1103,1174,o),
(1177,1057,c),
(1194,1024,o),
(1214,1004,o),
(1252,1004,cs),
(1256,1004,o),
(1260,1004,o),
(1357,1013,cs),
(1443,1020,o),
(1465,1022,o),
(1465,1116,cs),
(1465,1144,o),
(1461,1182,o),
(1451,1250,cs),
(1416,1484,o),
(1381,1503,o),
(1223,1503,cs),
(1122,1503,o),
(1104,1492,o),
(1104,1452,cs),
(1104,1443,o),
(1105,1433,o),
(1106,1421,c),
(973,1496,o),
(880,1516,o),
(738,1516,cs),
(281,1516,o),
(37,1139,o),
(37,759,cs),
(37,369,o),
(304,-27,o),
(875,-27,cs)
);
}
);
};
layerId = "5152A785-FF48-4BC0-8F27-F3AFCF9810FE";
shapes = (
{
ref = C;
},
{
pos = (441,422);
ref = dotaccentcomb;
}
);
width = 1536;
}
);
note = Cdotaccent;
unicode = 266;
},
{
glyphname = D;
lastChange = "2026-02-05 15:40:54 +0000";
layers = (
{
anchors = (
{
name = bottom;
pos = (811,0);
},
{
name = center;
pos = (405,745);
},
{
name = top;
pos = (811,1489);
}
);
background = {
shapes = (
{
closed = 1;
nodes = (
(466,173,l),
(466,1322,l),
(824,1322,ls),
(1138,1322,o),
(1304,1028,o),
(1304,743,cs),
(1304,458,o),
(1146,173,o),
(854,173,cs)
);
},
{
closed = 1;
nodes = (
(74,1481,o),
(60,1398,o),
(60,1344,cs),
(60,1299,o),
(128,1292,o),
(172,1292,cs),
(229,1292,o),
(235,1262,o),
(235,1229,cs),
(235,263,ls),
(235,230,o),
(229,200,o),
(172,200,cs),
(118,200,o),
(60,187,o),
(60,152,cs),
(60,95,o),
(73,12,o),
(113,-11,c),
(256,-7,o),
(398,0,o),
(492,0,cs),
(654,0,o),
(755,-11,o),
(854,-11,cs),
(1343,-11,o),
(1564,366,o),
(1564,747,cs),
(1564,1122,o),
(1336,1503,o),
(824,1503,cs),
(739,1503,o),
(620,1490,o),
(481,1490,cs),
(377,1490,o),
(235,1491,o),
(113,1503,c)
);
}
);
};
hints = (
{
horizontal = 1;
origin = (1,24);
target = (0,8);
type = Stem;
},
{
horizontal = 1;
origin = (1,36);
target = (0,2);
type = Stem;
},
{
horizontal = 1;
origin = (1,24);
target = (1,12);
type = Stem;
},
{
horizontal = 1;
origin = (1,36);
target = (1,5);
type = Stem;
},
{
origin = (1,9);
target = (0,1);
type = Stem;
},
{
origin = (0,5);
target = (1,27);
type = Stem;
}
);
layerId = m01;
shapes = (
{
closed = 1;
nodes = (
(466,173,l),
(466,1322,l),
(824,1322,ls),
(1138,1322,o),
(1304,1028,o),
(1304,743,cs),
(1304,458,o),
(1146,173,o),
(854,173,cs)
);
},
{
closed = 1;
nodes = (
(74,1481,o),
(60,1398,o),
(60,1344,cs),
(60,1299,o),
(128,1292,o),
(172,1292,cs),
(229,1292,o),
(235,1262,o),
(235,1229,cs),
(235,263,ls),
(235,230,o),
(229,200,o),
(172,200,cs),
(118,200,o),
(60,187,o),
(60,152,cs),
(60,95,o),
(73,12,o),
(113,-11,c),
(256,-7,o),
(398,0,o),
(492,0,cs),
(654,0,o),
(755,-11,o),
(854,-11,cs),
(1343,-11,o),
(1564,366,o),
(1564,747,cs),
(1564,1122,o),
(1336,1503,o),
(824,1503,cs),
(739,1503,o),
(620,1490,o),
(481,1490,cs),
(377,1490,o),
(235,1491,o),
(113,1503,c)
);
}
);
width = 1621;
},
{
anchors = (
{
name = bottom;
pos = (863,0);
},
{
name = center;
pos = (432,745);
},
{
name = top;
pos = (863,1489);
}
);
background = {
anchors = (
{
name = bottom;
pos = (863,0);
},
{
name = center;
pos = (432,87);
},
{
name = top;
pos = (863,173);
}
);
shapes = (
{
closed = 1;
nodes = (
(848,222,o),
(827,224,o),
(827,224,c),
(827,224,o),
(812,336,o),
(812,623,cs),
(812,790,ls),
(812,1034,o),
(813,1230,o),
(817,1249,c),
(832,1252,o),
(848,1252,o),
(864,1252,cs),
(1038,1252,o),
(1119,991,o),
(1119,732,cs),
(1119,476,o),
(1040,222,o),
(894,222,cs)
);
},
{
closed = 1;
nodes = (
(217,-10,o),
(560,0,o),
(637,0,cs),
(750,0,o),
(849,-13,o),
(960,-13,cs),
(1444,-13,o),
(1690,361,o),
(1690,738,cs),
(1690,1119,o),
(1438,1503,o),
(925,1503,cs),
(803,1503,o),
(686,1490,o),
(564,1489,cs),
(455,1489,o),
(180,1501,o),
(126,1503,c),
(85,1476,o),
(68,1329,o),
(68,1250,cs),
(68,1196,o),
(112,1189,o),
(157,1184,cs),
(240,1175,o),
(247,1085,o),
(247,972,cs),
(247,533,ls),
(247,430,o),
(237,319,o),
(154,310,cs),
(109,305,o),
(65,299,o),
(65,245,cs),
(65,163,o),
(82,13,o),
(123,-13,c)
);
}
);
};
hints = (
{
horizontal = 1;
origin = (1,36);
target = (0,18);
type = Stem;
},
{
horizontal = 1;
origin = (1,17);
target = (0,12);
type = Stem;
},
{
origin = (1,27);
target = (0,6);
type = Stem;
},
{
origin = (0,15);
target = (1,8);
type = Stem;
}
);
layerId = "5152A785-FF48-4BC0-8F27-F3AFCF9810FE";
shapes = (
{
closed = 1;
nodes = (
(848,222,o),
(827,224,o),
(827,224,c),
(827,224,o),
(812,336,o),
(812,623,cs),
(812,790,ls),
(812,1034,o),
(813,1230,o),
(817,1249,c),
(832,1252,o),
(848,1252,o),
(864,1252,cs),
(1038,1252,o),
(1119,991,o),
(1119,732,cs),
(1119,476,o),
(1040,222,o),
(894,222,cs)
);
},
{
closed = 1;
nodes = (
(217,-10,o),
(560,0,o),
(637,0,cs),
(750,0,o),
(849,-13,o),
(960,-13,cs),
(1444,-13,o),
(1690,361,o),
(1690,738,cs),
(1690,1119,o),
(1438,1503,o),
(925,1503,cs),
(803,1503,o),
(686,1490,o),
(564,1489,cs),
(455,1489,o),
(180,1501,o),
(126,1503,c),
(85,1476,o),
(68,1329,o),
(68,1250,cs),
(68,1196,o),
(112,1189,o),
(157,1184,cs),
(240,1175,o),
(247,1085,o),
(247,972,cs),
(247,533,ls),
(247,430,o),
(237,319,o),
(154,310,cs),
(109,305,o),
(65,299,o),
(65,245,cs),
(65,163,o),
(82,13,o),
(123,-13,c)
);
}
);
width = 1726;
}
);
note = D;
unicode = 68;
},
{
glyphname = DZcaron;
lastChange = "2026-02-05 15:40:54 +0000";
layers = (
{
background = {
shapes = (
{
closed = 1;
nodes = (
(2361,1614,l),
(2448,1703,o),
(2584,1865,o),
(2613,1902,cs),
(2662,1964,o),
(2700,1999,o),
(2700,2029,cs),
(2700,2071,o),
(2681,2090,o),
(2623,2090,cs),
(2554,2090,o),
(2535,2065,o),
(2497,2017,cs),
(2316,1786,l),
(2135,2017,ls),
(2097,2065,o),
(2078,2090,o),
(2009,2090,cs),
(1944,2090,o),
(1922,2071,o),
(1922,2029,cs),
(1922,1999,o),
(1960,1964,o),
(2009,1902,cs),
(2038,1865,o),
(2173,1703,o),
(2261,1614,c)
);
},
{
closed = 1;
nodes = (
(1891,-2,o),
(2074,0,o),
(2253,0,cs),
(2435,0,o),
(2614,-2,o),
(2776,-11,c),
(2807,51,o),
(2906,367,o),
(2910,433,cs),
(2910,477,o),
(2774,503,o),
(2713,503,cs),
(2689,503,o),
(2634,266,o),
(2612,191,c),
(2569,191,o),
(1979,189,o),
(1955,184,c),
(2076,329,o),
(2588,947,o),
(2638,1010,cs),
(2705,1098,o),
(2841,1268,o),
(2841,1314,cs),
(2841,1444,o),
(2836,1466,o),
(2816,1503,c),
(2723,1497,o),
(2582,1488,o),
(2447,1488,cs),
(2212,1488,o),
(1995,1492,o),
(1807,1503,c),
(1759,1382,o),
(1714,1200,o),
(1698,1092,c),
(1697,1092,o),
(1697,1083,o),
(1697,1083,c),
(1697,1052,o),
(1798,1015,o),
(1869,1015,cs),
(1897,1015,o),
(1941,1247,o),
(1960,1301,c),
(2325,1301,o),
(2566,1302,o),
(2566,1305,cs),
(2566,1293,o),
(2553,1281,o),
(2540,1266,cs),
(1800,373,ls),
(1760,324,o),
(1723,272,o),
(1688,225,c),
(1685,219,o),
(1683,212,o),
(1683,205,cs),
(1683,118,o),
(1732,-7,o),
(1744,-11,c)
);
},
{
closed = 1;
nodes = (
(466,173,l),
(466,1322,l),
(824,1322,ls),
(1138,1322,o),
(1304,1028,o),
(1304,743,cs),
(1304,458,o),
(1146,173,o),
(854,173,cs)
);
},
{
closed = 1;
nodes = (
(74,1481,o),
(60,1398,o),
(60,1344,cs),
(60,1299,o),
(128,1292,o),
(172,1292,cs),
(229,1292,o),
(235,1262,o),
(235,1229,cs),
(235,263,ls),
(235,230,o),
(229,200,o),
(172,200,cs),
(118,200,o),
(60,187,o),
(60,152,cs),
(60,95,o),
(73,12,o),
(113,-11,c),
(256,-7,o),
(398,0,o),
(492,0,cs),
(654,0,o),
(755,-11,o),
(854,-11,cs),
(1343,-11,o),
(1564,366,o),
(1564,747,cs),
(1564,1122,o),
(1336,1503,o),
(824,1503,cs),
(739,1503,o),
(620,1490,o),
(481,1490,cs),
(377,1490,o),
(235,1491,o),
(113,1503,c)
);
}
);
};
hints = (
{
horizontal = 1;
origin = (3,24);
target = (2,8);
type = Stem;
},
{
horizontal = 1;
origin = (1,35);
target = down;
type = TopGhost;
},
{
horizontal = 1;
origin = (3,36);
target = (2,2);
type = Stem;
},
{
horizontal = 1;
origin = (3,24);
target = (1,14);
type = Stem;
},
{
horizontal = 1;
origin = (3,36);
target = (1,44);
type = Stem;
},
{
horizontal = 1;
origin = (3,24);
target = (3,12);
type = Stem;
},
{
horizontal = 1;
origin = (3,36);
target = (3,5);
type = Stem;
},
{
origin = (3,9);
target = (2,1);
type = Stem;
},
{
origin = (2,5);
target = (3,27);
type = Stem;
}
);
layerId = m01;
shapes = (
{
closed = 1;
nodes = (
(2361,1614,l),
(2448,1703,o),
(2584,1865,o),
(2613,1902,cs),
(2662,1964,o),
(2700,1999,o),
(2700,2029,cs),
(2700,2071,o),
(2681,2090,o),
(2623,2090,cs),
(2554,2090,o),
(2535,2065,o),
(2497,2017,cs),
(2316,1786,l),
(2135,2017,ls),
(2097,2065,o),
(2078,2090,o),
(2009,2090,cs),
(1944,2090,o),
(1922,2071,o),
(1922,2029,cs),
(1922,1999,o),
(1960,1964,o),
(2009,1902,cs),
(2038,1865,o),
(2173,1703,o),
(2261,1614,c)
);
},
{
closed = 1;
nodes = (
(1891,-2,o),
(2074,0,o),
(2253,0,cs),
(2435,0,o),
(2614,-2,o),
(2776,-11,c),
(2807,51,o),
(2906,367,o),
(2910,433,cs),
(2910,477,o),
(2774,503,o),
(2713,503,cs),
(2689,503,o),
(2634,266,o),
(2612,191,c),
(2569,191,o),
(1979,189,o),
(1955,184,c),
(2076,329,o),
(2588,947,o),
(2638,1010,cs),
(2705,1098,o),
(2841,1268,o),
(2841,1314,cs),
(2841,1444,o),
(2836,1466,o),
(2816,1503,c),
(2723,1497,o),
(2582,1488,o),
(2447,1488,cs),
(2212,1488,o),
(1995,1492,o),
(1807,1503,c),
(1759,1382,o),
(1714,1200,o),
(1698,1092,c),
(1697,1092,o),
(1697,1083,o),
(1697,1083,c),
(1697,1052,o),
(1798,1015,o),
(1869,1015,cs),
(1897,1015,o),
(1941,1247,o),
(1960,1301,c),
(2325,1301,o),
(2566,1302,o),
(2566,1305,cs),
(2566,1293,o),
(2553,1281,o),
(2540,1266,cs),
(1800,373,ls),
(1760,324,o),
(1723,272,o),
(1688,225,c),
(1685,219,o),
(1683,212,o),
(1683,205,cs),
(1683,118,o),
(1732,-7,o),
(1744,-11,c)
);
},
{
closed = 1;
nodes = (
(466,173,l),
(466,1322,l),
(824,1322,ls),
(1138,1322,o),
(1304,1028,o),
(1304,743,cs),
(1304,458,o),
(1146,173,o),
(854,173,cs)
);
},
{
closed = 1;
nodes = (
(74,1481,o),
(60,1398,o),
(60,1344,cs),
(60,1299,o),
(128,1292,o),
(172,1292,cs),
(229,1292,o),
(235,1262,o),
(235,1229,cs),
(235,263,ls),
(235,230,o),
(229,200,o),
(172,200,cs),
(118,200,o),
(60,187,o),
(60,152,cs),
(60,95,o),
(73,12,o),
(113,-11,c),
(256,-7,o),
(398,0,o),
(492,0,cs),
(654,0,o),
(755,-11,o),
(854,-11,cs),
(1343,-11,o),
(1564,366,o),
(1564,747,cs),
(1564,1122,o),
(1336,1503,o),
(824,1503,cs),
(739,1503,o),
(620,1490,o),
(481,1490,cs),
(377,1490,o),
(235,1491,o),
(113,1503,c)
);
}
);
width = 2953;
},
{
background = {
shapes = (
{
closed = 1;
nodes = (
(850,222,o),
(829,224,o),
(829,224,c),
(829,224,o),
(814,336,o),
(814,623,cs),
(814,790,ls),
(814,1034,o),
(815,1230,o),
(819,1249,c),
(834,1252,o),
(850,1252,o),
(866,1252,cs),
(1034,1252,o),
(1063,919,o),
(1063,740,cs),
(1063,484,o),
(1033,222,o),
(896,222,cs)
);
},
{
closed = 1;
nodes = (
(225,-10,o),
(588,0,o),
(669,0,cs),
(783,0,o),
(882,-13,o),
(994,-13,cs),
(1513,-13,o),
(1696,258,o),
(1696,729,cs),
(1696,1345,o),
(1316,1503,o),
(957,1503,cs),
(835,1503,o),
(718,1490,o),
(596,1489,cs),
(480,1489,o),
(186,1501,o),
(128,1503,c),
(87,1476,o),
(70,1329,o),
(70,1250,cs),
(70,1196,o),
(114,1189,o),
(159,1184,cs),
(242,1175,o),
(249,1085,o),
(249,972,cs),
(249,533,ls),
(249,430,o),
(239,319,o),
(156,310,cs),
(111,305,o),
(67,299,o),
(67,245,cs),
(67,163,o),
(84,13,o),
(125,-13,c)
);
},
{
closed = 1;
nodes = (
(1987,-8,o),
(2188,-4,o),
(2391,-4,cs),
(2600,-4,o),
(2815,-8,o),
(3004,-17,c),
(3048,71,o),
(3141,343,o),
(3148,459,cs),
(3148,475,o),
(3040,549,o),
(2921,549,cs),
(2905,549,o),
(2803,237,o),
(2600,237,cs),
(2532,237,o),
(2453,241,o),
(2453,250,cs),
(2453,251,o),
(2453,251,o),
(2454,252,c),
(2527,368,o),
(2931,1010,o),
(2931,1010,c),
(3018,1139,o),
(3099,1262,o),
(3099,1310,cs),
(3099,1440,o),
(3094,1462,o),
(3074,1499,c),
(2947,1493,o),
(2750,1485,o),
(2555,1485,cs),
(2304,1485,o),
(2075,1488,o),
(1875,1499,c),
(1823,1390,o),
(1773,1224,o),
(1756,1128,c),
(1755,1125,o),
(1755,1122,o),
(1755,1119,cs),
(1755,1075,o),
(1892,1021,o),
(1987,1021,cs),
(2005,1021,o),
(2145,1297,o),
(2338,1297,cs),
(2397,1297,o),
(2434,1293,o),
(2434,1281,cs),
(2434,1269,o),
(2426,1257,o),
(2418,1242,c),
(1858,369,ls),
(1826,319,o),
(1795,268,o),
(1766,221,cs),
(1763,215,o),
(1761,208,o),
(1761,201,cs),
(1761,114,o),
(1810,-13,o),
(1822,-17,c)
);
},
{
closed = 1;
nodes = (
(2606,1514,l),
(2703,1603,o),
(2856,1765,o),
(2887,1803,cs),
(2937,1864,o),
(2975,1899,o),
(2975,1929,cs),
(2975,1971,o),
(2939,1990,o),
(2838,1990,cs),
(2754,1990,o),
(2729,1965,o),
(2682,1917,c),
(2531,1726,l),
(2380,1917,l),
(2333,1965,o),
(2308,1990,o),
(2224,1990,cs),
(2123,1990,o),
(2087,1971,o),
(2087,1929,cs),
(2087,1899,o),
(2125,1864,o),
(2175,1803,cs),
(2206,1765,o),
(2359,1603,o),
(2456,1514,c)
);
}
);
};
hints = (
{
horizontal = 1;
origin = (1,36);
target = (0,18);
type = Stem;
},
{
horizontal = 1;
origin = (2,35);
target = (2,47);
type = Stem;
},
{
horizontal = 1;
origin = (0,2);
target = (2,14);
type = Stem;
},
{
horizontal = 1;
origin = (1,17);
target = (0,12);
type = Stem;
},
{
horizontal = 1;
origin = (2,63);
target = (2,14);
type = Stem;
},
{
origin = (1,27);
target = (0,6);
type = Stem;
},
{
origin = (0,15);
target = (1,8);
type = Stem;
}
);
layerId = "5152A785-FF48-4BC0-8F27-F3AFCF9810FE";
shapes = (
{
closed = 1;
nodes = (
(850,222,o),
(829,224,o),
(829,224,c),
(829,224,o),
(814,336,o),
(814,623,cs),
(814,790,ls),
(814,1034,o),
(815,1230,o),
(819,1249,c),
(834,1252,o),
(850,1252,o),
(866,1252,cs),
(1034,1252,o),
(1063,919,o),
(1063,740,cs),
(1063,484,o),
(1033,222,o),
(896,222,cs)
);
},
{
closed = 1;
nodes = (
(225,-10,o),
(588,0,o),
(669,0,cs),
(783,0,o),
(882,-13,o),
(994,-13,cs),
(1513,-13,o),
(1696,258,o),
(1696,729,cs),
(1696,1345,o),
(1316,1503,o),
(957,1503,cs),
(835,1503,o),
(718,1490,o),
(596,1489,cs),
(480,1489,o),
(186,1501,o),
(128,1503,c),
(87,1476,o),
(70,1329,o),
(70,1250,cs),
(70,1196,o),
(114,1189,o),
(159,1184,cs),
(242,1175,o),
(249,1085,o),
(249,972,cs),
(249,533,ls),
(249,430,o),
(239,319,o),
(156,310,cs),
(111,305,o),
(67,299,o),
(67,245,cs),
(67,163,o),
(84,13,o),
(125,-13,c)
);
},
{
closed = 1;
nodes = (
(1987,-8,o),
(2188,-4,o),
(2391,-4,cs),
(2600,-4,o),
(2815,-8,o),
(3004,-17,c),
(3048,71,o),
(3141,343,o),
(3148,459,cs),
(3148,475,o),
(3040,549,o),
(2921,549,cs),
(2905,549,o),
(2803,237,o),
(2600,237,cs),
(2532,237,o),
(2453,241,o),
(2453,250,cs),
(2453,251,o),
(2453,251,o),
(2454,252,c),
(2527,368,o),
(2931,1010,o),
(2931,1010,c),
(3018,1139,o),
(3099,1262,o),
(3099,1310,cs),
(3099,1440,o),
(3094,1462,o),
(3074,1499,c),
(2947,1493,o),
(2750,1485,o),
(2555,1485,cs),
(2304,1485,o),
(2075,1488,o),
(1875,1499,c),
(1823,1390,o),
(1773,1224,o),
(1756,1128,c),
(1755,1125,o),
(1755,1122,o),
(1755,1119,cs),
(1755,1075,o),
(1892,1021,o),
(1987,1021,cs),
(2005,1021,o),
(2145,1297,o),
(2338,1297,cs),
(2397,1297,o),
(2434,1293,o),
(2434,1281,cs),
(2434,1269,o),
(2426,1257,o),
(2418,1242,c),
(1858,369,ls),
(1826,319,o),
(1795,268,o),
(1766,221,cs),
(1763,215,o),
(1761,208,o),
(1761,201,cs),
(1761,114,o),
(1810,-13,o),
(1822,-17,c)
);
},
{
closed = 1;
nodes = (
(2606,1514,l),
(2703,1603,o),
(2856,1765,o),
(2887,1803,cs),
(2937,1864,o),
(2975,1899,o),
(2975,1929,cs),
(2975,1971,o),
(2939,1990,o),
(2838,1990,cs),
(2754,1990,o),
(2729,1965,o),
(2682,1917,c),
(2531,1726,l),
(2380,1917,l),
(2333,1965,o),
(2308,1990,o),
(2224,1990,cs),
(2123,1990,o),
(2087,1971,o),
(2087,1929,cs),
(2087,1899,o),
(2125,1864,o),
(2175,1803,cs),
(2206,1765,o),
(2359,1603,o),
(2456,1514,c)
);
}
);
width = 3182;
}
);
note = DZcaron;
unicode = (452,454);
},
{
glyphname = Dcaron;
lastChange = "2026-02-05 15:38:49 +0000";
layers = (
{
background = {
shapes = (
{
closed = 1;
nodes = (
(832,1614,l),
(919,1703,o),
(1055,1865,o),
(1084,1902,cs),
(1133,1964,o),
(1171,1999,o),
(1171,2029,cs),
(1171,2071,o),
(1152,2090,o),
(1094,2090,cs),
(1025,2090,o),
(1006,2065,o),
(968,2017,cs),
(787,1786,l),
(606,2017,ls),
(568,2065,o),
(549,2090,o),
(480,2090,cs),
(415,2090,o),
(393,2071,o),
(393,2029,cs),
(393,1999,o),
(431,1964,o),
(480,1902,cs),
(509,1865,o),
(644,1703,o),
(732,1614,c)
);
},
{
closed = 1;
nodes = (
(466,173,l),
(466,1322,l),
(824,1322,ls),
(1138,1322,o),
(1304,1028,o),
(1304,743,cs),
(1304,458,o),
(1146,173,o),
(854,173,cs)
);
},
{
closed = 1;
nodes = (
(74,1481,o),
(60,1398,o),
(60,1344,cs),
(60,1299,o),
(128,1292,o),
(172,1292,cs),
(229,1292,o),
(235,1262,o),
(235,1229,cs),
(235,263,ls),
(235,230,o),
(229,200,o),
(172,200,cs),
(118,200,o),
(60,187,o),
(60,152,cs),
(60,95,o),
(73,12,o),
(113,-11,c),
(256,-7,o),
(398,0,o),
(492,0,cs),
(654,0,o),
(755,-11,o),
(854,-11,cs),
(1343,-11,o),
(1564,366,o),
(1564,747,cs),
(1564,1122,o),
(1336,1503,o),
(824,1503,cs),
(739,1503,o),
(620,1490,o),
(481,1490,cs),
(377,1490,o),
(235,1491,o),
(113,1503,c)
);
}
);
};
layerId = m01;
shapes = (
{
ref = D;
},
{
pos = (351,422);
ref = caroncomb;
}
);
width = 1621;
},
{
background = {
shapes = (
{
closed = 1;
nodes = (
(953,1618,l),
(1050,1707,o),
(1203,1869,o),
(1234,1907,cs),
(1284,1968,o),
(1322,2003,o),
(1322,2033,cs),
(1322,2075,o),
(1286,2094,o),
(1185,2094,cs),
(1101,2094,o),
(1076,2069,o),
(1029,2021,c),
(878,1830,l),
(727,2021,l),
(680,2069,o),
(655,2094,o),
(571,2094,cs),
(470,2094,o),
(434,2075,o),
(434,2033,cs),
(434,2003,o),
(472,1968,o),
(522,1907,cs),
(553,1869,o),
(706,1707,o),
(803,1618,c)
);
},
{
closed = 1;
nodes = (
(848,222,o),
(827,224,o),
(827,224,c),
(827,224,o),
(812,336,o),
(812,623,cs),
(812,790,ls),
(812,1034,o),
(813,1230,o),
(817,1249,c),
(832,1252,o),
(848,1252,o),
(864,1252,cs),
(1038,1252,o),
(1119,991,o),
(1119,732,cs),
(1119,476,o),
(1040,222,o),
(894,222,cs)
);
},
{
closed = 1;
nodes = (
(217,-10,o),
(560,0,o),
(637,0,cs),
(750,0,o),
(849,-13,o),
(960,-13,cs),
(1444,-13,o),
(1690,361,o),
(1690,738,cs),
(1690,1119,o),
(1438,1503,o),
(925,1503,cs),
(803,1503,o),
(686,1490,o),
(564,1489,cs),
(455,1489,o),
(180,1501,o),
(126,1503,c),
(85,1476,o),
(68,1329,o),
(68,1250,cs),
(68,1196,o),
(112,1189,o),
(157,1184,cs),
(240,1175,o),
(247,1085,o),
(247,972,cs),
(247,533,ls),
(247,430,o),
(237,319,o),
(154,310,cs),
(109,305,o),
(65,299,o),
(65,245,cs),
(65,163,o),
(82,13,o),
(123,-13,c)
);
}
);
};
layerId = "5152A785-FF48-4BC0-8F27-F3AFCF9810FE";
shapes = (
{
ref = D;
},
{
pos = (343,422);
ref = caroncomb;
}
);
width = 1726;
}
);
note = Dcaron;
unicode = 270;
},
{
glyphname = Dcroat;
lastChange = "2026-02-05 15:35:32 +0000";
layers = (
{
background = {
shapes = (
{
closed = 1;
nodes = (
(107,1481,o),
(93,1398,o),
(93,1344,cs),
(93,1299,o),
(161,1292,o),
(205,1292,cs),
(262,1292,o),
(268,1262,o),
(268,1229,cs),
(268,856,l),
(240,856,ls),
(186,856,o),
(110,858,o),
(97,859,c),
(71,849,o),
(61,822,o),
(61,774,cs),
(61,708,o),
(84,679,o),
(116,679,c),
(121,681,o),
(187,683,o),
(268,684,c),
(268,263,ls),
(268,230,o),
(262,200,o),
(205,200,cs),
(151,200,o),
(93,187,o),
(93,152,cs),
(93,95,o),
(106,12,o),
(146,-11,c),
(289,-7,o),
(431,0,o),
(525,0,cs),
(687,0,o),
(788,-11,o),
(887,-11,cs),
(1376,-11,o),
(1597,366,o),
(1597,747,cs),
(1597,1122,o),
(1369,1503,o),
(857,1503,cs),
(772,1503,o),
(653,1490,o),
(514,1490,cs),
(410,1490,o),
(268,1491,o),
(146,1503,c)
);
},
{
closed = 1;
nodes = (
(499,173,l),
(499,686,l),
(536,687,o),
(540,687,o),
(571,687,c),
(571,687,o),
(786,686,o),
(798,681,c),
(830,681,o),
(853,710,o),
(853,776,cs),
(853,824,o),
(843,851,o),
(817,861,c),
(804,860,o),
(728,858,o),
(674,858,cs),
(672,858,o),
(585,857,o),
(499,857,c),
(499,1322,l),
(857,1322,ls),
(1171,1322,o),
(1337,1028,o),
(1337,743,cs),
(1337,458,o),
(1179,173,o),
(887,173,cs)
);
}
);
};
layerId = m01;
shapes = (
{
ref = Eth;
}
);
width = 1713;
},
{
background = {
shapes = (
{
closed = 1;
nodes = (
(192,856,o),
(116,858,o),
(103,859,c),
(77,849,o),
(67,822,o),
(67,774,cs),
(67,708,o),
(90,679,o),
(122,679,c),
(135,684,o),
(577,687,o),
(577,687,c),
(680,687,l),
(680,687,o),
(895,686,o),
(907,681,c),
(939,681,o),
(962,710,o),
(962,776,cs),
(962,824,o),
(952,851,o),
(926,861,c),
(913,860,o),
(837,858,o),
(783,858,cs),
(776,858,o),
(320,857,o),
(246,856,cs)
);
},
{
closed = 1;
nodes = (
(848,222,o),
(827,224,o),
(827,224,c),
(827,224,o),
(812,336,o),
(812,623,cs),
(812,790,ls),
(812,1034,o),
(813,1230,o),
(817,1249,c),
(832,1252,o),
(848,1252,o),
(864,1252,cs),
(1038,1252,o),
(1119,991,o),
(1119,732,cs),
(1119,476,o),
(1040,222,o),
(894,222,cs)
);
},
{
closed = 1;
nodes = (
(217,-10,o),
(560,0,o),
(637,0,cs),
(750,0,o),
(849,-13,o),
(960,-13,cs),
(1444,-13,o),
(1690,361,o),
(1690,738,cs),
(1690,1119,o),
(1438,1503,o),
(925,1503,cs),
(803,1503,o),
(686,1490,o),
(564,1489,cs),
(455,1489,o),
(180,1501,o),
(126,1503,c),
(85,1476,o),
(68,1329,o),
(68,1250,cs),
(68,1196,o),
(112,1189,o),
(157,1184,cs),
(240,1175,o),
(247,1085,o),
(247,972,cs),
(247,533,ls),
(247,430,o),
(237,319,o),
(154,310,cs),
(109,305,o),
(65,299,o),
(65,245,cs),
(65,163,o),
(82,13,o),
(123,-13,c)
);
}
);
};
layerId = "5152A785-FF48-4BC0-8F27-F3AFCF9810FE";
shapes = (
{
ref = Eth;
}
);
width = 1766;
}
);
note = uni0110;
unicode = 272;
},
{
glyphname = Dzcaron;
lastChange = "2026-02-05 15:35:32 +0000";
layers = (
{
background = {
shapes = (
{
closed = 1;
nodes = (
(2198,1197,l),
(2285,1286,o),
(2421,1448,o),
(2450,1485,cs),
(2499,1547,o),
(2537,1582,o),
(2537,1612,cs),
(2537,1654,o),
(2518,1673,o),
(2460,1673,cs),
(2391,1673,o),
(2372,1648,o),
(2334,1600,cs),
(2153,1369,l),
(1972,1600,ls),
(1934,1648,o),
(1915,1673,o),
(1846,1673,cs),
(1781,1673,o),
(1759,1654,o),
(1759,1612,cs),
(1759,1582,o),
(1797,1547,o),
(1846,1485,cs),
(1875,1448,o),
(2010,1286,o),
(2098,1197,c)
);
},
{
closed = 1;
nodes = (
(1855,-5,o),
(1959,0,o),
(2095,0,cs),
(2201,0,o),
(2339,-5,o),
(2521,-15,c),
(2541,36,o),
(2604,252,o),
(2604,340,cs),
(2604,383,o),
(2529,391,o),
(2469,391,cs),
(2458,391,o),
(2449,390,o),
(2440,390,c),
(2392,275,o),
(2362,143,o),
(2298,143,cs),
(1945,143,l),
(1945,143,o),
(2000,206,o),
(2076,301,cs),
(2439,754,ls),
(2526,863,o),
(2578,927,o),
(2578,976,cs),
(2578,1043,o),
(2568,1077,o),
(2515,1083,c),
(2372,1072,o),
(2260,1068,o),
(2160,1068,cs),
(2007,1068,o),
(1883,1077,o),
(1726,1083,c),
(1704,1016,o),
(1666,875,o),
(1666,757,cs),
(1666,750,o),
(1687,734,o),
(1832,734,cs),
(1836,734,o),
(1879,928,o),
(1923,928,cs),
(2277,928,l),
(2152,772,o),
(1909,475,o),
(1735,264,cs),
(1689,208,o),
(1669,173,o),
(1669,126,cs),
(1669,51,o),
(1688,-13,o),
(1747,-13,cs),
(1752,-13,o),
(1757,-13,o),
(1759,-12,c)
);
},
{
closed = 1;
nodes = (
(466,173,l),
(466,1322,l),
(824,1322,ls),
(1138,1322,o),
(1304,1028,o),
(1304,743,cs),
(1304,458,o),
(1146,173,o),
(854,173,cs)
);
},
{
closed = 1;
nodes = (
(74,1481,o),
(60,1398,o),
(60,1344,cs),
(60,1299,o),
(128,1292,o),
(172,1292,cs),
(229,1292,o),
(235,1262,o),
(235,1229,cs),
(235,263,ls),
(235,230,o),
(229,200,o),
(172,200,cs),
(118,200,o),
(60,187,o),
(60,152,cs),
(60,95,o),
(73,12,o),
(113,-11,c),
(256,-7,o),
(398,0,o),
(492,0,cs),
(654,0,o),
(755,-11,o),
(854,-11,cs),
(1343,-11,o),
(1564,366,o),
(1564,747,cs),
(1564,1122,o),
(1336,1503,o),
(824,1503,cs),
(739,1503,o),
(620,1490,o),
(481,1490,cs),
(377,1490,o),
(235,1491,o),
(113,1503,c)
);
}
);
};
layerId = m01;
shapes = (
{
ref = D;
},
{
pos = (1621,0);
ref = zcaron;
}
);
width = 2630;
},
{
background = {
shapes = (
{
closed = 1;
nodes = (
(850,222,o),
(829,224,o),
(829,224,c),
(829,224,o),
(814,336,o),
(814,623,cs),
(814,790,ls),
(814,1034,o),
(815,1230,o),
(819,1249,c),
(834,1252,o),
(850,1252,o),
(866,1252,cs),
(1034,1252,o),
(1063,919,o),
(1063,740,cs),
(1063,484,o),
(1033,222,o),
(896,222,cs)
);
},
{
closed = 1;
nodes = (
(225,-10,o),
(588,0,o),
(669,0,cs),
(783,0,o),
(882,-13,o),
(994,-13,cs),
(1513,-13,o),
(1696,258,o),
(1696,729,cs),
(1696,1345,o),
(1316,1503,o),
(957,1503,cs),
(835,1503,o),
(718,1490,o),
(596,1489,cs),
(480,1489,o),
(186,1501,o),
(128,1503,c),
(87,1476,o),
(70,1329,o),
(70,1250,cs),
(70,1196,o),
(114,1189,o),
(159,1184,cs),
(242,1175,o),
(249,1085,o),
(249,972,cs),
(249,533,ls),
(249,430,o),
(239,319,o),
(156,310,cs),
(111,305,o),
(67,299,o),
(67,245,cs),
(67,163,o),
(84,13,o),
(125,-13,c)
);
},
{
closed = 1;
nodes = (
(1958,-5,o),
(2056,0,o),
(2184,0,cs),
(2326,0,o),
(2500,-5,o),
(2730,-15,c),
(2753,37,o),
(2823,255,o),
(2823,346,cs),
(2823,424,o),
(2742,437,o),
(2678,437,cs),
(2668,437,o),
(2658,436,o),
(2649,436,c),
(2587,293,o),
(2523,223,o),
(2427,223,cs),
(2344,223,l),
(2344,223,o),
(2381,281,o),
(2435,361,cs),
(2698,754,ls),
(2767,857,o),
(2805,928,o),
(2805,976,cs),
(2805,1043,o),
(2796,1077,o),
(2742,1083,c),
(2604,1071,o),
(2453,1067,o),
(2314,1067,cs),
(2130,1067,o),
(1961,1079,o),
(1855,1083,c),
(1837,1018,o),
(1805,881,o),
(1805,767,cs),
(1805,760,o),
(1826,744,o),
(1971,744,cs),
(1979,744,o),
(2083,889,o),
(2192,889,cs),
(2254,889,l),
(2155,712,o),
(1969,466,o),
(1833,265,cs),
(1795,209,o),
(1778,173,o),
(1778,126,cs),
(1778,51,o),
(1797,-13,o),
(1856,-13,cs),
(1860,-13,o),
(1864,-13,o),
(1868,-12,c)
);
},
{
closed = 1;
nodes = (
(2446,1124,l),
(2543,1213,o),
(2696,1375,o),
(2727,1413,cs),
(2777,1474,o),
(2815,1509,o),
(2815,1539,cs),
(2815,1581,o),
(2779,1600,o),
(2678,1600,cs),
(2594,1600,o),
(2569,1575,o),
(2522,1527,c),
(2371,1336,l),
(2220,1527,l),
(2173,1575,o),
(2148,1600,o),
(2064,1600,cs),
(1963,1600,o),
(1927,1581,o),
(1927,1539,cs),
(1927,1509,o),
(1965,1474,o),
(2015,1413,cs),
(2046,1375,o),
(2199,1213,o),
(2296,1124,c)
);
}
);
};
layerId = "5152A785-FF48-4BC0-8F27-F3AFCF9810FE";
shapes = (
{
ref = D;
},
{
pos = (1726,0);
ref = zcaron;
}
);
width = 2889;
}
);
note = Dzcaron;
unicode = 453;
},
{
glyphname = Eth;
lastChange = "2026-02-05 15:40:54 +0000";
layers = (
{
anchors = (
{
name = bottom;
pos = (857,0);
},
{
name = top;
pos = (857,1489);
}
);
background = {
shapes = (
{
closed = 1;
nodes = (
(107,1481,o),
(93,1398,o),
(93,1344,cs),
(93,1299,o),
(161,1292,o),
(205,1292,cs),
(262,1292,o),
(268,1262,o),
(268,1229,cs),
(268,856,l),
(240,856,ls),
(186,856,o),
(110,858,o),
(97,859,c),
(71,849,o),
(61,822,o),
(61,774,cs),
(61,708,o),
(84,679,o),
(116,679,c),
(121,681,o),
(187,683,o),
(268,684,c),
(268,263,ls),
(268,230,o),
(262,200,o),
(205,200,cs),
(151,200,o),
(93,187,o),
(93,152,cs),
(93,95,o),
(106,12,o),
(146,-11,c),
(289,-7,o),
(431,0,o),
(525,0,cs),
(687,0,o),
(788,-11,o),
(887,-11,cs),
(1376,-11,o),
(1597,366,o),
(1597,747,cs),
(1597,1122,o),
(1369,1503,o),
(857,1503,cs),
(772,1503,o),
(653,1490,o),
(514,1490,cs),
(410,1490,o),
(268,1491,o),
(146,1503,c)
);
},
{
closed = 1;
nodes = (
(499,173,l),
(499,686,l),
(542,686,o),
(571,687,o),
(571,687,c),
(674,687,l),
(674,687,o),
(889,686,o),
(901,681,c),
(933,681,o),
(956,710,o),
(956,776,cs),
(956,824,o),
(946,851,o),
(920,861,c),
(907,860,o),
(831,858,o),
(777,858,cs),
(773,858,o),
(635,857,o),
(499,857,c),
(499,1322,l),
(857,1322,ls),
(1171,1322,o),
(1337,1028,o),
(1337,743,cs),
(1337,458,o),
(1179,173,o),
(887,173,cs)
);
}
);
};
hints = (
{
horizontal = 1;
origin = (0,38);
target = (1,28);
type = Stem;
},
{
horizontal = 1;
origin = (1,5);
target = (1,17);
type = Stem;
},
{
horizontal = 1;
origin = (0,50);
target = (1,22);
type = Stem;
},
{
horizontal = 1;
origin = (0,38);
target = (0,26);
type = Stem;
},
{
horizontal = 1;
origin = (0,19);
target = (0,10);
type = Stem;
},
{
horizontal = 1;
origin = (0,50);
target = (0,5);
type = Stem;
},
{
origin = (0,23);
target = (1,21);
type = Stem;
},
{
origin = (1,25);
target = (0,41);
type = Stem;
}
);
layerId = m01;
shapes = (
{
closed = 1;
nodes = (
(107,1481,o),
(93,1398,o),
(93,1344,cs),
(93,1299,o),
(161,1292,o),
(205,1292,cs),
(262,1292,o),
(268,1262,o),
(268,1229,cs),
(268,856,l),
(240,856,ls),
(186,856,o),
(110,858,o),
(97,859,c),
(71,849,o),
(61,822,o),
(61,774,cs),
(61,708,o),
(84,679,o),
(116,679,c),
(121,681,o),
(187,683,o),
(268,684,c),
(268,263,ls),
(268,230,o),
(262,200,o),
(205,200,cs),
(151,200,o),
(93,187,o),
(93,152,cs),
(93,95,o),
(106,12,o),
(146,-11,c),
(289,-7,o),
(431,0,o),
(525,0,cs),
(687,0,o),
(788,-11,o),
(887,-11,cs),
(1376,-11,o),
(1597,366,o),
(1597,747,cs),
(1597,1122,o),
(1369,1503,o),
(857,1503,cs),
(772,1503,o),
(653,1490,o),
(514,1490,cs),
(410,1490,o),
(268,1491,o),
(146,1503,c)
);
},
{
closed = 1;
nodes = (
(499,173,l),
(499,686,l),
(542,686,o),
(571,687,o),
(571,687,c),
(674,687,l),
(674,687,o),
(889,686,o),
(901,681,c),
(933,681,o),
(956,710,o),
(956,776,cs),
(956,824,o),
(946,851,o),
(920,861,c),
(907,860,o),
(831,858,o),
(777,858,cs),
(773,858,o),
(635,857,o),
(499,857,c),
(499,1322,l),
(857,1322,ls),
(1171,1322,o),
(1337,1028,o),
(1337,743,cs),
(1337,458,o),
(1179,173,o),
(887,173,cs)
);
}
);
width = 1713;
},
{
anchors = (
{
name = bottom;
pos = (883,0);
},
{
name = top;
pos = (883,1489);
}
);
background = {
shapes = (
{
closed = 1;
nodes = (
(192,856,o),
(116,858,o),
(103,859,c),
(77,849,o),
(67,822,o),
(67,774,cs),
(67,708,o),
(90,679,o),
(122,679,c),
(135,684,o),
(577,687,o),
(577,687,c),
(680,687,l),
(680,687,o),
(895,686,o),
(907,681,c),
(939,681,o),
(962,710,o),
(962,776,cs),
(962,824,o),
(952,851,o),
(926,861,c),
(913,860,o),
(837,858,o),
(783,858,cs),
(776,858,o),
(320,857,o),
(246,856,cs)
);
},
{
closed = 1;
nodes = (
(848,222,o),
(827,224,o),
(827,224,c),
(827,224,o),
(812,336,o),
(812,623,cs),
(812,790,ls),
(812,1034,o),
(813,1230,o),
(817,1249,c),
(832,1252,o),
(848,1252,o),
(864,1252,cs),
(1038,1252,o),
(1119,991,o),
(1119,732,cs),
(1119,476,o),
(1040,222,o),
(894,222,cs)
);
},
{
closed = 1;
nodes = (
(217,-10,o),
(560,0,o),
(637,0,cs),
(750,0,o),
(849,-13,o),
(960,-13,cs),
(1444,-13,o),
(1690,361,o),
(1690,738,cs),
(1690,1119,o),
(1438,1503,o),
(925,1503,cs),
(803,1503,o),
(686,1490,o),
(564,1489,cs),
(455,1489,o),
(180,1501,o),
(126,1503,c),
(85,1476,o),
(68,1329,o),
(68,1250,cs),
(68,1196,o),
(112,1189,o),
(157,1184,cs),
(240,1175,o),
(247,1085,o),
(247,972,cs),
(247,533,ls),
(247,430,o),
(237,319,o),
(154,310,cs),
(109,305,o),
(65,299,o),
(65,245,cs),
(65,163,o),
(82,13,o),
(123,-13,c)
);
}
);
};
hints = (
{
horizontal = 1;
origin = (2,36);
target = (1,18);
type = Stem;
},
{
horizontal = 1;
origin = (0,8);
target = (0,27);
type = Stem;
},
{
horizontal = 1;
origin = (2,17);
target = (1,12);
type = Stem;
},
{
horizontal = 1;
origin = (0,15,1,6);
target = (0,24);
type = Stem;
},
{
origin = (2,27);
target = (1,6);
type = Stem;
},
{
origin = (1,15);
target = (2,8);
type = Stem;
}
);
layerId = "5152A785-FF48-4BC0-8F27-F3AFCF9810FE";
shapes = (
{
closed = 1;
nodes = (
(192,856,o),
(116,858,o),
(103,859,c),
(77,849,o),
(67,822,o),
(67,774,cs),
(67,708,o),
(90,679,o),
(122,679,c),
(135,684,o),
(577,687,o),
(577,687,c),
(680,687,l),
(680,687,o),
(895,686,o),
(907,681,c),
(939,681,o),
(962,710,o),
(962,776,cs),
(962,824,o),
(952,851,o),
(926,861,c),
(913,860,o),
(837,858,o),
(783,858,cs),
(776,858,o),
(320,857,o),
(246,856,cs)
);
},
{
closed = 1;
nodes = (
(848,222,o),
(827,224,o),
(827,224,c),
(827,224,o),
(812,336,o),
(812,623,cs),
(812,790,ls),
(812,1034,o),
(813,1230,o),
(817,1249,c),
(832,1252,o),
(848,1252,o),
(864,1252,cs),
(1038,1252,o),
(1119,991,o),
(1119,732,cs),
(1119,476,o),
(1040,222,o),
(894,222,cs)
);
},
{
closed = 1;
nodes = (
(217,-10,o),
(560,0,o),
(637,0,cs),
(750,0,o),
(849,-13,o),
(960,-13,cs),
(1444,-13,o),
(1690,361,o),
(1690,738,cs),
(1690,1119,o),
(1438,1503,o),
(925,1503,cs),
(803,1503,o),
(686,1490,o),
(564,1489,cs),
(455,1489,o),
(180,1501,o),
(126,1503,c),
(85,1476,o),
(68,1329,o),
(68,1250,cs),
(68,1196,o),
(112,1189,o),
(157,1184,cs),
(240,1175,o),
(247,1085,o),
(247,972,cs),
(247,533,ls),
(247,430,o),
(237,319,o),
(154,310,cs),
(109,305,o),
(65,299,o),
(65,245,cs),
(65,163,o),
(82,13,o),
(123,-13,c)
);
}
);
width = 1766;
}
);
note = Eth;
unicode = 208;
},
{
glyphname = E;
lastChange = "2026-02-05 15:44:38 +0000";
layers = (
{
anchors = (
{
name = bottom;
pos = (662,0);
},
{
name = ogonek;
pos = (1162,-10);
},
{
name = top;
pos = (662,1489);
},
{
name = topleft;
pos = (20,1489);
}
);
background = {
shapes = (
{
closed = 1;
nodes = (
(74,1481,o),
(60,1398,o),
(60,1344,cs),
(60,1299,o),
(128,1292,o),
(172,1292,cs),
(229,1292,o),
(235,1262,o),
(235,1229,cs),
(235,263,ls),
(235,230,o),
(229,200,o),
(172,200,cs),
(118,200,o),
(60,187,o),
(60,152,cs),
(60,95,o),
(73,12,o),
(113,-11,c),
(294,-2,o),
(473,0,o),
(651,0,cs),
(916,0,o),
(1098,-5,o),
(1199,-11,c),
(1227,11,o),
(1327,408,o),
(1327,456,cs),
(1327,472,o),
(1292,537,o),
(1184,537,cs),
(1140,537,o),
(1085,249,o),
(1055,178,c),
(888,178,o),
(708,179,o),
(500,179,cs),
(467,179,o),
(466,214,o),
(466,244,cs),
(466,746,l),
(499,750,o),
(532,753,o),
(563,753,cs),
(643,753,o),
(713,733,o),
(769,662,c),
(836,662,o),
(898,717,o),
(898,793,cs),
(898,887,o),
(840,921,o),
(766,921,cs),
(666,921,o),
(537,894,o),
(466,869,c),
(466,1246,ls),
(466,1275,o),
(467,1310,o),
(500,1310,cs),
(692,1310,o),
(860,1311,o),
(1015,1311,c),
(1039,1248,o),
(1079,992,o),
(1114,992,cs),
(1222,992,o),
(1257,1057,o),
(1257,1073,cs),
(1257,1116,o),
(1173,1482,o),
(1149,1503,c),
(1068,1501,o),
(864,1490,o),
(651,1490,cs),
(442,1490,o),
(267,1498,o),
(113,1503,c)
);
}
);
};
hints = (
{
horizontal = 1;
origin = (0,24);
target = (0,36);
type = Stem;
},
{
horizontal = 1;
origin = (0,77);
target = (0,59);
type = Stem;
},
{
horizontal = 1;
origin = (0,24);
target = (0,12);
type = Stem;
},
{
horizontal = 1;
origin = (0,77);
target = (0,5);
type = Stem;
},
{
horizontal = 1;
origin = (0,46);
target = (0,52);
type = Stem;
},
{
origin = (0,9);
target = (0,56);
type = Stem;
},
{
place = (1042.54,214.46);
type = Stem;
}
);
layerId = m01;
shapes = (
{
closed = 1;
nodes = (
(74,1481,o),
(60,1398,o),
(60,1344,cs),
(60,1299,o),
(128,1292,o),
(172,1292,cs),
(229,1292,o),
(235,1262,o),
(235,1229,cs),
(235,263,ls),
(235,230,o),
(229,200,o),
(172,200,cs),
(118,200,o),
(60,187,o),
(60,152,cs),
(60,95,o),
(73,12,o),
(113,-11,c),
(294,-2,o),
(473,0,o),
(651,0,cs),
(916,0,o),
(1098,-5,o),
(1199,-11,c),
(1227,11,o),
(1327,408,o),
(1327,456,cs),
(1327,472,o),
(1292,537,o),
(1184,537,cs),
(1140,537,o),
(1085,249,o),
(1055,178,c),
(888,178,o),
(708,179,o),
(500,179,cs),
(467,179,o),
(466,214,o),
(466,244,cs),
(466,746,l),
(499,750,o),
(532,753,o),
(563,753,cs),
(643,753,o),
(713,733,o),
(769,662,c),
(836,662,o),
(898,717,o),
(898,793,cs),
(898,887,o),
(840,921,o),
(766,921,cs),
(666,921,o),
(537,894,o),
(466,869,c),
(466,1246,ls),
(466,1275,o),
(467,1310,o),
(500,1310,cs),
(692,1310,o),
(860,1311,o),
(1015,1311,c),
(1039,1248,o),
(1079,992,o),
(1114,992,cs),
(1222,992,o),
(1257,1057,o),
(1257,1073,cs),
(1257,1116,o),
(1173,1482,o),
(1149,1503,c),
(1068,1501,o),
(864,1490,o),
(651,1490,cs),
(442,1490,o),
(267,1498,o),
(113,1503,c)
);
}
);
width = 1324;
},
{
anchors = (
{
name = bottom;
pos = (757,0);
},
{
name = ogonek;
pos = (1338,6);
},
{
name = top;
pos = (757,1489);
},
{
name = topleft;
pos = (20,1489);
}
);
background = {
anchors = (
{
name = bottom;
pos = (757,0);
},
{
name = ogonek;
pos = (1362,10);
},
{
name = top;
pos = (757,173);
},
{
name = topleft;
pos = (20,173);
}
);
shapes = (
{
closed = 1;
nodes = (
(85,1476,o),
(68,1331,o),
(68,1252,cs),
(68,1198,o),
(112,1191,o),
(157,1186,cs),
(240,1177,o),
(247,1087,o),
(247,974,cs),
(247,535,ls),
(247,432,o),
(237,321,o),
(154,312,cs),
(109,307,o),
(65,301,o),
(65,247,cs),
(65,165,o),
(82,15,o),
(123,-13,c),
(288,-2,o),
(439,0,o),
(605,0,cs),
(848,0,o),
(1106,8,o),
(1332,-13,c),
(1362,-13,o),
(1407,87,o),
(1420,127,cs),
(1456,233,o),
(1499,404,o),
(1499,473,cs),
(1499,487,o),
(1498,499,o),
(1494,507,cs),
(1469,550,o),
(1361,586,o),
(1298,586,cs),
(1287,586,o),
(1277,585,o),
(1269,582,c),
(1184,383,o),
(1100,224,o),
(943,194,c),
(855,194,ls),
(819,194,o),
(812,288,o),
(812,378,cs),
(812,641,l),
(835,676,o),
(864,690,o),
(894,690,cs),
(958,690,o),
(1029,646,o),
(1076,593,c),
(1172,593,o),
(1262,672,o),
(1262,782,cs),
(1262,872,o),
(1200,968,o),
(1084,968,cs),
(973,968,o),
(887,908,o),
(812,819,c),
(812,1037,ls),
(812,1272,o),
(845,1276,o),
(912,1276,cs),
(1085,1276,o),
(1223,1033,o),
(1248,1033,cs),
(1306,1033,o),
(1428,1056,o),
(1428,1137,cs),
(1428,1241,o),
(1361,1430,o),
(1322,1503,c),
(1135,1493,o),
(934,1489,o),
(732,1489,cs),
(526,1489,o),
(319,1493,o),
(126,1503,c)
);
}
);
};
hints = (
{
horizontal = 1;
origin = (0,24);
target = (0,43);
type = Stem;
},
{
horizontal = 1;
origin = (0,53);
target = (0,59);
type = Stem;
},
{
horizontal = 1;
origin = (0,81);
target = (0,66);
type = Stem;
},
{
origin = (0,9);
target = (0,63);
type = Stem;
}
);
layerId = "5152A785-FF48-4BC0-8F27-F3AFCF9810FE";
shapes = (
{
closed = 1;
nodes = (
(85,1476,o),
(68,1331,o),
(68,1252,cs),
(68,1198,o),
(112,1191,o),
(157,1186,cs),
(240,1177,o),
(247,1087,o),
(247,974,cs),
(247,535,ls),
(247,432,o),
(237,321,o),
(154,312,cs),
(109,307,o),
(65,301,o),
(65,247,cs),
(65,165,o),
(82,15,o),
(123,-13,c),
(288,-2,o),
(439,0,o),
(605,0,cs),
(848,0,o),
(1106,8,o),
(1332,-13,c),
(1362,-13,o),
(1407,87,o),
(1420,127,cs),
(1456,233,o),
(1499,404,o),
(1499,473,cs),
(1499,487,o),
(1498,499,o),
(1494,507,cs),
(1469,550,o),
(1361,586,o),
(1298,586,cs),
(1287,586,o),
(1277,585,o),
(1269,582,c),
(1184,383,o),
(1100,224,o),
(943,194,c),
(855,194,ls),
(819,194,o),
(812,288,o),
(812,378,cs),
(812,641,l),
(835,676,o),
(864,690,o),
(894,690,cs),
(958,690,o),
(1029,646,o),
(1076,593,c),
(1172,593,o),
(1262,672,o),
(1262,782,cs),
(1262,872,o),
(1200,968,o),
(1084,968,cs),
(973,968,o),
(887,908,o),
(812,819,c),
(812,1037,ls),
(812,1272,o),
(845,1276,o),
(912,1276,cs),
(1085,1276,o),
(1223,1033,o),
(1248,1033,cs),
(1306,1033,o),
(1428,1056,o),
(1428,1137,cs),
(1428,1241,o),
(1361,1430,o),
(1322,1503,c),
(1135,1493,o),
(934,1489,o),
(732,1489,cs),
(526,1489,o),
(319,1493,o),
(126,1503,c)
);
}
);
width = 1513;
}
);
note = E;
unicode = 69;
},
{
glyphname = Eacute;
lastChange = "2026-02-05 15:39:25 +0000";
layers = (
{
background = {
shapes = (
{
closed = 1;
nodes = (
(687,1614,l),
(803,1703,o),
(990,1866,o),
(1028,1903,cs),
(1092,1966,o),
(1146,1999,o),
(1146,2029,cs),
(1146,2071,o),
(1107,2090,o),
(999,2090,cs),
(904,2090,o),
(872,2067,o),
(828,1997,cs),
(778,1918,o),
(633,1698,o),
(576,1614,c)
);
},
{
closed = 1;
nodes = (
(74,1481,o),
(60,1398,o),
(60,1344,cs),
(60,1299,o),
(128,1292,o),
(172,1292,cs),
(229,1292,o),
(235,1262,o),
(235,1229,cs),
(235,263,ls),
(235,230,o),
(229,200,o),
(172,200,cs),
(118,200,o),
(60,187,o),
(60,152,cs),
(60,95,o),
(73,12,o),
(113,-11,c),
(294,-2,o),
(473,0,o),
(651,0,cs),
(916,0,o),
(1098,-5,o),
(1199,-11,c),
(1227,11,o),
(1327,408,o),
(1327,456,cs),
(1327,472,o),
(1292,537,o),
(1184,537,cs),
(1140,537,o),
(1085,249,o),
(1055,178,c),
(888,178,o),
(708,179,o),
(500,179,cs),
(467,179,o),
(466,214,o),
(466,244,cs),
(466,746,l),
(499,750,o),
(532,753,o),
(563,753,cs),
(643,753,o),
(713,733,o),
(769,662,c),
(836,662,o),
(898,717,o),
(898,793,cs),
(898,887,o),
(840,921,o),
(766,921,cs),
(666,921,o),
(537,894,o),
(466,869,c),
(466,1246,ls),
(466,1275,o),
(467,1310,o),
(500,1310,cs),
(692,1310,o),
(860,1311,o),
(1015,1311,c),
(1039,1248,o),
(1079,992,o),
(1114,992,cs),
(1222,992,o),
(1257,1057,o),
(1257,1073,cs),
(1257,1116,o),
(1173,1482,o),
(1149,1503,c),
(1068,1501,o),
(864,1490,o),
(651,1490,cs),
(442,1490,o),
(267,1498,o),
(113,1503,c)
);
}
);
};
layerId = m01;
shapes = (
{
ref = E;
},
{
pos = (504,422);
ref = acutecomb;
}
);
width = 1324;
},
{
background = {
shapes = (
{
closed = 1;
nodes = (
(778,1618,l),
(894,1707,o),
(1080,1870,o),
(1118,1907,cs),
(1182,1970,o),
(1236,2003,o),
(1236,2033,cs),
(1236,2075,o),
(1198,2094,o),
(1090,2094,cs),
(995,2094,o),
(962,2071,o),
(918,2001,cs),
(868,1922,o),
(723,1702,o),
(666,1618,c)
);
},
{
closed = 1;
nodes = (
(85,1476,o),
(68,1331,o),
(68,1252,cs),
(68,1198,o),
(112,1191,o),
(157,1186,cs),
(240,1177,o),
(247,1087,o),
(247,974,cs),
(247,535,ls),
(247,432,o),
(237,321,o),
(154,312,cs),
(109,307,o),
(65,301,o),
(65,247,cs),
(65,165,o),
(82,15,o),
(123,-13,c),
(288,-2,o),
(439,0,o),
(605,0,cs),
(848,0,o),
(1106,8,o),
(1332,-13,c),
(1362,-13,o),
(1407,87,o),
(1420,127,cs),
(1456,233,o),
(1499,404,o),
(1499,473,cs),
(1499,487,o),
(1498,499,o),
(1494,507,cs),
(1469,550,o),
(1361,586,o),
(1298,586,cs),
(1287,586,o),
(1277,585,o),
(1269,582,c),
(1184,383,o),
(1100,224,o),
(943,194,c),
(855,194,ls),
(819,194,o),
(812,288,o),
(812,378,cs),
(812,641,l),
(835,676,o),
(864,690,o),
(894,690,cs),
(958,690,o),
(1029,646,o),
(1076,593,c),
(1172,593,o),
(1262,672,o),
(1262,782,cs),
(1262,872,o),
(1200,968,o),
(1084,968,cs),
(973,968,o),
(887,908,o),
(812,819,c),
(812,1037,ls),
(812,1272,o),
(845,1276,o),
(912,1276,cs),
(1085,1276,o),
(1223,1033,o),
(1248,1033,cs),
(1306,1033,o),
(1428,1056,o),
(1428,1137,cs),
(1428,1241,o),
(1361,1430,o),
(1322,1503,c),
(1135,1493,o),
(934,1489,o),
(732,1489,cs),
(526,1489,o),
(319,1493,o),
(126,1503,c)
);
}
);
};
layerId = "5152A785-FF48-4BC0-8F27-F3AFCF9810FE";
shapes = (
{
ref = E;
},
{
pos = (592,422);
ref = acutecomb;
}
);
width = 1513;
}
);
note = Eacute;
unicode = 201;
},
{
glyphname = Ecaron;
lastChange = "2026-02-05 15:38:49 +0000";
layers = (
{
background = {
shapes = (
{
closed = 1;
nodes = (
(769,1614,l),
(856,1703,o),
(992,1865,o),
(1021,1902,cs),
(1070,1964,o),
(1108,1999,o),
(1108,2029,cs),
(1108,2071,o),
(1089,2090,o),
(1031,2090,cs),
(962,2090,o),
(943,2065,o),
(905,2017,cs),
(724,1786,l),
(543,2017,ls),
(505,2065,o),
(486,2090,o),
(417,2090,cs),
(352,2090,o),
(330,2071,o),
(330,2029,cs),
(330,1999,o),
(368,1964,o),
(417,1902,cs),
(446,1865,o),
(581,1703,o),
(669,1614,c)
);
},
{
closed = 1;
nodes = (
(74,1481,o),
(60,1398,o),
(60,1344,cs),
(60,1299,o),
(128,1292,o),
(172,1292,cs),
(229,1292,o),
(235,1262,o),
(235,1229,cs),
(235,263,ls),
(235,230,o),
(229,200,o),
(172,200,cs),
(118,200,o),
(60,187,o),
(60,152,cs),
(60,95,o),
(73,12,o),
(113,-11,c),
(294,-2,o),
(473,0,o),
(651,0,cs),
(916,0,o),
(1098,-5,o),
(1199,-11,c),
(1227,11,o),
(1327,408,o),
(1327,456,cs),
(1327,472,o),
(1292,537,o),
(1184,537,cs),
(1140,537,o),
(1085,249,o),
(1055,178,c),
(888,178,o),
(708,179,o),
(500,179,cs),
(467,179,o),
(466,214,o),
(466,244,cs),
(466,746,l),
(499,750,o),
(532,753,o),
(563,753,cs),
(643,753,o),
(713,733,o),
(769,662,c),
(836,662,o),
(898,717,o),
(898,793,cs),
(898,887,o),
(840,921,o),
(766,921,cs),
(666,921,o),
(537,894,o),
(466,869,c),
(466,1246,ls),
(466,1275,o),
(467,1310,o),
(500,1310,cs),
(692,1310,o),
(860,1311,o),
(1015,1311,c),
(1039,1248,o),
(1079,992,o),
(1114,992,cs),
(1222,992,o),
(1257,1057,o),
(1257,1073,cs),
(1257,1116,o),
(1173,1482,o),
(1149,1503,c),
(1068,1501,o),
(864,1490,o),
(651,1490,cs),
(442,1490,o),
(267,1498,o),
(113,1503,c)
);
}
);
};
layerId = m01;
shapes = (
{
ref = E;
},
{
pos = (202,422);
ref = caroncomb;
}
);
width = 1324;
},
{
background = {
shapes = (
{
closed = 1;
nodes = (
(799,1618,l),
(896,1707,o),
(1049,1869,o),
(1080,1907,cs),
(1130,1968,o),
(1168,2003,o),
(1168,2033,cs),
(1168,2075,o),
(1132,2094,o),
(1031,2094,cs),
(947,2094,o),
(922,2069,o),
(875,2021,c),
(724,1830,l),
(573,2021,l),
(526,2069,o),
(501,2094,o),
(417,2094,cs),
(316,2094,o),
(280,2075,o),
(280,2033,cs),
(280,2003,o),
(318,1968,o),
(368,1907,cs),
(399,1869,o),
(552,1707,o),
(649,1618,c)
);
},
{
closed = 1;
nodes = (
(85,1476,o),
(68,1331,o),
(68,1252,cs),
(68,1198,o),
(112,1191,o),
(157,1186,cs),
(240,1177,o),
(247,1087,o),
(247,974,cs),
(247,535,ls),
(247,432,o),
(237,321,o),
(154,312,cs),
(109,307,o),
(65,301,o),
(65,247,cs),
(65,165,o),
(82,15,o),
(123,-13,c),
(288,-2,o),
(439,0,o),
(605,0,cs),
(848,0,o),
(1106,8,o),
(1332,-13,c),
(1362,-13,o),
(1407,87,o),
(1420,127,cs),
(1456,233,o),
(1499,404,o),
(1499,473,cs),
(1499,487,o),
(1498,499,o),
(1494,507,cs),
(1469,550,o),
(1361,586,o),
(1298,586,cs),
(1287,586,o),
(1277,585,o),
(1269,582,c),
(1184,383,o),
(1100,224,o),
(943,194,c),
(855,194,ls),
(819,194,o),
(812,288,o),
(812,378,cs),
(812,641,l),
(835,676,o),
(864,690,o),
(894,690,cs),
(958,690,o),
(1029,646,o),
(1076,593,c),
(1172,593,o),
(1262,672,o),
(1262,782,cs),
(1262,872,o),
(1200,968,o),
(1084,968,cs),
(973,968,o),
(887,908,o),
(812,819,c),
(812,1037,ls),
(812,1272,o),
(845,1276,o),
(912,1276,cs),
(1085,1276,o),
(1223,1033,o),
(1248,1033,cs),
(1306,1033,o),
(1428,1056,o),
(1428,1137,cs),
(1428,1241,o),
(1361,1430,o),
(1322,1503,c),
(1135,1493,o),
(934,1489,o),
(732,1489,cs),
(526,1489,o),
(319,1493,o),
(126,1503,c)
);
}
);
};
layerId = "5152A785-FF48-4BC0-8F27-F3AFCF9810FE";
shapes = (
{
ref = E;
},
{
pos = (237,422);
ref = caroncomb;
}
);
width = 1513;
}
);
note = Ecaron;
unicode = 282;
},
{
glyphname = Ecircumflex;
lastChange = "2026-02-05 15:41:33 +0000";
layers = (
{
background = {
shapes = (
{
closed = 1;
nodes = (
(653,2090,l),
(565,2001,o),
(430,1839,o),
(401,1802,cs),
(352,1740,o),
(314,1705,o),
(314,1675,cs),
(314,1633,o),
(336,1614,o),
(401,1614,cs),
(470,1614,o),
(489,1639,o),
(527,1687,cs),
(708,1918,l),
(889,1687,ls),
(927,1639,o),
(946,1614,o),
(1015,1614,cs),
(1073,1614,o),
(1092,1633,o),
(1092,1675,cs),
(1092,1705,o),
(1054,1740,o),
(1005,1802,cs),
(976,1839,o),
(840,2001,o),
(753,2090,c)
);
},
{
closed = 1;
nodes = (
(74,1481,o),
(60,1398,o),
(60,1344,cs),
(60,1299,o),
(128,1292,o),
(172,1292,cs),
(229,1292,o),
(235,1262,o),
(235,1229,cs),
(235,263,ls),
(235,230,o),
(229,200,o),
(172,200,cs),
(118,200,o),
(60,187,o),
(60,152,cs),
(60,95,o),
(73,12,o),
(113,-11,c),
(294,-2,o),
(473,0,o),
(651,0,cs),
(916,0,o),
(1098,-5,o),
(1199,-11,c),
(1227,11,o),
(1327,408,o),
(1327,456,cs),
(1327,472,o),
(1292,537,o),
(1184,537,cs),
(1140,537,o),
(1085,249,o),
(1055,178,c),
(888,178,o),
(708,179,o),
(500,179,cs),
(467,179,o),
(466,214,o),
(466,244,cs),
(466,746,l),
(499,750,o),
(532,753,o),
(563,753,cs),
(643,753,o),
(713,733,o),
(769,662,c),
(836,662,o),
(898,717,o),
(898,793,cs),
(898,887,o),
(840,921,o),
(766,921,cs),
(666,921,o),
(537,894,o),
(466,869,c),
(466,1246,ls),
(466,1275,o),
(467,1310,o),
(500,1310,cs),
(692,1310,o),
(860,1311,o),
(1015,1311,c),
(1039,1248,o),
(1079,992,o),
(1114,992,cs),
(1222,992,o),
(1257,1057,o),
(1257,1073,cs),
(1257,1116,o),
(1173,1482,o),
(1149,1503,c),
(1068,1501,o),
(864,1490,o),
(651,1490,cs),
(442,1490,o),
(267,1498,o),
(113,1503,c)
);
}
);
};
layerId = m01;
shapes = (
{
ref = E;
},
{
pos = (202,422);
ref = circumflexcomb;
}
);
width = 1324;
},
{
background = {
shapes = (
{
closed = 1;
nodes = (
(649,2094,l),
(552,2005,o),
(399,1843,o),
(368,1805,cs),
(318,1744,o),
(280,1709,o),
(280,1679,cs),
(280,1637,o),
(316,1618,o),
(417,1618,cs),
(501,1618,o),
(526,1643,o),
(573,1691,c),
(724,1882,l),
(875,1691,l),
(922,1643,o),
(947,1618,o),
(1031,1618,cs),
(1132,1618,o),
(1168,1637,o),
(1168,1679,cs),
(1168,1709,o),
(1130,1744,o),
(1080,1805,cs),
(1049,1843,o),
(896,2005,o),
(799,2094,c)
);
},
{
closed = 1;
nodes = (
(85,1476,o),
(68,1331,o),
(68,1252,cs),
(68,1198,o),
(112,1191,o),
(157,1186,cs),
(240,1177,o),
(247,1087,o),
(247,974,cs),
(247,535,ls),
(247,432,o),
(237,321,o),
(154,312,cs),
(109,307,o),
(65,301,o),
(65,247,cs),
(65,165,o),
(82,15,o),
(123,-13,c),
(288,-2,o),
(439,0,o),
(605,0,cs),
(848,0,o),
(1106,8,o),
(1332,-13,c),
(1362,-13,o),
(1407,87,o),
(1420,127,cs),
(1456,233,o),
(1499,404,o),
(1499,473,cs),
(1499,487,o),
(1498,499,o),
(1494,507,cs),
(1469,550,o),
(1361,586,o),
(1298,586,cs),
(1287,586,o),
(1277,585,o),
(1269,582,c),
(1184,383,o),
(1100,224,o),
(943,194,c),
(855,194,ls),
(819,194,o),
(812,288,o),
(812,378,cs),
(812,641,l),
(835,676,o),
(864,690,o),
(894,690,cs),
(958,690,o),
(1029,646,o),
(1076,593,c),
(1172,593,o),
(1262,672,o),
(1262,782,cs),
(1262,872,o),
(1200,968,o),
(1084,968,cs),
(973,968,o),
(887,908,o),
(812,819,c),
(812,1037,ls),
(812,1272,o),
(845,1276,o),
(912,1276,cs),
(1085,1276,o),
(1223,1033,o),
(1248,1033,cs),
(1306,1033,o),
(1428,1056,o),
(1428,1137,cs),
(1428,1241,o),
(1361,1430,o),
(1322,1503,c),
(1135,1493,o),
(934,1489,o),
(732,1489,cs),
(526,1489,o),
(319,1493,o),
(126,1503,c)
);
}
);
};
layerId = "5152A785-FF48-4BC0-8F27-F3AFCF9810FE";
shapes = (
{
ref = E;
},
{
pos = (230,422);
ref = circumflexcomb;
}
);
width = 1513;
}
);
note = Ecircumflex;
unicode = 202;
},
{
glyphname = Edieresis;
lastChange = "2026-02-05 15:38:49 +0000";
layers = (
{
background = {
shapes = (
{
closed = 1;
nodes = (
(186,1681,o),
(232,1614,o),
(338,1614,cs),
(442,1614,o),
(485,1683,o),
(485,1750,cs),
(485,1818,o),
(442,1886,o),
(338,1886,cs),
(232,1886,o),
(186,1820,o),
(186,1750,cs)
);
},
{
closed = 1;
nodes = (
(776,1681,o),
(822,1614,o),
(928,1614,cs),
(1033,1614,o),
(1075,1683,o),
(1075,1750,cs),
(1075,1818,o),
(1033,1886,o),
(928,1886,cs),
(822,1886,o),
(776,1820,o),
(776,1750,cs)
);
},
{
closed = 1;
nodes = (
(74,1481,o),
(60,1398,o),
(60,1344,cs),
(60,1299,o),
(128,1292,o),
(172,1292,cs),
(229,1292,o),
(235,1262,o),
(235,1229,cs),
(235,263,ls),
(235,230,o),
(229,200,o),
(172,200,cs),
(118,200,o),
(60,187,o),
(60,152,cs),
(60,95,o),
(73,12,o),
(113,-11,c),
(294,-2,o),
(473,0,o),
(651,0,cs),
(916,0,o),
(1098,-5,o),
(1199,-11,c),
(1227,11,o),
(1327,408,o),
(1327,456,cs),
(1327,472,o),
(1292,537,o),
(1184,537,cs),
(1140,537,o),
(1085,249,o),
(1055,178,c),
(888,178,o),
(708,179,o),
(500,179,cs),
(467,179,o),
(466,214,o),
(466,244,cs),
(466,746,l),
(499,750,o),
(532,753,o),
(563,753,cs),
(643,753,o),
(713,733,o),
(769,662,c),
(836,662,o),
(898,717,o),
(898,793,cs),
(898,887,o),
(840,921,o),
(766,921,cs),
(666,921,o),
(537,894,o),
(466,869,c),
(466,1246,ls),
(466,1275,o),
(467,1310,o),
(500,1310,cs),
(692,1310,o),
(860,1311,o),
(1015,1311,c),
(1039,1248,o),
(1079,992,o),
(1114,992,cs),
(1222,992,o),
(1257,1057,o),
(1257,1073,cs),
(1257,1116,o),
(1173,1482,o),
(1149,1503,c),
(1068,1501,o),
(864,1490,o),
(651,1490,cs),
(442,1490,o),
(267,1498,o),
(113,1503,c)
);
}
);
};
layerId = m01;
shapes = (
{
ref = E;
},
{
pos = (174,422);
ref = dieresiscomb;
}
);
width = 1324;
},
{
background = {
shapes = (
{
closed = 1;
nodes = (
(271,1708,o),
(333,1618,o),
(476,1618,cs),
(617,1618,o),
(674,1711,o),
(674,1802,cs),
(674,1893,o),
(617,1985,o),
(476,1985,cs),
(333,1985,o),
(271,1896,o),
(271,1802,cs)
);
},
{
closed = 1;
nodes = (
(784,1708,o),
(846,1618,o),
(989,1618,cs),
(1130,1618,o),
(1187,1711,o),
(1187,1802,cs),
(1187,1893,o),
(1130,1985,o),
(989,1985,cs),
(846,1985,o),
(784,1896,o),
(784,1802,cs)
);
},
{
closed = 1;
nodes = (
(85,1476,o),
(68,1331,o),
(68,1252,cs),
(68,1198,o),
(112,1191,o),
(157,1186,cs),
(240,1177,o),
(247,1087,o),
(247,974,cs),
(247,535,ls),
(247,432,o),
(237,321,o),
(154,312,cs),
(109,307,o),
(65,301,o),
(65,247,cs),
(65,165,o),
(82,15,o),
(123,-13,c),
(288,-2,o),
(439,0,o),
(605,0,cs),
(848,0,o),
(1106,8,o),
(1332,-13,c),
(1362,-13,o),
(1407,87,o),
(1420,127,cs),
(1456,233,o),
(1499,404,o),
(1499,473,cs),
(1499,487,o),
(1498,499,o),
(1494,507,cs),
(1469,550,o),
(1361,586,o),
(1298,586,cs),
(1287,586,o),
(1277,585,o),
(1269,582,c),
(1184,383,o),
(1100,224,o),
(943,194,c),
(855,194,ls),
(819,194,o),
(812,288,o),
(812,378,cs),
(812,641,l),
(835,676,o),
(864,690,o),
(894,690,cs),
(958,690,o),
(1029,646,o),
(1076,593,c),
(1172,593,o),
(1262,672,o),
(1262,782,cs),
(1262,872,o),
(1200,968,o),
(1084,968,cs),
(973,968,o),
(887,908,o),
(812,819,c),
(812,1037,ls),
(812,1272,o),
(845,1276,o),
(912,1276,cs),
(1085,1276,o),
(1223,1033,o),
(1248,1033,cs),
(1306,1033,o),
(1428,1056,o),
(1428,1137,cs),
(1428,1241,o),
(1361,1430,o),
(1322,1503,c),
(1135,1493,o),
(934,1489,o),
(732,1489,cs),
(526,1489,o),
(319,1493,o),
(126,1503,c)
);
}
);
};
layerId = "5152A785-FF48-4BC0-8F27-F3AFCF9810FE";
shapes = (
{
ref = E;
},
{
pos = (224,422);
ref = dieresiscomb;
}
);
width = 1513;
}
);
note = Edieresis;
unicode = 203;
},
{
glyphname = Egrave;
lastChange = "2026-02-05 15:53:19 +0000";
layers = (
{
background = {
shapes = (
{
closed = 1;
nodes = (
(686,1614,l),
(629,1698,o),
(484,1918,o),
(434,1997,cs),
(390,2067,o),
(358,2090,o),
(263,2090,cs),
(155,2090,o),
(116,2071,o),
(116,2029,cs),
(116,1999,o),
(170,1966,o),
(234,1903,cs),
(272,1866,o),
(459,1703,o),
(575,1614,c)
);
},
{
closed = 1;
nodes = (
(74,1481,o),
(60,1398,o),
(60,1344,cs),
(60,1299,o),
(128,1292,o),
(172,1292,cs),
(229,1292,o),
(235,1262,o),
(235,1229,cs),
(235,263,ls),
(235,230,o),
(229,200,o),
(172,200,cs),
(118,200,o),
(60,187,o),
(60,152,cs),
(60,95,o),
(73,12,o),
(113,-11,c),
(294,-2,o),
(473,0,o),
(651,0,cs),
(916,0,o),
(1098,-5,o),
(1199,-11,c),
(1227,11,o),
(1327,408,o),
(1327,456,cs),
(1327,472,o),
(1292,537,o),
(1184,537,cs),
(1140,537,o),
(1085,249,o),
(1055,178,c),
(888,178,o),
(708,179,o),
(500,179,cs),
(467,179,o),
(466,214,o),
(466,244,cs),
(466,746,l),
(499,750,o),
(532,753,o),
(563,753,cs),
(643,753,o),
(713,733,o),
(769,662,c),
(836,662,o),
(898,717,o),
(898,793,cs),
(898,887,o),
(840,921,o),
(766,921,cs),
(666,921,o),
(537,894,o),
(466,869,c),
(466,1246,ls),
(466,1275,o),
(467,1310,o),
(500,1310,cs),
(692,1310,o),
(860,1311,o),
(1015,1311,c),
(1039,1248,o),
(1079,992,o),
(1114,992,cs),
(1222,992,o),
(1257,1057,o),
(1257,1073,cs),
(1257,1116,o),
(1173,1482,o),
(1149,1503,c),
(1068,1501,o),
(864,1490,o),
(651,1490,cs),
(442,1490,o),
(267,1498,o),
(113,1503,c)
);
}
);
};
layerId = m01;
shapes = (
{
ref = E;
},
{
pos = (106,422);
ref = gravecomb;
}
);
width = 1324;
},
{
background = {
shapes = (
{
closed = 1;
nodes = (
(799,1618,l),
(750,1702,o),
(634,1925,o),
(587,2001,cs),
(542,2074,o),
(503,2094,o),
(396,2094,cs),
(281,2094,o),
(239,2075,o),
(239,2033,cs),
(239,2003,o),
(288,1970,o),
(347,1907,cs),
(381,1870,o),
(544,1707,o),
(648,1618,c)
);
},
{
closed = 1;
nodes = (
(85,1476,o),
(68,1331,o),
(68,1252,cs),
(68,1198,o),
(112,1191,o),
(157,1186,cs),
(240,1177,o),
(247,1087,o),
(247,974,cs),
(247,535,ls),
(247,432,o),
(237,321,o),
(154,312,cs),
(109,307,o),
(65,301,o),
(65,247,cs),
(65,165,o),
(82,15,o),
(123,-13,c),
(288,-2,o),
(439,0,o),
(605,0,cs),
(848,0,o),
(1106,8,o),
(1332,-13,c),
(1362,-13,o),
(1407,87,o),
(1420,127,cs),
(1456,233,o),
(1499,404,o),
(1499,473,cs),
(1499,487,o),
(1498,499,o),
(1494,507,cs),
(1469,550,o),
(1361,586,o),
(1298,586,cs),
(1287,586,o),
(1277,585,o),
(1269,582,c),
(1184,383,o),
(1100,224,o),
(943,194,c),
(855,194,ls),
(819,194,o),
(812,288,o),
(812,378,cs),
(812,641,l),
(835,676,o),
(864,690,o),
(894,690,cs),
(958,690,o),
(1029,646,o),
(1076,593,c),
(1172,593,o),
(1262,672,o),
(1262,782,cs),
(1262,872,o),
(1200,968,o),
(1084,968,cs),
(973,968,o),
(887,908,o),
(812,819,c),
(812,1037,ls),
(812,1272,o),
(845,1276,o),
(912,1276,cs),
(1085,1276,o),
(1223,1033,o),
(1248,1033,cs),
(1306,1033,o),
(1428,1056,o),
(1428,1137,cs),
(1428,1241,o),
(1361,1430,o),
(1322,1503,c),
(1135,1493,o),
(934,1489,o),
(732,1489,cs),
(526,1489,o),
(319,1493,o),
(126,1503,c)
);
}
);
};
layerId = "5152A785-FF48-4BC0-8F27-F3AFCF9810FE";
shapes = (
{
ref = E;
},
{
pos = (111,422);
ref = gravecomb;
}
);
width = 1513;
}
);
note = Egrave;
unicode = 200;
},
{
glyphname = Emacron;
lastChange = "2026-02-05 15:38:49 +0000";
layers = (
{
background = {
shapes = (
{
closed = 1;
nodes = (
(947,1614,ls),
(986,1614,o),
(994,1659,o),
(994,1698,cs),
(994,1750,o),
(979,1763,o),
(946,1763,cs),
(359,1763,ls),
(324,1763,o),
(313,1730,o),
(313,1686,cs),
(313,1651,o),
(319,1614,o),
(351,1614,cs)
);
},
{
closed = 1;
nodes = (
(74,1481,o),
(60,1398,o),
(60,1344,cs),
(60,1299,o),
(128,1292,o),
(172,1292,cs),
(229,1292,o),
(235,1262,o),
(235,1229,cs),
(235,263,ls),
(235,230,o),
(229,200,o),
(172,200,cs),
(118,200,o),
(60,187,o),
(60,152,cs),
(60,95,o),
(73,12,o),
(113,-11,c),
(294,-2,o),
(473,0,o),
(651,0,cs),
(916,0,o),
(1098,-5,o),
(1199,-11,c),
(1227,11,o),
(1327,408,o),
(1327,456,cs),
(1327,472,o),
(1292,537,o),
(1184,537,cs),
(1140,537,o),
(1085,249,o),
(1055,178,c),
(888,178,o),
(708,179,o),
(500,179,cs),
(467,179,o),
(466,214,o),
(466,244,cs),
(466,746,l),
(499,750,o),
(532,753,o),
(563,753,cs),
(643,753,o),
(713,733,o),
(769,662,c),
(836,662,o),
(898,717,o),
(898,793,cs),
(898,887,o),
(840,921,o),
(766,921,cs),
(666,921,o),
(537,894,o),
(466,869,c),
(466,1246,ls),
(466,1275,o),
(467,1310,o),
(500,1310,cs),
(692,1310,o),
(860,1311,o),
(1015,1311,c),
(1039,1248,o),
(1079,992,o),
(1114,992,cs),
(1222,992,o),
(1257,1057,o),
(1257,1073,cs),
(1257,1116,o),
(1173,1482,o),
(1149,1503,c),
(1068,1501,o),
(864,1490,o),
(651,1490,cs),
(442,1490,o),
(267,1498,o),
(113,1503,c)
);
}
);
};
layerId = m01;
shapes = (
{
ref = E;
},
{
pos = (255,422);
ref = macroncomb;
}
);
width = 1324;
},
{
background = {
shapes = (
{
closed = 1;
nodes = (
(462,1620,o),
(542,1618,o),
(623,1618,cs),
(757,1618,o),
(919,1619,o),
(1052,1619,cs),
(1092,1619,o),
(1099,1699,o),
(1099,1764,cs),
(1099,1872,o),
(1084,1899,o),
(1051,1899,cs),
(815,1899,ls),
(656,1899,o),
(519,1902,o),
(394,1902,cs),
(359,1902,o),
(348,1837,o),
(348,1752,cs),
(348,1687,o),
(354,1620,o),
(386,1620,cs)
);
},
{
closed = 1;
nodes = (
(85,1476,o),
(68,1331,o),
(68,1252,cs),
(68,1198,o),
(112,1191,o),
(157,1186,cs),
(240,1177,o),
(247,1087,o),
(247,974,cs),
(247,535,ls),
(247,432,o),
(237,321,o),
(154,312,cs),
(109,307,o),
(65,301,o),
(65,247,cs),
(65,165,o),
(82,15,o),
(123,-13,c),
(288,-2,o),
(439,0,o),
(605,0,cs),
(848,0,o),
(1106,8,o),
(1332,-13,c),
(1362,-13,o),
(1407,87,o),
(1420,127,cs),
(1456,233,o),
(1499,404,o),
(1499,473,cs),
(1499,487,o),
(1498,499,o),
(1494,507,cs),
(1469,550,o),
(1361,586,o),
(1298,586,cs),
(1287,586,o),
(1277,585,o),
(1269,582,c),
(1184,383,o),
(1100,224,o),
(943,194,c),
(855,194,ls),
(819,194,o),
(812,288,o),
(812,378,cs),
(812,641,l),
(835,676,o),
(864,690,o),
(894,690,cs),
(958,690,o),
(1029,646,o),
(1076,593,c),
(1172,593,o),
(1262,672,o),
(1262,782,cs),
(1262,872,o),
(1200,968,o),
(1084,968,cs),
(973,968,o),
(887,908,o),
(812,819,c),
(812,1037,ls),
(812,1272,o),
(845,1276,o),
(912,1276,cs),
(1085,1276,o),
(1223,1033,o),
(1248,1033,cs),
(1306,1033,o),
(1428,1056,o),
(1428,1137,cs),
(1428,1241,o),
(1361,1430,o),
(1322,1503,c),
(1135,1493,o),
(934,1489,o),
(732,1489,cs),
(526,1489,o),
(319,1493,o),
(126,1503,c)
);
}
);
};
layerId = "5152A785-FF48-4BC0-8F27-F3AFCF9810FE";
shapes = (
{
ref = E;
},
{
pos = (299,422);
ref = macroncomb;
}
);
width = 1513;
}
);
note = Emacron;
unicode = 274;
},
{
glyphname = Eogonek;
lastChange = "2026-02-05 15:44:38 +0000";
layers = (
{
anchors = (
{
name = top;
pos = (662,1489);
}
);
background = {
shapes = (
{
closed = 1;
nodes = (
(1228,-265,l),
(1190,-282,o),
(1134,-300,o),
(1088,-300,cs),
(1045,-300,o),
(1011,-280,o),
(1011,-217,cs),
(1011,-149,o),
(1066,-52,o),
(1159,-6,c),
(1159,94,l),
(953,8,o),
(846,-142,o),
(846,-260,cs),
(846,-391,o),
(939,-455,o),
(1072,-455,cs),
(1131,-455,o),
(1201,-439,o),
(1272,-408,c)
);
},
{
closed = 1;
nodes = (
(74,1481,o),
(60,1398,o),
(60,1344,cs),
(60,1299,o),
(128,1292,o),
(172,1292,cs),
(229,1292,o),
(235,1262,o),
(235,1229,cs),
(235,263,ls),
(235,230,o),
(229,200,o),
(172,200,cs),
(118,200,o),
(60,187,o),
(60,152,cs),
(60,95,o),
(73,12,o),
(113,-11,c),
(294,-2,o),
(473,0,o),
(651,0,cs),
(916,0,o),
(1098,-5,o),
(1199,-11,c),
(1227,11,o),
(1327,408,o),
(1327,456,cs),
(1327,472,o),
(1292,537,o),
(1184,537,cs),
(1140,537,o),
(1085,249,o),
(1055,178,c),
(888,178,o),
(708,179,o),
(500,179,cs),
(467,179,o),
(466,214,o),
(466,244,cs),
(466,746,l),
(499,750,o),
(532,753,o),
(563,753,cs),
(643,753,o),
(713,733,o),
(769,662,c),
(836,662,o),
(898,717,o),
(898,793,cs),
(898,887,o),
(840,921,o),
(766,921,cs),
(666,921,o),
(537,894,o),
(466,869,c),
(466,1246,ls),
(466,1275,o),
(467,1310,o),
(500,1310,cs),
(692,1310,o),
(860,1311,o),
(1015,1311,c),
(1039,1248,o),
(1079,992,o),
(1114,992,cs),
(1222,992,o),
(1257,1057,o),
(1257,1073,cs),
(1257,1116,o),
(1173,1482,o),
(1149,1503,c),
(1068,1501,o),
(864,1490,o),
(651,1490,cs),
(442,1490,o),
(267,1498,o),
(113,1503,c)
);
}
);
};
layerId = m01;
shapes = (
{
ref = E;
},
{
pos = (761,-10);
ref = ogonekcomb;
}
);
width = 1324;
},
{
anchors = (
{
name = top;
pos = (757,1489);
}
);
background = {
shapes = (
{
closed = 1;
nodes = (
(1408,-235,l),
(1376,-252,o),
(1328,-270,o),
(1288,-270,cs),
(1245,-270,o),
(1211,-250,o),
(1211,-187,cs),
(1211,-125,o),
(1258,-38,o),
(1339,4,c),
(1339,104,l),
(1133,18,o),
(1026,-132,o),
(1026,-250,cs),
(1026,-381,o),
(1119,-445,o),
(1252,-445,cs),
(1317,-445,o),
(1393,-429,o),
(1472,-398,c)
);
},
{
closed = 1;
nodes = (
(85,1476,o),
(68,1331,o),
(68,1252,cs),
(68,1198,o),
(112,1191,o),
(157,1186,cs),
(240,1177,o),
(247,1087,o),
(247,974,cs),
(247,535,ls),
(247,432,o),
(237,321,o),
(154,312,cs),
(109,307,o),
(65,301,o),
(65,247,cs),
(65,165,o),
(82,15,o),
(123,-13,c),
(288,-2,o),
(439,0,o),
(605,0,cs),
(848,0,o),
(1106,8,o),
(1332,-13,c),
(1362,-13,o),
(1407,87,o),
(1420,127,cs),
(1456,233,o),
(1499,404,o),
(1499,473,cs),
(1499,487,o),
(1498,499,o),
(1494,507,cs),
(1469,550,o),
(1361,586,o),
(1298,586,cs),
(1287,586,o),
(1277,585,o),
(1269,582,c),
(1184,383,o),
(1100,224,o),
(943,194,c),
(855,194,ls),
(819,194,o),
(812,288,o),
(812,378,cs),
(812,641,l),
(835,676,o),
(864,690,o),
(894,690,cs),
(958,690,o),
(1029,646,o),
(1076,593,c),
(1172,593,o),
(1262,672,o),
(1262,782,cs),
(1262,872,o),
(1200,968,o),
(1084,968,cs),
(973,968,o),
(887,908,o),
(812,819,c),
(812,1037,ls),
(812,1272,o),
(845,1276,o),
(912,1276,cs),
(1085,1276,o),
(1223,1033,o),
(1248,1033,cs),
(1306,1033,o),
(1428,1056,o),
(1428,1137,cs),
(1428,1241,o),
(1361,1430,o),
(1322,1503,c),
(1135,1493,o),
(934,1489,o),
(732,1489,cs),
(526,1489,o),
(319,1493,o),
(126,1503,c)
);
}
);
};
layerId = "5152A785-FF48-4BC0-8F27-F3AFCF9810FE";
shapes = (
{
ref = E;
},
{
pos = (931,6);
ref = ogonekcomb;
}
);
width = 1513;
}
);
note = Eogonek;
unicode = 280;
},
{
glyphname = F;
kernRight = F;
lastChange = "2026-02-05 15:40:54 +0000";
layers = (
{
anchors = (
{
name = bottom;
pos = (622,0);
},
{
name = top;
pos = (622,1489);
}
);
background = {
shapes = (
{
closed = 1;
nodes = (
(74,1481,o),
(60,1398,o),
(60,1344,cs),
(60,1299,o),
(128,1292,o),
(172,1292,cs),
(229,1292,o),
(235,1262,o),
(235,1229,cs),
(235,263,ls),
(235,230,o),
(229,200,o),
(172,200,cs),
(118,200,o),
(60,187,o),
(60,152,cs),
(60,95,o),
(73,12,o),
(113,-11,c),
(177,-6,o),
(263,0,o),
(352,0,cs),
(446,0,o),
(534,-6,o),
(599,-11,c),
(632,12,o),
(642,95,o),
(642,152,cs),
(642,187,o),
(584,200,o),
(530,200,cs),
(467,200,o),
(466,235,o),
(466,265,cs),
(466,745,l),
(515,756,o),
(567,762,o),
(613,762,cs),
(687,762,o),
(751,732,o),
(799,670,c),
(866,670,o),
(928,725,o),
(928,801,cs),
(928,895,o),
(858,929,o),
(766,929,cs),
(666,929,o),
(537,902,o),
(466,877,c),
(466,1286,ls),
(466,1297,o),
(467,1310,o),
(500,1310,cs),
(672,1310,o),
(825,1311,o),
(965,1311,c),
(997,1252,o),
(1057,1012,o),
(1104,1012,cs),
(1212,1012,o),
(1247,1077,o),
(1247,1093,cs),
(1247,1135,o),
(1131,1482,o),
(1099,1503,c),
(1022,1498,o),
(876,1490,o),
(671,1490,cs),
(417,1490,o),
(209,1493,o),
(113,1503,c)
);
}
);
};
hints = (
{
horizontal = 1;
origin = (0,24);
target = (0,30);
type = Stem;
},
{
horizontal = 1;
origin = (0,71);
target = (0,53);
type = Stem;
},
{
horizontal = 1;
origin = (0,37);
target = (0,46);
type = Stem;
},
{
horizontal = 1;
origin = (0,71);
target = (0,5);
type = Stem;
},
{
horizontal = 1;
origin = (0,40);
target = (0,46);
type = Stem;
},
{
origin = (0,9);
target = (0,50);
type = Stem;
}
);
layerId = m01;
shapes = (
{
closed = 1;
nodes = (
(74,1481,o),
(60,1398,o),
(60,1344,cs),
(60,1299,o),
(128,1292,o),
(172,1292,cs),
(229,1292,o),
(235,1262,o),
(235,1229,cs),
(235,263,ls),
(235,230,o),
(229,200,o),
(172,200,cs),
(118,200,o),
(60,187,o),
(60,152,cs),
(60,95,o),
(73,12,o),
(113,-11,c),
(177,-6,o),
(263,0,o),
(352,0,cs),
(446,0,o),
(534,-6,o),
(599,-11,c),
(632,12,o),
(642,95,o),
(642,152,cs),
(642,187,o),
(584,200,o),
(530,200,cs),
(467,200,o),
(466,235,o),
(466,265,cs),
(466,745,l),
(515,756,o),
(567,762,o),
(613,762,cs),
(687,762,o),
(751,732,o),
(799,670,c),
(866,670,o),
(928,725,o),
(928,801,cs),
(928,895,o),
(858,929,o),
(766,929,cs),
(666,929,o),
(537,902,o),
(466,877,c),
(466,1286,ls),
(466,1297,o),
(467,1310,o),
(500,1310,cs),
(672,1310,o),
(825,1311,o),
(965,1311,c),
(997,1252,o),
(1057,1012,o),
(1104,1012,cs),
(1212,1012,o),
(1247,1077,o),
(1247,1093,cs),
(1247,1135,o),
(1131,1482,o),
(1099,1503,c),
(1022,1498,o),
(876,1490,o),
(671,1490,cs),
(417,1490,o),
(209,1493,o),
(113,1503,c)
);
}
);
width = 1244;
},
{
anchors = (
{
name = bottom;
pos = (704,0);
},
{
name = top;
pos = (704,1489);
}
);
background = {
anchors = (
{
name = bottom;
pos = (704,0);
},
{
name = top;
pos = (704,173);
}
);
shapes = (
{
closed = 1;
nodes = (
(85,1476,o),
(68,1331,o),
(68,1252,cs),
(68,1198,o),
(112,1191,o),
(157,1186,cs),
(240,1177,o),
(247,1087,o),
(247,974,cs),
(247,535,ls),
(247,432,o),
(237,321,o),
(154,312,cs),
(109,307,o),
(65,301,o),
(65,247,cs),
(65,165,o),
(82,15,o),
(123,-13,c),
(167,-5,o),
(332,0,o),
(495,0,cs),
(690,0,o),
(852,-8,o),
(904,-13,c),
(952,14,o),
(972,148,o),
(972,227,cs),
(972,286,o),
(925,289,o),
(885,296,c),
(817,303,o),
(812,475,o),
(812,603,cs),
(812,681,l),
(835,716,o),
(864,730,o),
(894,730,cs),
(958,730,o),
(1029,686,o),
(1076,633,c),
(1172,633,o),
(1262,712,o),
(1262,822,cs),
(1262,912,o),
(1200,1008,o),
(1084,1008,cs),
(977,1008,o),
(884,939,o),
(812,850,c),
(812,1037,ls),
(812,1272,o),
(842,1276,o),
(902,1276,cs),
(1052,1276,o),
(1139,1182,o),
(1206,1063,c),
(1222,1038,o),
(1228,1033,o),
(1238,1033,cs),
(1296,1033,o),
(1418,1056,o),
(1418,1137,cs),
(1418,1241,o),
(1351,1430,o),
(1312,1503,c),
(1168,1492,o),
(962,1489,o),
(755,1489,cs),
(515,1489,o),
(273,1494,o),
(126,1503,c)
);
}
);
};
hints = (
{
horizontal = 1;
origin = (0,24);
target = up;
type = BottomGhost;
},
{
horizontal = 1;
origin = (0,40);
target = (0,46);
type = Stem;
},
{
horizontal = 1;
origin = (0,71);
target = (0,53);
type = Stem;
},
{
origin = (0,9);
target = (0,50);
type = Stem;
}
);
layerId = "5152A785-FF48-4BC0-8F27-F3AFCF9810FE";
shapes = (
{
closed = 1;
nodes = (
(85,1476,o),
(68,1331,o),
(68,1252,cs),
(68,1198,o),
(112,1191,o),
(157,1186,cs),
(240,1177,o),
(247,1087,o),
(247,974,cs),
(247,535,ls),
(247,432,o),
(237,321,o),
(154,312,cs),
(109,307,o),
(65,301,o),
(65,247,cs),
(65,165,o),
(82,15,o),
(123,-13,c),
(167,-5,o),
(332,0,o),
(495,0,cs),
(690,0,o),
(852,-8,o),
(904,-13,c),
(952,14,o),
(972,148,o),
(972,227,cs),
(972,286,o),
(925,289,o),
(885,296,c),
(817,303,o),
(812,475,o),
(812,603,cs),
(812,681,l),
(835,716,o),
(864,730,o),
(894,730,cs),
(958,730,o),
(1029,686,o),
(1076,633,c),
(1172,633,o),
(1262,712,o),
(1262,822,cs),
(1262,912,o),
(1200,1008,o),
(1084,1008,cs),
(977,1008,o),
(884,939,o),
(812,850,c),
(812,1037,ls),
(812,1272,o),
(842,1276,o),
(902,1276,cs),
(1052,1276,o),
(1139,1182,o),
(1206,1063,c),
(1222,1038,o),
(1228,1033,o),
(1238,1033,cs),
(1296,1033,o),
(1418,1056,o),
(1418,1137,cs),
(1418,1241,o),
(1351,1430,o),
(1312,1503,c),
(1168,1492,o),
(962,1489,o),
(755,1489,cs),
(515,1489,o),
(273,1494,o),
(126,1503,c)
);
}
);
width = 1408;
}
);
note = F;
unicode = 70;
},
{
glyphname = G;
lastChange = "2026-02-05 15:40:54 +0000";
layers = (
{
anchors = (
{
name = bottom;
pos = (808,0);
},
{
name = top;
pos = (808,1489);
}
);
background = {
shapes = (
{
closed = 1;
nodes = (
(1441,472,ls),
(1441,634,o),
(1567,555,o),
(1567,696,cs),
(1567,727,o),
(1554,776,o),
(1544,786,c),
(1522,786,o),
(1438,775,o),
(1322,775,cs),
(1246,775,o),
(1162,778,o),
(1068,786,c),
(1050,757,o),
(1035,708,o),
(1035,666,cs),
(1035,610,o),
(1040,588,o),
(1067,588,cs),
(1205,588,o),
(1220,513,o),
(1220,435,cs),
(1220,229,l),
(1096,198,o),
(964,183,o),
(843,183,cs),
(483,183,o),
(299,463,o),
(299,738,cs),
(299,1027,o),
(457,1325,o),
(776,1325,cs),
(1092,1325,o),
(1241,1014,o),
(1278,1014,cs),
(1361,1014,l),
(1396,1018,o),
(1409,1022,o),
(1409,1139,cs),
(1409,1386,ls),
(1409,1466,o),
(1385,1490,o),
(1361,1490,cs),
(1249,1490,ls),
(1210,1490,o),
(1210,1340,o),
(1210,1340,c),
(1104,1461,o),
(905,1512,o),
(759,1512,cs),
(337,1512,o),
(57,1156,o),
(57,734,cs),
(57,355,o),
(302,-27,o),
(816,-27,cs),
(961,-27,o),
(1134,11,o),
(1250,59,c),
(1283,42,o),
(1322,17,o),
(1361,17,cs),
(1388,17,o),
(1415,26,o),
(1442,53,c)
);
}
);
};
hints = (
{
horizontal = 1;
origin = (0,55);
target = (0,25);
type = Stem;
},
{
horizontal = 1;
origin = (0,18);
target = (0,12);
type = Stem;
},
{
horizontal = 1;
origin = (0,49);
target = (0,31);
type = Stem;
},
{
horizontal = 1;
origin = (0,43);
target = (0,35);
type = Stem;
},
{
origin = (0,52);
target = (0,28);
type = Stem;
},
{
origin = (0,22);
target = (0,0);
type = Stem;
},
{
origin = (0,15);
target = (0,3);
type = Stem;
},
{
origin = (0,46);
target = (0,39);
type = Stem;
}
);
layerId = m01;
shapes = (
{
closed = 1;
nodes = (
(1441,472,ls),
(1441,634,o),
(1567,555,o),
(1567,696,cs),
(1567,727,o),
(1554,776,o),
(1544,786,c),
(1522,786,o),
(1438,775,o),
(1322,775,cs),
(1246,775,o),
(1162,778,o),
(1068,786,c),
(1050,757,o),
(1035,708,o),
(1035,666,cs),
(1035,610,o),
(1040,588,o),
(1067,588,cs),
(1205,588,o),
(1220,513,o),
(1220,435,cs),
(1220,229,l),
(1096,198,o),
(964,183,o),
(843,183,cs),
(483,183,o),
(299,463,o),
(299,738,cs),
(299,1027,o),
(457,1325,o),
(776,1325,cs),
(1092,1325,o),
(1241,1014,o),
(1278,1014,cs),
(1361,1014,l),
(1396,1018,o),
(1409,1022,o),
(1409,1139,cs),
(1409,1386,ls),
(1409,1466,o),
(1385,1490,o),
(1361,1490,cs),
(1249,1490,ls),
(1210,1490,o),
(1210,1340,o),
(1210,1340,c),
(1104,1461,o),
(905,1512,o),
(759,1512,cs),
(337,1512,o),
(57,1156,o),
(57,734,cs),
(57,355,o),
(302,-27,o),
(816,-27,cs),
(961,-27,o),
(1134,11,o),
(1250,59,c),
(1283,42,o),
(1322,17,o),
(1361,17,cs),
(1388,17,o),
(1415,26,o),
(1442,53,c)
);
}
);
width = 1615;
},
{
anchors = (
{
name = bottom;
pos = (878,0);
},
{
name = top;
pos = (878,1489);
}
);
background = {
anchors = (
{
name = bottom;
pos = (878,0);
},
{
name = top;
pos = (878,173);
}
);
shapes = (
{
closed = 1;
nodes = (
(1314,73,o),
(1360,47,o),
(1420,47,cs),
(1491,47,o),
(1555,78,o),
(1602,122,c),
(1602,156,ls),
(1602,235,o),
(1594,315,o),
(1594,398,cs),
(1594,633,o),
(1725,503,o),
(1725,722,cs),
(1725,820,o),
(1665,828,o),
(1605,828,c),
(1550,821,o),
(1422,810,o),
(1284,810,cs),
(1186,810,o),
(1084,815,o),
(1007,829,c),
(983,806,o),
(943,712,o),
(943,652,cs),
(943,627,o),
(943,606,o),
(952,588,c),
(1132,576,o),
(1167,549,o),
(1167,467,cs),
(1167,401,o),
(1106,363,o),
(1027,363,cs),
(877,363,o),
(661,498,o),
(661,835,cs),
(661,1085,o),
(812,1233,o),
(976,1233,cs),
(1067,1233,o),
(1171,1207,o),
(1241,1088,c),
(1255,1068,ls),
(1290,1019,o),
(1303,1002,o),
(1348,1002,cs),
(1365,1002,o),
(1386,1004,o),
(1412,1007,cs),
(1510,1019,o),
(1556,1009,o),
(1556,1100,cs),
(1556,1113,o),
(1556,1127,o),
(1554,1144,cs),
(1519,1489,o),
(1454,1503,o),
(1342,1503,cs),
(1309,1503,ls),
(1207,1503,o),
(1194,1487,o),
(1194,1421,c),
(1087,1483,o),
(993,1516,o),
(791,1516,cs),
(401,1516,o),
(37,1266,o),
(37,769,cs),
(37,221,o),
(456,-27,o),
(876,-27,cs),
(1015,-27,o),
(1163,5,o),
(1262,84,c)
);
}
);
};
hints = (
{
horizontal = 1;
origin = (0,71);
target = (0,33);
type = Stem;
},
{
horizontal = 1;
origin = (0,59);
target = down;
type = TopGhost;
},
{
horizontal = 1;
origin = (0,65);
target = (0,39);
type = Stem;
},
{
horizontal = 1;
origin = (0,59);
target = (0,46);
type = Stem;
},
{
origin = (0,68);
target = (0,36);
type = Stem;
},
{
origin = (0,30);
target = (0,9);
type = Stem;
}
);
layerId = "5152A785-FF48-4BC0-8F27-F3AFCF9810FE";
shapes = (
{
closed = 1;
nodes = (
(1314,73,o),
(1360,47,o),
(1420,47,cs),
(1491,47,o),
(1555,78,o),
(1602,122,c),
(1602,156,ls),
(1602,235,o),
(1594,315,o),
(1594,398,cs),
(1594,633,o),
(1725,503,o),
(1725,722,cs),
(1725,820,o),
(1665,828,o),
(1605,828,c),
(1550,821,o),
(1422,810,o),
(1284,810,cs),
(1186,810,o),
(1084,815,o),
(1007,829,c),
(983,806,o),
(943,712,o),
(943,652,cs),
(943,627,o),
(943,606,o),
(952,588,c),
(1132,576,o),
(1167,549,o),
(1167,467,cs),
(1167,401,o),
(1106,363,o),
(1027,363,cs),
(877,363,o),
(661,498,o),
(661,835,cs),
(661,1085,o),
(812,1233,o),
(976,1233,cs),
(1067,1233,o),
(1171,1207,o),
(1241,1088,c),
(1255,1068,ls),
(1290,1019,o),
(1303,1002,o),
(1348,1002,cs),
(1365,1002,o),
(1386,1004,o),
(1412,1007,cs),
(1510,1019,o),
(1556,1009,o),
(1556,1100,cs),
(1556,1113,o),
(1556,1127,o),
(1554,1144,cs),
(1519,1489,o),
(1454,1503,o),
(1342,1503,cs),
(1309,1503,ls),
(1207,1503,o),
(1194,1487,o),
(1194,1421,c),
(1087,1483,o),
(993,1516,o),
(791,1516,cs),
(401,1516,o),
(37,1266,o),
(37,769,cs),
(37,221,o),
(456,-27,o),
(876,-27,cs),
(1015,-27,o),
(1163,5,o),
(1262,84,c)
);
}
);
width = 1755;
}
);
note = G;
unicode = 71;
},
{
glyphname = Gbreve;
lastChange = "2026-02-05 15:38:49 +0000";
layers = (
{
background = {
shapes = (
{
closed = 1;
nodes = (
(954,1614,o),
(1085,1712,o),
(1101,1895,c),
(907,1895,l),
(907,1798,o),
(845,1750,o),
(783,1750,cs),
(721,1750,o),
(659,1798,o),
(659,1895,c),
(465,1895,l),
(481,1712,o),
(611,1614,o),
(785,1614,cs)
);
},
{
closed = 1;
nodes = (
(1441,472,ls),
(1441,634,o),
(1567,555,o),
(1567,696,cs),
(1567,727,o),
(1554,776,o),
(1544,786,c),
(1522,786,o),
(1438,775,o),
(1322,775,cs),
(1246,775,o),
(1162,778,o),
(1068,786,c),
(1050,757,o),
(1035,708,o),
(1035,666,cs),
(1035,610,o),
(1040,588,o),
(1067,588,cs),
(1205,588,o),
(1220,513,o),
(1220,435,cs),
(1220,229,l),
(1096,198,o),
(964,183,o),
(843,183,cs),
(483,183,o),
(299,463,o),
(299,738,cs),
(299,1027,o),
(457,1325,o),
(776,1325,cs),
(1092,1325,o),
(1241,1014,o),
(1278,1014,cs),
(1361,1014,l),
(1396,1018,o),
(1409,1022,o),
(1409,1139,cs),
(1409,1386,ls),
(1409,1466,o),
(1385,1490,o),
(1361,1490,cs),
(1249,1490,ls),
(1210,1490,o),
(1210,1340,o),
(1210,1340,c),
(1104,1461,o),
(905,1512,o),
(759,1512,cs),
(337,1512,o),
(57,1156,o),
(57,734,cs),
(57,355,o),
(302,-27,o),
(816,-27,cs),
(961,-27,o),
(1134,11,o),
(1250,59,c),
(1283,42,o),
(1322,17,o),
(1361,17,cs),
(1388,17,o),
(1415,26,o),
(1442,53,c)
);
}
);
};
layerId = m01;
shapes = (
{
ref = G;
},
{
pos = (256,422);
ref = brevecomb;
}
);
width = 1615;
},
{
background = {
shapes = (
{
closed = 1;
nodes = (
(1106,1618,o),
(1278,1734,o),
(1298,1949,c),
(1004,1949,l),
(1002,1857,o),
(977,1808,o),
(892,1808,cs),
(807,1808,o),
(788,1857,o),
(786,1949,c),
(492,1949,l),
(512,1734,o),
(678,1618,o),
(892,1618,cs)
);
},
{
closed = 1;
nodes = (
(1314,73,o),
(1360,47,o),
(1420,47,cs),
(1491,47,o),
(1555,78,o),
(1602,122,c),
(1602,156,ls),
(1602,235,o),
(1594,315,o),
(1594,398,cs),
(1594,633,o),
(1725,503,o),
(1725,722,cs),
(1725,820,o),
(1665,828,o),
(1605,828,c),
(1550,821,o),
(1422,810,o),
(1284,810,cs),
(1186,810,o),
(1084,815,o),
(1007,829,c),
(983,806,o),
(943,712,o),
(943,652,cs),
(943,627,o),
(943,606,o),
(952,588,c),
(1132,576,o),
(1167,549,o),
(1167,467,cs),
(1167,401,o),
(1106,363,o),
(1027,363,cs),
(877,363,o),
(661,498,o),
(661,835,cs),
(661,1085,o),
(812,1233,o),
(976,1233,cs),
(1067,1233,o),
(1171,1207,o),
(1241,1088,c),
(1255,1068,ls),
(1290,1019,o),
(1303,1002,o),
(1348,1002,cs),
(1365,1002,o),
(1386,1004,o),
(1412,1007,cs),
(1510,1019,o),
(1556,1009,o),
(1556,1100,cs),
(1556,1113,o),
(1556,1127,o),
(1554,1144,cs),
(1519,1489,o),
(1454,1503,o),
(1342,1503,cs),
(1309,1503,ls),
(1207,1503,o),
(1194,1487,o),
(1194,1421,c),
(1087,1483,o),
(993,1516,o),
(791,1516,cs),
(401,1516,o),
(37,1266,o),
(37,769,cs),
(37,221,o),
(456,-27,o),
(876,-27,cs),
(1015,-27,o),
(1163,5,o),
(1262,84,c)
);
}
);
};
layerId = "5152A785-FF48-4BC0-8F27-F3AFCF9810FE";
shapes = (
{
ref = G;
},
{
pos = (392,422);
ref = brevecomb;
}
);
width = 1755;
}
);
note = Gbreve;
unicode = 286;
},
{
glyphname = Gcommaaccent;
lastChange = "2026-02-05 15:38:49 +0000";
layers = (
{
background = {
shapes = (
{
closed = 1;
nodes = (
(715,-624,o),
(733,-636,o),
(763,-636,cs),
(888,-636,o),
(1006,-461,o),
(1006,-310,cs),
(1006,-209,o),
(922,-129,o),
(815,-129,cs),
(704,-129,o),
(627,-199,o),
(627,-301,cs),
(627,-460,o),
(804,-433,o),
(804,-486,cs),
(804,-505,o),
(715,-575,o),
(715,-605,cs)
);
},
{
closed = 1;
nodes = (
(1441,472,ls),
(1441,634,o),
(1567,555,o),
(1567,696,cs),
(1567,727,o),
(1554,776,o),
(1544,786,c),
(1522,786,o),
(1438,775,o),
(1322,775,cs),
(1246,775,o),
(1162,778,o),
(1068,786,c),
(1050,757,o),
(1035,708,o),
(1035,666,cs),
(1035,610,o),
(1040,588,o),
(1067,588,cs),
(1205,588,o),
(1220,513,o),
(1220,435,cs),
(1220,229,l),
(1096,198,o),
(964,183,o),
(843,183,cs),
(483,183,o),
(299,463,o),
(299,738,cs),
(299,1027,o),
(457,1325,o),
(776,1325,cs),
(1092,1325,o),
(1241,1014,o),
(1278,1014,cs),
(1361,1014,l),
(1396,1018,o),
(1409,1022,o),
(1409,1139,cs),
(1409,1386,ls),
(1409,1466,o),
(1385,1490,o),
(1361,1490,cs),
(1249,1490,ls),
(1210,1490,o),
(1210,1340,o),
(1210,1340,c),
(1104,1461,o),
(905,1512,o),
(759,1512,cs),
(337,1512,o),
(57,1156,o),
(57,734,cs),
(57,355,o),
(302,-27,o),
(816,-27,cs),
(961,-27,o),
(1134,11,o),
(1250,59,c),
(1283,42,o),
(1322,17,o),
(1361,17,cs),
(1388,17,o),
(1415,26,o),
(1442,53,c)
);
}
);
};
layerId = m01;
shapes = (
{
ref = G;
},
{
pos = (509,0);
ref = commaaccentcomb;
}
);
width = 1615;
},
{
background = {
shapes = (
{
closed = 1;
nodes = (
(678,-751,o),
(707,-781,o),
(760,-781,cs),
(945,-781,o),
(1123,-528,o),
(1123,-367,cs),
(1123,-234,o),
(1012,-129,o),
(874,-129,cs),
(728,-129,o),
(628,-221,o),
(628,-357,cs),
(628,-537,o),
(793,-523,o),
(793,-559,cs),
(793,-619,o),
(678,-682,o),
(678,-726,cs)
);
},
{
closed = 1;
nodes = (
(1314,73,o),
(1360,47,o),
(1420,47,cs),
(1491,47,o),
(1555,78,o),
(1602,122,c),
(1602,156,ls),
(1602,235,o),
(1594,315,o),
(1594,398,cs),
(1594,633,o),
(1725,503,o),
(1725,722,cs),
(1725,820,o),
(1665,828,o),
(1605,828,c),
(1550,821,o),
(1422,810,o),
(1284,810,cs),
(1186,810,o),
(1084,815,o),
(1007,829,c),
(983,806,o),
(943,712,o),
(943,652,cs),
(943,627,o),
(943,606,o),
(952,588,c),
(1132,576,o),
(1167,549,o),
(1167,467,cs),
(1167,401,o),
(1106,363,o),
(1027,363,cs),
(877,363,o),
(661,498,o),
(661,835,cs),
(661,1085,o),
(812,1233,o),
(976,1233,cs),
(1067,1233,o),
(1171,1207,o),
(1241,1088,c),
(1255,1068,ls),
(1290,1019,o),
(1303,1002,o),
(1348,1002,cs),
(1365,1002,o),
(1386,1004,o),
(1412,1007,cs),
(1510,1019,o),
(1556,1009,o),
(1556,1100,cs),
(1556,1113,o),
(1556,1127,o),
(1554,1144,cs),
(1519,1489,o),
(1454,1503,o),
(1342,1503,cs),
(1309,1503,ls),
(1207,1503,o),
(1194,1487,o),
(1194,1421,c),
(1087,1483,o),
(993,1516,o),
(791,1516,cs),
(401,1516,o),
(37,1266,o),
(37,769,cs),
(37,221,o),
(456,-27,o),
(876,-27,cs),
(1015,-27,o),
(1163,5,o),
(1262,84,c)
);
}
);
};
layerId = "5152A785-FF48-4BC0-8F27-F3AFCF9810FE";
shapes = (
{
ref = G;
},
{
pos = (526,0);
ref = commaaccentcomb;
}
);
width = 1755;
}
);
note = Gcedilla;
unicode = 290;
},
{
glyphname = Gdotaccent;
lastChange = "2026-02-05 15:38:49 +0000";
layers = (
{
background = {
shapes = (
{
closed = 1;
nodes = (
(633,1694,o),
(688,1614,o),
(814,1614,cs),
(939,1614,o),
(989,1697,o),
(989,1777,cs),
(989,1858,o),
(939,1940,o),
(814,1940,cs),
(688,1940,o),
(633,1861,o),
(633,1777,cs)
);
},
{
closed = 1;
nodes = (
(1441,472,ls),
(1441,634,o),
(1567,555,o),
(1567,696,cs),
(1567,727,o),
(1554,776,o),
(1544,786,c),
(1522,786,o),
(1438,775,o),
(1322,775,cs),
(1246,775,o),
(1162,778,o),
(1068,786,c),
(1050,757,o),
(1035,708,o),
(1035,666,cs),
(1035,610,o),
(1040,588,o),
(1067,588,cs),
(1205,588,o),
(1220,513,o),
(1220,435,cs),
(1220,229,l),
(1096,198,o),
(964,183,o),
(843,183,cs),
(483,183,o),
(299,463,o),
(299,738,cs),
(299,1027,o),
(457,1325,o),
(776,1325,cs),
(1092,1325,o),
(1241,1014,o),
(1278,1014,cs),
(1361,1014,l),
(1396,1018,o),
(1409,1022,o),
(1409,1139,cs),
(1409,1386,ls),
(1409,1466,o),
(1385,1490,o),
(1361,1490,cs),
(1249,1490,ls),
(1210,1490,o),
(1210,1340,o),
(1210,1340,c),
(1104,1461,o),
(905,1512,o),
(759,1512,cs),
(337,1512,o),
(57,1156,o),
(57,734,cs),
(57,355,o),
(302,-27,o),
(816,-27,cs),
(961,-27,o),
(1134,11,o),
(1250,59,c),
(1283,42,o),
(1322,17,o),
(1361,17,cs),
(1388,17,o),
(1415,26,o),
(1442,53,c)
);
}
);
};
layerId = m01;
shapes = (
{
ref = G;
},
{
pos = (517,422);
ref = dotaccentcomb;
}
);
width = 1615;
},
{
background = {
shapes = (
{
closed = 1;
nodes = (
(636,1725,o),
(710,1618,o),
(879,1618,cs),
(1047,1618,o),
(1114,1729,o),
(1114,1837,cs),
(1114,1945,o),
(1047,2056,o),
(879,2056,cs),
(710,2056,o),
(636,1949,o),
(636,1837,cs)
);
},
{
closed = 1;
nodes = (
(1314,73,o),
(1360,47,o),
(1420,47,cs),
(1491,47,o),
(1555,78,o),
(1602,122,c),
(1602,156,ls),
(1602,235,o),
(1594,315,o),
(1594,398,cs),
(1594,633,o),
(1725,503,o),
(1725,722,cs),
(1725,820,o),
(1665,828,o),
(1605,828,c),
(1550,821,o),
(1422,810,o),
(1284,810,cs),
(1186,810,o),
(1084,815,o),
(1007,829,c),
(983,806,o),
(943,712,o),
(943,652,cs),
(943,627,o),
(943,606,o),
(952,588,c),
(1132,576,o),
(1167,549,o),
(1167,467,cs),
(1167,401,o),
(1106,363,o),
(1027,363,cs),
(877,363,o),
(661,498,o),
(661,835,cs),
(661,1085,o),
(812,1233,o),
(976,1233,cs),
(1067,1233,o),
(1171,1207,o),
(1241,1088,c),
(1255,1068,ls),
(1290,1019,o),
(1303,1002,o),
(1348,1002,cs),
(1365,1002,o),
(1386,1004,o),
(1412,1007,cs),
(1510,1019,o),
(1556,1009,o),
(1556,1100,cs),
(1556,1113,o),
(1556,1127,o),
(1554,1144,cs),
(1519,1489,o),
(1454,1503,o),
(1342,1503,cs),
(1309,1503,ls),
(1207,1503,o),
(1194,1487,o),
(1194,1421,c),
(1087,1483,o),
(993,1516,o),
(791,1516,cs),
(401,1516,o),
(37,1266,o),
(37,769,cs),
(37,221,o),
(456,-27,o),
(876,-27,cs),
(1015,-27,o),
(1163,5,o),
(1262,84,c)
);
}
);
};
layerId = "5152A785-FF48-4BC0-8F27-F3AFCF9810FE";
shapes = (
{
ref = G;
},
{
pos = (551,422);
ref = dotaccentcomb;
}
);
width = 1755;
}
);
note = Gdotaccent;
unicode = 288;
},
{
glyphname = H;
lastChange = "2026-02-05 15:40:54 +0000";
layers = (
{
anchors = (
{
name = bottom;
pos = (880,0);
},
{
name = center;
pos = (880,1202);
},
{
name = top;
pos = (880,1489);
},
{
name = topleft;
pos = (20,1489);
}
);
background = {
shapes = (
{
closed = 1;
nodes = (
(177,-6,o),
(263,0,o),
(352,0,cs),
(446,0,o),
(534,-6,o),
(599,-11,c),
(632,12,o),
(642,95,o),
(642,152,cs),
(642,187,o),
(584,200,o),
(530,200,cs),
(467,200,o),
(466,235,o),
(466,265,cs),
(466,686,ls),
(466,696,o),
(466,707,o),
(485,707,cs),
(1273,707,ls),
(1292,707,o),
(1292,696,o),
(1292,686,cs),
(1292,263,ls),
(1292,230,o),
(1286,200,o),
(1229,200,cs),
(1175,200,o),
(1117,187,o),
(1117,152,cs),
(1117,95,o),
(1130,12,o),
(1170,-11,c),
(1234,-6,o),
(1320,0,o),
(1409,0,cs),
(1503,0,o),
(1591,-6,o),
(1656,-11,c),
(1689,12,o),
(1699,95,o),
(1699,152,cs),
(1699,187,o),
(1641,200,o),
(1587,200,cs),
(1524,200,o),
(1523,235,o),
(1523,265,cs),
(1523,1225,ls),
(1523,1255,o),
(1524,1290,o),
(1587,1290,cs),
(1641,1290,o),
(1699,1303,o),
(1699,1338,cs),
(1699,1395,o),
(1689,1479,o),
(1656,1502,c),
(1591,1497,o),
(1503,1490,o),
(1409,1490,cs),
(1320,1490,o),
(1234,1497,o),
(1170,1502,c),
(1130,1479,o),
(1117,1395,o),
(1117,1338,cs),
(1117,1303,o),
(1175,1290,o),
(1229,1290,cs),
(1286,1290,o),
(1292,1260,o),
(1292,1227,cs),
(1292,884,ls),
(1292,874,o),
(1292,863,o),
(1273,863,cs),
(485,863,ls),
(466,863,o),
(466,874,o),
(466,884,cs),
(466,1225,ls),
(466,1255,o),
(467,1290,o),
(530,1290,cs),
(584,1290,o),
(642,1303,o),
(642,1338,cs),
(642,1395,o),
(632,1479,o),
(599,1502,c),
(534,1497,o),
(446,1490,o),
(352,1490,cs),
(263,1490,o),
(177,1498,o),
(113,1503,c),
(74,1481,o),
(60,1398,o),
(60,1344,cs),
(60,1299,o),
(128,1292,o),
(172,1292,cs),
(229,1292,o),
(235,1262,o),
(235,1229,cs),
(235,263,ls),
(235,230,o),
(229,200,o),
(172,200,cs),
(118,200,o),
(60,187,o),
(60,152,cs),
(60,95,o),
(73,12,o),
(113,-11,c)
);
}
);
};
hints = (
{
horizontal = 1;
origin = (0,115);
target = (0,109);
type = Stem;
},
{
horizontal = 1;
origin = (0,19);
target = (0,77);
type = Stem;
},
{
horizontal = 1;
origin = (0,90);
target = (0,84);
type = Stem;
},
{
horizontal = 1;
origin = (0,93);
target = (0,84);
type = Stem;
},
{
horizontal = 1;
origin = (0,93);
target = (0,102);
type = Stem;
},
{
origin = (0,106);
target = (0,81);
type = Stem;
},
{
origin = (0,73);
target = (0,48);
type = Stem;
}
);
layerId = m01;
shapes = (
{
closed = 1;
nodes = (
(177,-6,o),
(263,0,o),
(352,0,cs),
(446,0,o),
(534,-6,o),
(599,-11,c),
(632,12,o),
(642,95,o),
(642,152,cs),
(642,187,o),
(584,200,o),
(530,200,cs),
(467,200,o),
(466,235,o),
(466,265,cs),
(466,686,ls),
(466,696,o),
(466,707,o),
(485,707,cs),
(1273,707,ls),
(1292,707,o),
(1292,696,o),
(1292,686,cs),
(1292,263,ls),
(1292,230,o),
(1286,200,o),
(1229,200,cs),
(1175,200,o),
(1117,187,o),
(1117,152,cs),
(1117,95,o),
(1130,12,o),
(1170,-11,c),
(1234,-6,o),
(1320,0,o),
(1409,0,cs),
(1503,0,o),
(1591,-6,o),
(1656,-11,c),
(1689,12,o),
(1699,95,o),
(1699,152,cs),
(1699,187,o),
(1641,200,o),
(1587,200,cs),
(1524,200,o),
(1523,235,o),
(1523,265,cs),
(1523,1225,ls),
(1523,1255,o),
(1524,1290,o),
(1587,1290,cs),
(1641,1290,o),
(1699,1303,o),
(1699,1338,cs),
(1699,1395,o),
(1689,1479,o),
(1656,1502,c),
(1591,1497,o),
(1503,1490,o),
(1409,1490,cs),
(1320,1490,o),
(1234,1497,o),
(1170,1502,c),
(1130,1479,o),
(1117,1395,o),
(1117,1338,cs),
(1117,1303,o),
(1175,1290,o),
(1229,1290,cs),
(1286,1290,o),
(1292,1260,o),
(1292,1227,cs),
(1292,884,ls),
(1292,874,o),
(1292,863,o),
(1273,863,cs),
(485,863,ls),
(466,863,o),
(466,874,o),
(466,884,cs),
(466,1225,ls),
(466,1255,o),
(467,1290,o),
(530,1290,cs),
(584,1290,o),
(642,1303,o),
(642,1338,cs),
(642,1395,o),
(632,1479,o),
(599,1502,c),
(534,1497,o),
(446,1490,o),
(352,1490,cs),
(263,1490,o),
(177,1498,o),
(113,1503,c),
(74,1481,o),
(60,1398,o),
(60,1344,cs),
(60,1299,o),
(128,1292,o),
(172,1292,cs),
(229,1292,o),
(235,1262,o),
(235,1229,cs),
(235,263,ls),
(235,230,o),
(229,200,o),
(172,200,cs),
(118,200,o),
(60,187,o),
(60,152,cs),
(60,95,o),
(73,12,o),
(113,-11,c)
);
}
);
width = 1759;
},
{
anchors = (
{
name = bottom;
pos = (1044,0);
},
{
name = center;
pos = (1044,1202);
},
{
name = top;
pos = (1044,1489);
},
{
name = topleft;
pos = (20,1489);
}
);
background = {
anchors = (
{
name = bottom;
pos = (1044,0);
},
{
name = center;
pos = (1044,1202);
},
{
name = top;
pos = (1044,173);
},
{
name = topleft;
pos = (20,173);
}
);
shapes = (
{
closed = 1;
nodes = (
(1901,1495,o),
(1745,1489,o),
(1590,1489,cs),
(1395,1489,o),
(1233,1498,o),
(1181,1503,c),
(1126,1476,o),
(1103,1338,o),
(1103,1259,cs),
(1103,1205,o),
(1144,1198,o),
(1190,1190,c),
(1254,1184,o),
(1259,1073,o),
(1259,911,cs),
(1259,885,o),
(1259,881,o),
(1231,881,cs),
(1189,881,o),
(1127,883,o),
(1032,883,cs),
(949,883,o),
(892,882,o),
(853,882,cs),
(815,882,o),
(813,899,o),
(813,922,cs),
(813,1036,o),
(821,1183,o),
(889,1190,c),
(935,1198,o),
(976,1205,o),
(976,1259,cs),
(976,1338,o),
(953,1476,o),
(898,1503,c),
(855,1498,o),
(729,1489,o),
(579,1489,cs),
(379,1489,o),
(179,1495,o),
(126,1503,c),
(85,1476,o),
(68,1331,o),
(68,1252,cs),
(68,1198,o),
(112,1191,o),
(157,1186,cs),
(240,1177,o),
(247,1087,o),
(247,974,cs),
(247,535,ls),
(247,432,o),
(237,321,o),
(154,312,cs),
(109,307,o),
(65,301,o),
(65,247,cs),
(65,165,o),
(82,15,o),
(123,-13,c),
(176,-5,o),
(376,0,o),
(576,0,cs),
(726,0,o),
(852,-8,o),
(895,-13,c),
(950,14,o),
(973,148,o),
(973,227,cs),
(973,281,o),
(932,288,o),
(897,294,cs),
(818,303,o),
(813,483,o),
(813,615,cs),
(813,650,o),
(813,657,o),
(844,657,cs),
(885,657,o),
(945,655,o),
(1035,655,cs),
(1126,655,o),
(1186,657,o),
(1227,657,cs),
(1259,657,o),
(1259,651,o),
(1259,615,cs),
(1259,447,o),
(1250,302,o),
(1176,294,c),
(1141,288,o),
(1100,281,o),
(1100,227,cs),
(1100,148,o),
(1123,14,o),
(1178,-13,c),
(1230,-8,o),
(1392,0,o),
(1587,0,cs),
(1742,0,o),
(1904,-5,o),
(1948,-13,c),
(1989,15,o),
(2006,165,o),
(2006,247,cs),
(2006,301,o),
(1962,307,o),
(1917,312,cs),
(1834,321,o),
(1824,432,o),
(1824,535,cs),
(1824,974,ls),
(1824,1087,o),
(1831,1177,o),
(1914,1186,cs),
(1959,1191,o),
(2003,1198,o),
(2003,1252,cs),
(2003,1331,o),
(1986,1476,o),
(1945,1503,c)
);
}
);
};
hints = (
{
horizontal = 1;
origin = (0,102);
target = up;
type = BottomGhost;
},
{
horizontal = 1;
origin = (0,81);
target = (0,20);
type = Stem;
},
{
horizontal = 1;
origin = (0,121);
target = down;
type = TopGhost;
},
{
origin = (0,51);
target = (0,75);
type = Stem;
},
{
origin = (0,87);
target = (0,112);
type = Stem;
}
);
layerId = "5152A785-FF48-4BC0-8F27-F3AFCF9810FE";
shapes = (
{
closed = 1;
nodes = (
(1901,1495,o),
(1745,1489,o),
(1590,1489,cs),
(1395,1489,o),
(1233,1498,o),
(1181,1503,c),
(1126,1476,o),
(1103,1338,o),
(1103,1259,cs),
(1103,1205,o),
(1144,1198,o),
(1190,1190,c),
(1254,1184,o),
(1259,1073,o),
(1259,911,cs),
(1259,885,o),
(1259,881,o),
(1231,881,cs),
(1189,881,o),
(1127,883,o),
(1032,883,cs),
(949,883,o),
(892,882,o),
(853,882,cs),
(815,882,o),
(813,899,o),
(813,922,cs),
(813,1036,o),
(821,1183,o),
(889,1190,c),
(935,1198,o),
(976,1205,o),
(976,1259,cs),
(976,1338,o),
(953,1476,o),
(898,1503,c),
(855,1498,o),
(729,1489,o),
(579,1489,cs),
(379,1489,o),
(179,1495,o),
(126,1503,c),
(85,1476,o),
(68,1331,o),
(68,1252,cs),
(68,1198,o),
(112,1191,o),
(157,1186,cs),
(240,1177,o),
(247,1087,o),
(247,974,cs),
(247,535,ls),
(247,432,o),
(237,321,o),
(154,312,cs),
(109,307,o),
(65,301,o),
(65,247,cs),
(65,165,o),
(82,15,o),
(123,-13,c),
(176,-5,o),
(376,0,o),
(576,0,cs),
(726,0,o),
(852,-8,o),
(895,-13,c),
(950,14,o),
(973,148,o),
(973,227,cs),
(973,281,o),
(932,288,o),
(897,294,cs),
(818,303,o),
(813,483,o),
(813,615,cs),
(813,650,o),
(813,657,o),
(844,657,cs),
(885,657,o),
(945,655,o),
(1035,655,cs),
(1126,655,o),
(1186,657,o),
(1227,657,cs),
(1259,657,o),
(1259,651,o),
(1259,615,cs),
(1259,447,o),
(1250,302,o),
(1176,294,c),
(1141,288,o),
(1100,281,o),
(1100,227,cs),
(1100,148,o),
(1123,14,o),
(1178,-13,c),
(1230,-8,o),
(1392,0,o),
(1587,0,cs),
(1742,0,o),
(1904,-5,o),
(1948,-13,c),
(1989,15,o),
(2006,165,o),
(2006,247,cs),
(2006,301,o),
(1962,307,o),
(1917,312,cs),
(1834,321,o),
(1824,432,o),
(1824,535,cs),
(1824,974,ls),
(1824,1087,o),
(1831,1177,o),
(1914,1186,cs),
(1959,1191,o),
(2003,1198,o),
(2003,1252,cs),
(2003,1331,o),
(1986,1476,o),
(1945,1503,c)
);
}
);
width = 2087;
}
);
note = H;
unicode = 72;
},
{
glyphname = Hbar;
lastChange = "2026-02-05 15:40:54 +0000";
layers = (
{
background = {
shapes = (
{
closed = 1;
nodes = (
(243,-6,o),
(329,0,o),
(418,0,cs),
(512,0,o),
(600,-6,o),
(665,-11,c),
(698,12,o),
(708,95,o),
(708,152,cs),
(708,187,o),
(650,200,o),
(596,200,cs),
(533,200,o),
(532,235,o),
(532,265,cs),
(532,686,ls),
(532,696,o),
(532,707,o),
(551,707,cs),
(1339,707,ls),
(1358,707,o),
(1358,696,o),
(1358,686,cs),
(1358,263,ls),
(1358,230,o),
(1352,200,o),
(1295,200,cs),
(1241,200,o),
(1183,187,o),
(1183,152,cs),
(1183,95,o),
(1196,12,o),
(1236,-11,c),
(1300,-6,o),
(1386,0,o),
(1475,0,cs),
(1569,0,o),
(1657,-6,o),
(1722,-11,c),
(1755,12,o),
(1765,95,o),
(1765,152,cs),
(1765,187,o),
(1707,200,o),
(1653,200,cs),
(1590,200,o),
(1589,235,o),
(1589,265,cs),
(1589,1225,ls),
(1589,1255,o),
(1590,1290,o),
(1653,1290,cs),
(1707,1290,o),
(1765,1303,o),
(1765,1338,cs),
(1765,1395,o),
(1755,1479,o),
(1722,1502,c),
(1657,1497,o),
(1569,1490,o),
(1475,1490,cs),
(1386,1490,o),
(1300,1497,o),
(1236,1502,c),
(1196,1479,o),
(1183,1395,o),
(1183,1338,cs),
(1183,1303,o),
(1241,1290,o),
(1295,1290,cs),
(1352,1290,o),
(1358,1260,o),
(1358,1227,cs),
(1358,1124,l),
(532,1124,l),
(532,1225,ls),
(532,1255,o),
(533,1290,o),
(596,1290,cs),
(650,1290,o),
(708,1303,o),
(708,1338,cs),
(708,1395,o),
(698,1479,o),
(665,1502,c),
(600,1497,o),
(512,1490,o),
(418,1490,cs),
(329,1490,o),
(243,1498,o),
(179,1503,c),
(140,1481,o),
(126,1398,o),
(126,1344,cs),
(126,1299,o),
(194,1292,o),
(238,1292,cs),
(295,1292,o),
(301,1262,o),
(301,1229,cs),
(301,263,ls),
(301,230,o),
(295,200,o),
(238,200,cs),
(184,200,o),
(126,187,o),
(126,152,cs),
(126,95,o),
(139,12,o),
(179,-11,c)
);
},
{
closed = 1;
nodes = (
(532,1003,l),
(1358,1003,l),
(1358,884,ls),
(1358,874,o),
(1358,863,o),
(1339,863,cs),
(551,863,ls),
(532,863,o),
(532,874,o),
(532,884,cs)
);
}
);
};
hints = (
{
horizontal = 1;
origin = (0,109);
target = (0,103);
type = Stem;
},
{
horizontal = 1;
origin = (0,19);
target = (1,6);
type = Stem;
},
{
horizontal = 1;
origin = (1,1);
target = (0,74);
type = Stem;
},
{
horizontal = 1;
origin = (0,84);
target = (0,78);
type = Stem;
},
{
horizontal = 1;
origin = (0,87);
target = (1,1);
type = Stem;
},
{
horizontal = 1;
origin = (0,87);
target = (0,96);
type = Stem;
},
{
origin = (0,100);
target = (1,9);
type = Stem;
},
{
origin = (1,2);
target = (0,48);
type = Stem;
}
);
layerId = m01;
shapes = (
{
closed = 1;
nodes = (
(243,-6,o),
(329,0,o),
(418,0,cs),
(512,0,o),
(600,-6,o),
(665,-11,c),
(698,12,o),
(708,95,o),
(708,152,cs),
(708,187,o),
(650,200,o),
(596,200,cs),
(533,200,o),
(532,235,o),
(532,265,cs),
(532,686,ls),
(532,696,o),
(532,707,o),
(551,707,cs),
(1339,707,ls),
(1358,707,o),
(1358,696,o),
(1358,686,cs),
(1358,263,ls),
(1358,230,o),
(1352,200,o),
(1295,200,cs),
(1241,200,o),
(1183,187,o),
(1183,152,cs),
(1183,95,o),
(1196,12,o),
(1236,-11,c),
(1300,-6,o),
(1386,0,o),
(1475,0,cs),
(1569,0,o),
(1657,-6,o),
(1722,-11,c),
(1755,12,o),
(1765,95,o),
(1765,152,cs),
(1765,187,o),
(1707,200,o),
(1653,200,cs),
(1590,200,o),
(1589,235,o),
(1589,265,cs),
(1589,1225,ls),
(1589,1255,o),
(1590,1290,o),
(1653,1290,cs),
(1707,1290,o),
(1765,1303,o),
(1765,1338,cs),
(1765,1395,o),
(1755,1479,o),
(1722,1502,c),
(1657,1497,o),
(1569,1490,o),
(1475,1490,cs),
(1386,1490,o),
(1300,1497,o),
(1236,1502,c),
(1196,1479,o),
(1183,1395,o),
(1183,1338,cs),
(1183,1303,o),
(1241,1290,o),
(1295,1290,cs),
(1352,1290,o),
(1358,1260,o),
(1358,1227,cs),
(1358,1124,l),
(532,1124,l),
(532,1225,ls),
(532,1255,o),
(533,1290,o),
(596,1290,cs),
(650,1290,o),
(708,1303,o),
(708,1338,cs),
(708,1395,o),
(698,1479,o),
(665,1502,c),
(600,1497,o),
(512,1490,o),
(418,1490,cs),
(329,1490,o),
(243,1498,o),
(179,1503,c),
(140,1481,o),
(126,1398,o),
(126,1344,cs),
(126,1299,o),
(194,1292,o),
(238,1292,cs),
(295,1292,o),
(301,1262,o),
(301,1229,cs),
(301,263,ls),
(301,230,o),
(295,200,o),
(238,200,cs),
(184,200,o),
(126,187,o),
(126,152,cs),
(126,95,o),
(139,12,o),
(179,-11,c)
);
},
{
closed = 1;
nodes = (
(532,1003,l),
(1358,1003,l),
(1358,884,ls),
(1358,874,o),
(1358,863,o),
(1339,863,cs),
(551,863,ls),
(532,863,o),
(532,874,o),
(532,884,cs)
);
}
);
width = 1891;
},
{
background = {
shapes = (
{
closed = 1;
nodes = (
(1368,1003,ls),
(1408,1003,o),
(1415,1040,o),
(1415,1069,cs),
(1415,1113,o),
(1400,1124,o),
(1367,1124,cs),
(710,1124,ls),
(675,1124,o),
(664,1095,o),
(664,1057,cs),
(664,1032,o),
(670,1003,o),
(702,1003,cs)
);
},
{
closed = 1;
nodes = (
(1903,1495,o),
(1747,1489,o),
(1592,1489,cs),
(1397,1489,o),
(1235,1498,o),
(1183,1503,c),
(1128,1476,o),
(1105,1338,o),
(1105,1259,cs),
(1105,1205,o),
(1146,1198,o),
(1192,1190,c),
(1256,1184,o),
(1261,1073,o),
(1261,911,cs),
(1261,885,o),
(1261,881,o),
(1233,881,cs),
(1191,881,o),
(1129,883,o),
(1034,883,cs),
(951,883,o),
(894,882,o),
(855,882,cs),
(817,882,o),
(815,899,o),
(815,922,cs),
(815,1036,o),
(823,1183,o),
(891,1190,c),
(937,1198,o),
(978,1205,o),
(978,1259,cs),
(978,1338,o),
(955,1476,o),
(900,1503,c),
(857,1498,o),
(731,1489,o),
(581,1489,cs),
(381,1489,o),
(181,1495,o),
(128,1503,c),
(87,1476,o),
(70,1331,o),
(70,1252,cs),
(70,1198,o),
(114,1191,o),
(159,1186,cs),
(242,1177,o),
(249,1087,o),
(249,974,cs),
(249,535,ls),
(249,432,o),
(239,321,o),
(156,312,cs),
(111,307,o),
(67,301,o),
(67,247,cs),
(67,165,o),
(84,15,o),
(125,-13,c),
(178,-5,o),
(378,0,o),
(578,0,cs),
(728,0,o),
(854,-8,o),
(897,-13,c),
(952,14,o),
(975,148,o),
(975,227,cs),
(975,281,o),
(934,288,o),
(899,294,cs),
(820,303,o),
(815,483,o),
(815,615,cs),
(815,650,o),
(815,657,o),
(846,657,cs),
(887,657,o),
(947,655,o),
(1037,655,cs),
(1128,655,o),
(1188,657,o),
(1229,657,cs),
(1261,657,o),
(1261,651,o),
(1261,615,cs),
(1261,447,o),
(1252,302,o),
(1178,294,c),
(1143,288,o),
(1102,281,o),
(1102,227,cs),
(1102,148,o),
(1125,14,o),
(1180,-13,c),
(1232,-8,o),
(1394,0,o),
(1589,0,cs),
(1744,0,o),
(1906,-5,o),
(1950,-13,c),
(1991,15,o),
(2008,165,o),
(2008,247,cs),
(2008,301,o),
(1964,307,o),
(1919,312,cs),
(1836,321,o),
(1826,432,o),
(1826,535,cs),
(1826,974,ls),
(1826,1087,o),
(1833,1177,o),
(1916,1186,cs),
(1961,1191,o),
(2005,1198,o),
(2005,1252,cs),
(2005,1331,o),
(1988,1476,o),
(1947,1503,c)
);
}
);
};
hints = (
{
horizontal = 1;
origin = (1,102);
target = up;
type = BottomGhost;
},
{
horizontal = 1;
origin = (1,81);
target = (1,20);
type = Stem;
},
{
horizontal = 1;
origin = (1,121);
target = (0,13);
type = Stem;
},
{
horizontal = 1;
origin = (0,13);
target = (0,7);
type = Stem;
},
{
origin = (1,51);
target = (1,75);
type = Stem;
},
{
origin = (1,87);
target = (1,112);
type = Stem;
}
);
layerId = "5152A785-FF48-4BC0-8F27-F3AFCF9810FE";
shapes = (
{
closed = 1;
nodes = (
(1368,1003,ls),
(1408,1003,o),
(1415,1040,o),
(1415,1069,cs),
(1415,1113,o),
(1400,1124,o),
(1367,1124,cs),
(710,1124,ls),
(675,1124,o),
(664,1095,o),
(664,1057,cs),
(664,1032,o),
(670,1003,o),
(702,1003,cs)
);
},
{
closed = 1;
nodes = (
(1903,1495,o),
(1747,1489,o),
(1592,1489,cs),
(1397,1489,o),
(1235,1498,o),
(1183,1503,c),
(1128,1476,o),
(1105,1338,o),
(1105,1259,cs),
(1105,1205,o),
(1146,1198,o),
(1192,1190,c),
(1256,1184,o),
(1261,1073,o),
(1261,911,cs),
(1261,885,o),
(1261,881,o),
(1233,881,cs),
(1191,881,o),
(1129,883,o),
(1034,883,cs),
(951,883,o),
(894,882,o),
(855,882,cs),
(817,882,o),
(815,899,o),
(815,922,cs),
(815,1036,o),
(823,1183,o),
(891,1190,c),
(937,1198,o),
(978,1205,o),
(978,1259,cs),
(978,1338,o),
(955,1476,o),
(900,1503,c),
(857,1498,o),
(731,1489,o),
(581,1489,cs),
(381,1489,o),
(181,1495,o),
(128,1503,c),
(87,1476,o),
(70,1331,o),
(70,1252,cs),
(70,1198,o),
(114,1191,o),
(159,1186,cs),
(242,1177,o),
(249,1087,o),
(249,974,cs),
(249,535,ls),
(249,432,o),
(239,321,o),
(156,312,cs),
(111,307,o),
(67,301,o),
(67,247,cs),
(67,165,o),
(84,15,o),
(125,-13,c),
(178,-5,o),
(378,0,o),
(578,0,cs),
(728,0,o),
(854,-8,o),
(897,-13,c),
(952,14,o),
(975,148,o),
(975,227,cs),
(975,281,o),
(934,288,o),
(899,294,cs),
(820,303,o),
(815,483,o),
(815,615,cs),
(815,650,o),
(815,657,o),
(846,657,cs),
(887,657,o),
(947,655,o),
(1037,655,cs),
(1128,655,o),
(1188,657,o),
(1229,657,cs),
(1261,657,o),
(1261,651,o),
(1261,615,cs),
(1261,447,o),
(1252,302,o),
(1178,294,c),
(1143,288,o),
(1102,281,o),
(1102,227,cs),
(1102,148,o),
(1125,14,o),
(1180,-13,c),
(1232,-8,o),
(1394,0,o),
(1589,0,cs),
(1744,0,o),
(1906,-5,o),
(1950,-13,c),
(1991,15,o),
(2008,165,o),
(2008,247,cs),
(2008,301,o),
(1964,307,o),
(1919,312,cs),
(1836,321,o),
(1826,432,o),
(1826,535,cs),
(1826,974,ls),
(1826,1087,o),
(1833,1177,o),
(1916,1186,cs),
(1961,1191,o),
(2005,1198,o),
(2005,1252,cs),
(2005,1331,o),
(1988,1476,o),
(1947,1503,c)
);
}
);
width = 2072;
}
);
note = Hbar;
unicode = 294;
},
{
glyphname = I;
lastChange = "2026-02-05 15:44:44 +0000";
layers = (
{
anchors = (
{
name = bottom;
pos = (351,0);
},
{
name = ogonek;
pos = (562,-10);
},
{
name = top;
pos = (351,1489);
},
{
name = topleft;
pos = (20,1489);
}
);
background = {
shapes = (
{
closed = 1;
nodes = (
(74,1481,o),
(60,1398,o),
(60,1344,cs),
(60,1299,o),
(128,1292,o),
(172,1292,cs),
(229,1292,o),
(235,1262,o),
(235,1229,cs),
(235,263,ls),
(235,230,o),
(229,200,o),
(172,200,cs),
(118,200,o),
(60,187,o),
(60,152,cs),
(60,95,o),
(73,12,o),
(113,-11,c),
(177,-6,o),
(263,0,o),
(352,0,cs),
(446,0,o),
(534,-6,o),
(599,-11,c),
(632,12,o),
(642,95,o),
(642,152,cs),
(642,187,o),
(584,200,o),
(530,200,cs),
(467,200,o),
(466,235,o),
(466,265,cs),
(466,1225,ls),
(466,1255,o),
(467,1290,o),
(530,1290,cs),
(584,1290,o),
(642,1303,o),
(642,1338,cs),
(642,1395,o),
(632,1480,o),
(599,1503,c),
(534,1498,o),
(446,1490,o),
(352,1490,cs),
(263,1490,o),
(177,1498,o),
(113,1503,c)
);
}
);
};
hints = (
{
horizontal = 1;
origin = (0,24);
target = (0,30);
type = Stem;
},
{
horizontal = 1;
origin = (0,49);
target = (0,5);
type = Stem;
},
{
horizontal = 1;
origin = (0,49);
target = (0,37);
type = Stem;
},
{
origin = (0,9);
target = (0,34);
type = Stem;
}
);
layerId = m01;
shapes = (
{
closed = 1;
nodes = (
(74,1481,o),
(60,1398,o),
(60,1344,cs),
(60,1299,o),
(128,1292,o),
(172,1292,cs),
(229,1292,o),
(235,1262,o),
(235,1229,cs),
(235,263,ls),
(235,230,o),
(229,200,o),
(172,200,cs),
(118,200,o),
(60,187,o),
(60,152,cs),
(60,95,o),
(73,12,o),
(113,-11,c),
(177,-6,o),
(263,0,o),
(352,0,cs),
(446,0,o),
(534,-6,o),
(599,-11,c),
(632,12,o),
(642,95,o),
(642,152,cs),
(642,187,o),
(584,200,o),
(530,200,cs),
(467,200,o),
(466,235,o),
(466,265,cs),
(466,1225,ls),
(466,1255,o),
(467,1290,o),
(530,1290,cs),
(584,1290,o),
(642,1303,o),
(642,1338,cs),
(642,1395,o),
(632,1480,o),
(599,1503,c),
(534,1498,o),
(446,1490,o),
(352,1490,cs),
(263,1490,o),
(177,1498,o),
(113,1503,c)
);
}
);
width = 702;
},
{
anchors = (
{
name = bottom;
pos = (523,0);
},
{
name = ogonek;
pos = (851,6);
},
{
name = top;
pos = (523,1489);
},
{
name = topleft;
pos = (20,1489);
}
);
background = {
anchors = (
{
name = bottom;
pos = (523,0);
},
{
name = ogonek;
pos = (941,10);
},
{
name = top;
pos = (523,173);
},
{
name = topleft;
pos = (20,173);
}
);
shapes = (
{
closed = 1;
nodes = (
(846,1493,o),
(688,1489,o),
(532,1489,cs),
(347,1489,o),
(166,1495,o),
(119,1503,c),
(78,1476,o),
(61,1331,o),
(61,1252,cs),
(61,1198,o),
(105,1191,o),
(150,1186,cs),
(233,1177,o),
(240,1087,o),
(240,974,cs),
(240,535,ls),
(240,432,o),
(230,321,o),
(147,312,cs),
(102,307,o),
(58,301,o),
(58,247,cs),
(58,165,o),
(75,16,o),
(116,-12,c),
(164,-4,o),
(349,0,o),
(528,0,cs),
(694,0,o),
(882,-4,o),
(929,-12,c),
(970,16,o),
(987,165,o),
(987,247,cs),
(987,301,o),
(943,307,o),
(898,312,cs),
(815,321,o),
(805,432,o),
(805,535,cs),
(805,974,ls),
(805,1087,o),
(812,1177,o),
(895,1186,cs),
(940,1191,o),
(984,1198,o),
(984,1252,cs),
(984,1331,o),
(967,1476,o),
(926,1503,c)
);
}
);
};
hints = (
{
horizontal = 1;
origin = (0,30);
target = up;
type = BottomGhost;
},
{
horizontal = 1;
origin = (0,49);
target = down;
type = TopGhost;
},
{
origin = (0,15);
target = (0,40);
type = Stem;
}
);
layerId = "5152A785-FF48-4BC0-8F27-F3AFCF9810FE";
shapes = (
{
closed = 1;
nodes = (
(846,1493,o),
(688,1489,o),
(532,1489,cs),
(347,1489,o),
(166,1495,o),
(119,1503,c),
(78,1476,o),
(61,1331,o),
(61,1252,cs),
(61,1198,o),
(105,1191,o),
(150,1186,cs),
(233,1177,o),
(240,1087,o),
(240,974,cs),
(240,535,ls),
(240,432,o),
(230,321,o),
(147,312,cs),
(102,307,o),
(58,301,o),
(58,247,cs),
(58,165,o),
(75,16,o),
(116,-12,c),
(164,-4,o),
(349,0,o),
(528,0,cs),
(694,0,o),
(882,-4,o),
(929,-12,c),
(970,16,o),
(987,165,o),
(987,247,cs),
(987,301,o),
(943,307,o),
(898,312,cs),
(815,321,o),
(805,432,o),
(805,535,cs),
(805,974,ls),
(805,1087,o),
(812,1177,o),
(895,1186,cs),
(940,1191,o),
(984,1198,o),
(984,1252,cs),
(984,1331,o),
(967,1476,o),
(926,1503,c)
);
}
);
width = 1045;
}
);
note = I;
unicode = 73;
},
{
glyphname = IJ;
lastChange = "2026-02-05 15:35:32 +0000";
layers = (
{
background = {
shapes = (
{
closed = 1;
nodes = (
(83,1481,o),
(70,1398,o),
(70,1344,cs),
(70,1299,o),
(138,1292,o),
(182,1292,cs),
(239,1292,o),
(244,1262,o),
(244,1229,cs),
(244,263,ls),
(244,230,o),
(239,200,o),
(182,200,cs),
(128,200,o),
(70,187,o),
(70,152,cs),
(70,95,o),
(82,12,o),
(122,-11,c),
(186,-6,o),
(273,0,o),
(362,0,cs),
(456,0,o),
(543,-6,o),
(608,-11,c),
(641,12,o),
(652,95,o),
(652,152,cs),
(652,187,o),
(594,200,o),
(540,200,cs),
(477,200,o),
(476,235,o),
(476,265,cs),
(476,1225,ls),
(476,1255,o),
(477,1290,o),
(540,1290,cs),
(594,1290,o),
(652,1303,o),
(652,1338,cs),
(652,1395,o),
(641,1480,o),
(608,1503,c),
(543,1498,o),
(456,1490,o),
(362,1490,cs),
(273,1490,o),
(186,1498,o),
(122,1503,c)
);
},
{
closed = 1;
nodes = (
(1168,351,ls),
(1168,211,o),
(1156,106,o),
(1054,106,cs),
(936,106,o),
(1004,199,o),
(872,199,cs),
(813,199,o),
(753,164,o),
(753,104,cs),
(753,-41,o),
(940,-85,o),
(1062,-85,cs),
(1350,-85,o),
(1398,145,o),
(1398,375,cs),
(1398,1225,ls),
(1398,1255,o),
(1399,1290,o),
(1462,1290,cs),
(1516,1290,o),
(1574,1303,o),
(1574,1338,cs),
(1574,1395,o),
(1564,1475,o),
(1531,1498,c),
(1466,1493,o),
(1378,1490,o),
(1284,1490,cs),
(1195,1490,o),
(1109,1493,o),
(1045,1498,c),
(1005,1475,o),
(992,1395,o),
(992,1338,cs),
(992,1303,o),
(1050,1290,o),
(1104,1290,cs),
(1161,1290,o),
(1167,1260,o),
(1167,1227,cs)
);
}
);
};
layerId = m01;
shapes = (
{
ref = I;
},
{
pos = (702,0);
ref = J;
}
);
width = 1659;
},
{
background = {
shapes = (
{
closed = 1;
nodes = (
(1580,510,ls),
(1580,222,o),
(1516,160,o),
(1440,160,cs),
(1330,160,o),
(1392,309,o),
(1260,309,cs),
(1170,309,o),
(1111,247,o),
(1111,170,cs),
(1111,44,o),
(1257,-72,o),
(1596,-72,cs),
(1964,-72,o),
(2145,66,o),
(2145,490,cs),
(2145,974,ls),
(2145,1087,o),
(2152,1177,o),
(2235,1186,cs),
(2280,1191,o),
(2324,1198,o),
(2324,1252,cs),
(2324,1331,o),
(2307,1476,o),
(2266,1503,c),
(2186,1493,o),
(2028,1489,o),
(1872,1489,cs),
(1687,1489,o),
(1506,1495,o),
(1459,1503,c),
(1418,1476,o),
(1401,1331,o),
(1401,1252,cs),
(1401,1198,o),
(1445,1191,o),
(1490,1186,cs),
(1573,1177,o),
(1580,1087,o),
(1580,974,cs)
);
},
{
closed = 1;
nodes = (
(846,1493,o),
(688,1489,o),
(532,1489,cs),
(347,1489,o),
(166,1495,o),
(119,1503,c),
(78,1476,o),
(61,1331,o),
(61,1252,cs),
(61,1198,o),
(105,1191,o),
(150,1186,cs),
(233,1177,o),
(240,1087,o),
(240,974,cs),
(240,535,ls),
(240,432,o),
(230,321,o),
(147,312,cs),
(102,307,o),
(58,301,o),
(58,247,cs),
(58,165,o),
(75,16,o),
(116,-12,c),
(164,-4,o),
(349,0,o),
(528,0,cs),
(694,0,o),
(882,-4,o),
(929,-12,c),
(970,16,o),
(987,165,o),
(987,247,cs),
(987,301,o),
(943,307,o),
(898,312,cs),
(815,321,o),
(805,432,o),
(805,535,cs),
(805,974,ls),
(805,1087,o),
(812,1177,o),
(895,1186,cs),
(940,1191,o),
(984,1198,o),
(984,1252,cs),
(984,1331,o),
(967,1476,o),
(926,1503,c)
);
}
);
};
layerId = "5152A785-FF48-4BC0-8F27-F3AFCF9810FE";
shapes = (
{
ref = I;
},
{
pos = (1045,0);
ref = J;
}
);
width = 2358;
}
);
note = IJ;
unicode = 306;
},
{
glyphname = Iacute;
lastChange = "2026-02-05 15:39:25 +0000";
layers = (
{
background = {
shapes = (
{
closed = 1;
nodes = (
(411,1614,l),
(527,1703,o),
(714,1866,o),
(752,1903,cs),
(816,1966,o),
(870,1999,o),
(870,2029,cs),
(870,2071,o),
(831,2090,o),
(723,2090,cs),
(628,2090,o),
(596,2067,o),
(552,1997,cs),
(502,1918,o),
(357,1698,o),
(300,1614,c)
);
},
{
closed = 1;
nodes = (
(74,1481,o),
(60,1398,o),
(60,1344,cs),
(60,1299,o),
(128,1292,o),
(172,1292,cs),
(229,1292,o),
(235,1262,o),
(235,1229,cs),
(235,263,ls),
(235,230,o),
(229,200,o),
(172,200,cs),
(118,200,o),
(60,187,o),
(60,152,cs),
(60,95,o),
(73,12,o),
(113,-11,c),
(177,-6,o),
(263,0,o),
(352,0,cs),
(446,0,o),
(534,-6,o),
(599,-11,c),
(632,12,o),
(642,95,o),
(642,152,cs),
(642,187,o),
(584,200,o),
(530,200,cs),
(467,200,o),
(466,235,o),
(466,265,cs),
(466,1225,ls),
(466,1255,o),
(467,1290,o),
(530,1290,cs),
(584,1290,o),
(642,1303,o),
(642,1338,cs),
(642,1395,o),
(632,1480,o),
(599,1503,c),
(534,1498,o),
(446,1490,o),
(352,1490,cs),
(263,1490,o),
(177,1498,o),
(113,1503,c)
);
}
);
};
layerId = m01;
shapes = (
{
ref = I;
},
{
pos = (193,422);
ref = acutecomb;
}
);
width = 702;
},
{
background = {
shapes = (
{
closed = 1;
nodes = (
(576,1618,l),
(692,1707,o),
(878,1870,o),
(916,1907,cs),
(980,1970,o),
(1034,2003,o),
(1034,2033,cs),
(1034,2075,o),
(996,2094,o),
(888,2094,cs),
(793,2094,o),
(760,2071,o),
(716,2001,cs),
(666,1922,o),
(521,1702,o),
(464,1618,c)
);
},
{
closed = 1;
nodes = (
(846,1493,o),
(688,1489,o),
(532,1489,cs),
(347,1489,o),
(166,1495,o),
(119,1503,c),
(78,1476,o),
(61,1331,o),
(61,1252,cs),
(61,1198,o),
(105,1191,o),
(150,1186,cs),
(233,1177,o),
(240,1087,o),
(240,974,cs),
(240,535,ls),
(240,432,o),
(230,321,o),
(147,312,cs),
(102,307,o),
(58,301,o),
(58,247,cs),
(58,165,o),
(75,16,o),
(116,-12,c),
(164,-4,o),
(349,0,o),
(528,0,cs),
(694,0,o),
(882,-4,o),
(929,-12,c),
(970,16,o),
(987,165,o),
(987,247,cs),
(987,301,o),
(943,307,o),
(898,312,cs),
(815,321,o),
(805,432,o),
(805,535,cs),
(805,974,ls),
(805,1087,o),
(812,1177,o),
(895,1186,cs),
(940,1191,o),
(984,1198,o),
(984,1252,cs),
(984,1331,o),
(967,1476,o),
(926,1503,c)
);
}
);
};
layerId = "5152A785-FF48-4BC0-8F27-F3AFCF9810FE";
shapes = (
{
ref = I;
},
{
pos = (358,422);
ref = acutecomb;
}
);
width = 1045;
}
);
note = Iacute;
unicode = 205;
},
{
glyphname = Ibreve;
lastChange = "2026-02-05 15:38:49 +0000";
layers = (
{
background = {
shapes = (
{
closed = 1;
nodes = (
(527,1614,o),
(658,1712,o),
(674,1895,c),
(480,1895,l),
(480,1798,o),
(418,1750,o),
(356,1750,cs),
(294,1750,o),
(232,1798,o),
(232,1895,c),
(38,1895,l),
(54,1712,o),
(184,1614,o),
(358,1614,cs)
);
},
{
closed = 1;
nodes = (
(74,1481,o),
(60,1398,o),
(60,1344,cs),
(60,1299,o),
(128,1292,o),
(172,1292,cs),
(229,1292,o),
(235,1262,o),
(235,1229,cs),
(235,263,ls),
(235,230,o),
(229,200,o),
(172,200,cs),
(118,200,o),
(60,187,o),
(60,152,cs),
(60,95,o),
(73,12,o),
(113,-11,c),
(177,-6,o),
(263,0,o),
(352,0,cs),
(446,0,o),
(534,-6,o),
(599,-11,c),
(632,12,o),
(642,95,o),
(642,152,cs),
(642,187,o),
(584,200,o),
(530,200,cs),
(467,200,o),
(466,235,o),
(466,265,cs),
(466,1225,ls),
(466,1255,o),
(467,1290,o),
(530,1290,cs),
(584,1290,o),
(642,1303,o),
(642,1338,cs),
(642,1395,o),
(632,1480,o),
(599,1503,c),
(534,1498,o),
(446,1490,o),
(352,1490,cs),
(263,1490,o),
(177,1498,o),
(113,1503,c)
);
}
);
};
layerId = m01;
shapes = (
{
ref = I;
},
{
pos = (-201,422);
ref = brevecomb;
}
);
width = 702;
},
{
background = {
shapes = (
{
closed = 1;
nodes = (
(734,1618,o),
(906,1734,o),
(926,1949,c),
(632,1949,l),
(630,1857,o),
(605,1808,o),
(520,1808,cs),
(435,1808,o),
(416,1857,o),
(414,1949,c),
(120,1949,l),
(140,1734,o),
(306,1618,o),
(520,1618,cs)
);
},
{
closed = 1;
nodes = (
(846,1493,o),
(688,1489,o),
(532,1489,cs),
(347,1489,o),
(166,1495,o),
(119,1503,c),
(78,1476,o),
(61,1331,o),
(61,1252,cs),
(61,1198,o),
(105,1191,o),
(150,1186,cs),
(233,1177,o),
(240,1087,o),
(240,974,cs),
(240,535,ls),
(240,432,o),
(230,321,o),
(147,312,cs),
(102,307,o),
(58,301,o),
(58,247,cs),
(58,165,o),
(75,16,o),
(116,-12,c),
(164,-4,o),
(349,0,o),
(528,0,cs),
(694,0,o),
(882,-4,o),
(929,-12,c),
(970,16,o),
(987,165,o),
(987,247,cs),
(987,301,o),
(943,307,o),
(898,312,cs),
(815,321,o),
(805,432,o),
(805,535,cs),
(805,974,ls),
(805,1087,o),
(812,1177,o),
(895,1186,cs),
(940,1191,o),
(984,1198,o),
(984,1252,cs),
(984,1331,o),
(967,1476,o),
(926,1503,c)
);
}
);
};
layerId = "5152A785-FF48-4BC0-8F27-F3AFCF9810FE";
shapes = (
{
ref = I;
},
{
pos = (37,422);
ref = brevecomb;
}
);
width = 1045;
}
);
note = Ibreve;
unicode = 300;
},
{
glyphname = Icircumflex;
lastChange = "2026-02-05 15:41:33 +0000";
layers = (
{
background = {
shapes = (
{
closed = 1;
nodes = (
(306,2090,l),
(218,2001,o),
(83,1839,o),
(54,1802,cs),
(5,1740,o),
(-33,1705,o),
(-33,1675,cs),
(-33,1633,o),
(-11,1614,o),
(54,1614,cs),
(123,1614,o),
(142,1639,o),
(180,1687,cs),
(361,1918,l),
(542,1687,ls),
(580,1639,o),
(599,1614,o),
(668,1614,cs),
(726,1614,o),
(745,1633,o),
(745,1675,cs),
(745,1705,o),
(707,1740,o),
(658,1802,cs),
(629,1839,o),
(493,2001,o),
(406,2090,c)
);
},
{
closed = 1;
nodes = (
(74,1481,o),
(60,1398,o),
(60,1344,cs),
(60,1299,o),
(128,1292,o),
(172,1292,cs),
(229,1292,o),
(235,1262,o),
(235,1229,cs),
(235,263,ls),
(235,230,o),
(229,200,o),
(172,200,cs),
(118,200,o),
(60,187,o),
(60,152,cs),
(60,95,o),
(73,12,o),
(113,-11,c),
(177,-6,o),
(263,0,o),
(352,0,cs),
(446,0,o),
(534,-6,o),
(599,-11,c),
(632,12,o),
(642,95,o),
(642,152,cs),
(642,187,o),
(584,200,o),
(530,200,cs),
(467,200,o),
(466,235,o),
(466,265,cs),
(466,1225,ls),
(466,1255,o),
(467,1290,o),
(530,1290,cs),
(584,1290,o),
(642,1303,o),
(642,1338,cs),
(642,1395,o),
(632,1480,o),
(599,1503,c),
(534,1498,o),
(446,1490,o),
(352,1490,cs),
(263,1490,o),
(177,1498,o),
(113,1503,c)
);
}
);
};
layerId = m01;
shapes = (
{
ref = I;
},
{
pos = (-109,422);
ref = circumflexcomb;
}
);
width = 702;
},
{
background = {
shapes = (
{
closed = 1;
nodes = (
(447,2094,l),
(350,2005,o),
(197,1843,o),
(166,1805,cs),
(116,1744,o),
(78,1709,o),
(78,1679,cs),
(78,1637,o),
(114,1618,o),
(215,1618,cs),
(299,1618,o),
(324,1643,o),
(371,1691,c),
(522,1882,l),
(673,1691,l),
(720,1643,o),
(745,1618,o),
(829,1618,cs),
(930,1618,o),
(966,1637,o),
(966,1679,cs),
(966,1709,o),
(928,1744,o),
(878,1805,cs),
(847,1843,o),
(694,2005,o),
(597,2094,c)
);
},
{
closed = 1;
nodes = (
(846,1493,o),
(688,1489,o),
(532,1489,cs),
(347,1489,o),
(166,1495,o),
(119,1503,c),
(78,1476,o),
(61,1331,o),
(61,1252,cs),
(61,1198,o),
(105,1191,o),
(150,1186,cs),
(233,1177,o),
(240,1087,o),
(240,974,cs),
(240,535,ls),
(240,432,o),
(230,321,o),
(147,312,cs),
(102,307,o),
(58,301,o),
(58,247,cs),
(58,165,o),
(75,16,o),
(116,-12,c),
(164,-4,o),
(349,0,o),
(528,0,cs),
(694,0,o),
(882,-4,o),
(929,-12,c),
(970,16,o),
(987,165,o),
(987,247,cs),
(987,301,o),
(943,307,o),
(898,312,cs),
(815,321,o),
(805,432,o),
(805,535,cs),
(805,974,ls),
(805,1087,o),
(812,1177,o),
(895,1186,cs),
(940,1191,o),
(984,1198,o),
(984,1252,cs),
(984,1331,o),
(967,1476,o),
(926,1503,c)
);
}
);
};
layerId = "5152A785-FF48-4BC0-8F27-F3AFCF9810FE";
shapes = (
{
ref = I;
},
{
pos = (-4,422);
ref = circumflexcomb;
}
);
width = 1045;
}
);
note = Icircumflex;
unicode = 206;
},
{
glyphname = Idieresis;
lastChange = "2026-02-05 15:38:49 +0000";
layers = (
{
background = {
shapes = (
{
closed = 1;
nodes = (
(-88,1681,o),
(-42,1614,o),
(64,1614,cs),
(168,1614,o),
(211,1683,o),
(211,1750,cs),
(211,1818,o),
(168,1886,o),
(64,1886,cs),
(-42,1886,o),
(-88,1820,o),
(-88,1750,cs)
);
},
{
closed = 1;
nodes = (
(502,1681,o),
(548,1614,o),
(654,1614,cs),
(759,1614,o),
(801,1683,o),
(801,1750,cs),
(801,1818,o),
(759,1886,o),
(654,1886,cs),
(548,1886,o),
(502,1820,o),
(502,1750,cs)
);
},
{
closed = 1;
nodes = (
(74,1481,o),
(60,1398,o),
(60,1344,cs),
(60,1299,o),
(128,1292,o),
(172,1292,cs),
(229,1292,o),
(235,1262,o),
(235,1229,cs),
(235,263,ls),
(235,230,o),
(229,200,o),
(172,200,cs),
(118,200,o),
(60,187,o),
(60,152,cs),
(60,95,o),
(73,12,o),
(113,-11,c),
(177,-6,o),
(263,0,o),
(352,0,cs),
(446,0,o),
(534,-6,o),
(599,-11,c),
(632,12,o),
(642,95,o),
(642,152,cs),
(642,187,o),
(584,200,o),
(530,200,cs),
(467,200,o),
(466,235,o),
(466,265,cs),
(466,1225,ls),
(466,1255,o),
(467,1290,o),
(530,1290,cs),
(584,1290,o),
(642,1303,o),
(642,1338,cs),
(642,1395,o),
(632,1480,o),
(599,1503,c),
(534,1498,o),
(446,1490,o),
(352,1490,cs),
(263,1490,o),
(177,1498,o),
(113,1503,c)
);
}
);
};
layerId = m01;
shapes = (
{
ref = I;
},
{
pos = (-137,422);
ref = dieresiscomb;
}
);
width = 702;
},
{
background = {
shapes = (
{
closed = 1;
nodes = (
(70,1708,o),
(132,1618,o),
(275,1618,cs),
(416,1618,o),
(473,1711,o),
(473,1802,cs),
(473,1893,o),
(416,1985,o),
(275,1985,cs),
(132,1985,o),
(70,1896,o),
(70,1802,cs)
);
},
{
closed = 1;
nodes = (
(583,1708,o),
(645,1618,o),
(788,1618,cs),
(929,1618,o),
(986,1711,o),
(986,1802,cs),
(986,1893,o),
(929,1985,o),
(788,1985,cs),
(645,1985,o),
(583,1896,o),
(583,1802,cs)
);
},
{
closed = 1;
nodes = (
(846,1493,o),
(688,1489,o),
(532,1489,cs),
(347,1489,o),
(166,1495,o),
(119,1503,c),
(78,1476,o),
(61,1331,o),
(61,1252,cs),
(61,1198,o),
(105,1191,o),
(150,1186,cs),
(233,1177,o),
(240,1087,o),
(240,974,cs),
(240,535,ls),
(240,432,o),
(230,321,o),
(147,312,cs),
(102,307,o),
(58,301,o),
(58,247,cs),
(58,165,o),
(75,16,o),
(116,-12,c),
(164,-4,o),
(349,0,o),
(528,0,cs),
(694,0,o),
(882,-4,o),
(929,-12,c),
(970,16,o),
(987,165,o),
(987,247,cs),
(987,301,o),
(943,307,o),
(898,312,cs),
(815,321,o),
(805,432,o),
(805,535,cs),
(805,974,ls),
(805,1087,o),
(812,1177,o),
(895,1186,cs),
(940,1191,o),
(984,1198,o),
(984,1252,cs),
(984,1331,o),
(967,1476,o),
(926,1503,c)
);
}
);
};
layerId = "5152A785-FF48-4BC0-8F27-F3AFCF9810FE";
shapes = (
{
ref = I;
},
{
pos = (-10,422);
ref = dieresiscomb;
}
);
width = 1045;
}
);
note = Idieresis;
unicode = 207;
},
{
glyphname = Idotaccent;
lastChange = "2026-02-05 15:38:49 +0000";
layers = (
{
background = {
shapes = (
{
closed = 1;
nodes = (
(178,1694,o),
(233,1614,o),
(359,1614,cs),
(484,1614,o),
(534,1697,o),
(534,1777,cs),
(534,1858,o),
(484,1940,o),
(359,1940,cs),
(233,1940,o),
(178,1861,o),
(178,1777,cs)
);
},
{
closed = 1;
nodes = (
(74,1481,o),
(60,1398,o),
(60,1344,cs),
(60,1299,o),
(128,1292,o),
(172,1292,cs),
(229,1292,o),
(235,1262,o),
(235,1229,cs),
(235,263,ls),
(235,230,o),
(229,200,o),
(172,200,cs),
(118,200,o),
(60,187,o),
(60,152,cs),
(60,95,o),
(73,12,o),
(113,-11,c),
(177,-6,o),
(263,0,o),
(352,0,cs),
(446,0,o),
(534,-6,o),
(599,-11,c),
(632,12,o),
(642,95,o),
(642,152,cs),
(642,187,o),
(584,200,o),
(530,200,cs),
(467,200,o),
(466,235,o),
(466,265,cs),
(466,1225,ls),
(466,1255,o),
(467,1290,o),
(530,1290,cs),
(584,1290,o),
(642,1303,o),
(642,1338,cs),
(642,1395,o),
(632,1480,o),
(599,1503,c),
(534,1498,o),
(446,1490,o),
(352,1490,cs),
(263,1490,o),
(177,1498,o),
(113,1503,c)
);
}
);
};
layerId = m01;
shapes = (
{
ref = I;
},
{
pos = (60,422);
ref = dotaccentcomb;
}
);
width = 702;
},
{
background = {
shapes = (
{
closed = 1;
nodes = (
(283,1725,o),
(357,1618,o),
(526,1618,cs),
(694,1618,o),
(761,1729,o),
(761,1837,cs),
(761,1945,o),
(694,2056,o),
(526,2056,cs),
(357,2056,o),
(283,1949,o),
(283,1837,cs)
);
},
{
closed = 1;
nodes = (
(846,1493,o),
(688,1489,o),
(532,1489,cs),
(347,1489,o),
(166,1495,o),
(119,1503,c),
(78,1476,o),
(61,1331,o),
(61,1252,cs),
(61,1198,o),
(105,1191,o),
(150,1186,cs),
(233,1177,o),
(240,1087,o),
(240,974,cs),
(240,535,ls),
(240,432,o),
(230,321,o),
(147,312,cs),
(102,307,o),
(58,301,o),
(58,247,cs),
(58,165,o),
(75,16,o),
(116,-12,c),
(164,-4,o),
(349,0,o),
(528,0,cs),
(694,0,o),
(882,-4,o),
(929,-12,c),
(970,16,o),
(987,165,o),
(987,247,cs),
(987,301,o),
(943,307,o),
(898,312,cs),
(815,321,o),
(805,432,o),
(805,535,cs),
(805,974,ls),
(805,1087,o),
(812,1177,o),
(895,1186,cs),
(940,1191,o),
(984,1198,o),
(984,1252,cs),
(984,1331,o),
(967,1476,o),
(926,1503,c)
);
}
);
};
layerId = "5152A785-FF48-4BC0-8F27-F3AFCF9810FE";
shapes = (
{
ref = I;
},
{
pos = (196,422);
ref = dotaccentcomb;
}
);
width = 1045;
}
);
note = Idot;
unicode = 304;
},
{
glyphname = Igrave;
lastChange = "2026-02-05 15:53:22 +0000";
layers = (
{
background = {
shapes = (
{
closed = 1;
nodes = (
(412,1614,l),
(355,1698,o),
(210,1918,o),
(160,1997,cs),
(116,2067,o),
(84,2090,o),
(-11,2090,cs),
(-119,2090,o),
(-158,2071,o),
(-158,2029,cs),
(-158,1999,o),
(-104,1966,o),
(-40,1903,cs),
(-2,1866,o),
(185,1703,o),
(301,1614,c)
);
},
{
closed = 1;
nodes = (
(74,1481,o),
(60,1398,o),
(60,1344,cs),
(60,1299,o),
(128,1292,o),
(172,1292,cs),
(229,1292,o),
(235,1262,o),
(235,1229,cs),
(235,263,ls),
(235,230,o),
(229,200,o),
(172,200,cs),
(118,200,o),
(60,187,o),
(60,152,cs),
(60,95,o),
(73,12,o),
(113,-11,c),
(177,-6,o),
(263,0,o),
(352,0,cs),
(446,0,o),
(534,-6,o),
(599,-11,c),
(632,12,o),
(642,95,o),
(642,152,cs),
(642,187,o),
(584,200,o),
(530,200,cs),
(467,200,o),
(466,235,o),
(466,265,cs),
(466,1225,ls),
(466,1255,o),
(467,1290,o),
(530,1290,cs),
(584,1290,o),
(642,1303,o),
(642,1338,cs),
(642,1395,o),
(632,1480,o),
(599,1503,c),
(534,1498,o),
(446,1490,o),
(352,1490,cs),
(263,1490,o),
(177,1498,o),
(113,1503,c)
);
}
);
};
layerId = m01;
shapes = (
{
ref = I;
},
{
pos = (-205,422);
ref = gravecomb;
}
);
width = 702;
},
{
background = {
shapes = (
{
closed = 1;
nodes = (
(598,1618,l),
(549,1702,o),
(433,1925,o),
(386,2001,cs),
(341,2074,o),
(302,2094,o),
(195,2094,cs),
(80,2094,o),
(38,2075,o),
(38,2033,cs),
(38,2003,o),
(87,1970,o),
(146,1907,cs),
(180,1870,o),
(343,1707,o),
(447,1618,c)
);
},
{
closed = 1;
nodes = (
(846,1493,o),
(688,1489,o),
(532,1489,cs),
(347,1489,o),
(166,1495,o),
(119,1503,c),
(78,1476,o),
(61,1331,o),
(61,1252,cs),
(61,1198,o),
(105,1191,o),
(150,1186,cs),
(233,1177,o),
(240,1087,o),
(240,974,cs),
(240,535,ls),
(240,432,o),
(230,321,o),
(147,312,cs),
(102,307,o),
(58,301,o),
(58,247,cs),
(58,165,o),
(75,16,o),
(116,-12,c),
(164,-4,o),
(349,0,o),
(528,0,cs),
(694,0,o),
(882,-4,o),
(929,-12,c),
(970,16,o),
(987,165,o),
(987,247,cs),
(987,301,o),
(943,307,o),
(898,312,cs),
(815,321,o),
(805,432,o),
(805,535,cs),
(805,974,ls),
(805,1087,o),
(812,1177,o),
(895,1186,cs),
(940,1191,o),
(984,1198,o),
(984,1252,cs),
(984,1331,o),
(967,1476,o),
(926,1503,c)
);
}
);
};
layerId = "5152A785-FF48-4BC0-8F27-F3AFCF9810FE";
shapes = (
{
ref = I;
},
{
pos = (-123,422);
ref = gravecomb;
}
);
width = 1045;
}
);
note = Igrave;
unicode = 204;
},
{
glyphname = Imacron;
lastChange = "2026-02-05 15:38:49 +0000";
layers = (
{
background = {
shapes = (
{
closed = 1;
nodes = (
(652,1614,ls),
(691,1614,o),
(699,1659,o),
(699,1698,cs),
(699,1750,o),
(684,1763,o),
(651,1763,cs),
(64,1763,ls),
(29,1763,o),
(18,1730,o),
(18,1686,cs),
(18,1651,o),
(24,1614,o),
(56,1614,cs)
);
},
{
closed = 1;
nodes = (
(74,1481,o),
(60,1398,o),
(60,1344,cs),
(60,1299,o),
(128,1292,o),
(172,1292,cs),
(229,1292,o),
(235,1262,o),
(235,1229,cs),
(235,263,ls),
(235,230,o),
(229,200,o),
(172,200,cs),
(118,200,o),
(60,187,o),
(60,152,cs),
(60,95,o),
(73,12,o),
(113,-11,c),
(177,-6,o),
(263,0,o),
(352,0,cs),
(446,0,o),
(534,-6,o),
(599,-11,c),
(632,12,o),
(642,95,o),
(642,152,cs),
(642,187,o),
(584,200,o),
(530,200,cs),
(467,200,o),
(466,235,o),
(466,265,cs),
(466,1225,ls),
(466,1255,o),
(467,1290,o),
(530,1290,cs),
(584,1290,o),
(642,1303,o),
(642,1338,cs),
(642,1395,o),
(632,1480,o),
(599,1503,c),
(534,1498,o),
(446,1490,o),
(352,1490,cs),
(263,1490,o),
(177,1498,o),
(113,1503,c)
);
}
);
};
layerId = m01;
shapes = (
{
ref = I;
},
{
pos = (-56,422);
ref = macroncomb;
}
);
width = 702;
},
{
background = {
shapes = (
{
closed = 1;
nodes = (
(261,1620,o),
(341,1618,o),
(422,1618,cs),
(556,1618,o),
(718,1619,o),
(851,1619,cs),
(891,1619,o),
(898,1699,o),
(898,1764,cs),
(898,1872,o),
(883,1899,o),
(850,1899,cs),
(614,1899,ls),
(455,1899,o),
(318,1902,o),
(193,1902,cs),
(158,1902,o),
(147,1837,o),
(147,1752,cs),
(147,1687,o),
(153,1620,o),
(185,1620,cs)
);
},
{
closed = 1;
nodes = (
(846,1493,o),
(688,1489,o),
(532,1489,cs),
(347,1489,o),
(166,1495,o),
(119,1503,c),
(78,1476,o),
(61,1331,o),
(61,1252,cs),
(61,1198,o),
(105,1191,o),
(150,1186,cs),
(233,1177,o),
(240,1087,o),
(240,974,cs),
(240,535,ls),
(240,432,o),
(230,321,o),
(147,312,cs),
(102,307,o),
(58,301,o),
(58,247,cs),
(58,165,o),
(75,16,o),
(116,-12,c),
(164,-4,o),
(349,0,o),
(528,0,cs),
(694,0,o),
(882,-4,o),
(929,-12,c),
(970,16,o),
(987,165,o),
(987,247,cs),
(987,301,o),
(943,307,o),
(898,312,cs),
(815,321,o),
(805,432,o),
(805,535,cs),
(805,974,ls),
(805,1087,o),
(812,1177,o),
(895,1186,cs),
(940,1191,o),
(984,1198,o),
(984,1252,cs),
(984,1331,o),
(967,1476,o),
(926,1503,c)
);
}
);
};
layerId = "5152A785-FF48-4BC0-8F27-F3AFCF9810FE";
shapes = (
{
ref = I;
},
{
pos = (65,422);
ref = macroncomb;
}
);
width = 1045;
}
);
note = Imacron;
unicode = 298;
},
{
glyphname = Iogonek;
lastChange = "2026-02-05 15:44:44 +0000";
layers = (
{
background = {
shapes = (
{
closed = 1;
nodes = (
(629,-268,l),
(591,-285,o),
(535,-303,o),
(489,-303,cs),
(446,-303,o),
(412,-283,o),
(412,-220,cs),
(412,-152,o),
(467,-55,o),
(560,-9,c),
(560,91,l),
(354,5,o),
(247,-145,o),
(247,-263,cs),
(247,-394,o),
(340,-458,o),
(473,-458,cs),
(532,-458,o),
(602,-442,o),
(673,-411,c)
);
},
{
closed = 1;
nodes = (
(74,1481,o),
(60,1398,o),
(60,1344,cs),
(60,1299,o),
(128,1292,o),
(172,1292,cs),
(229,1292,o),
(235,1262,o),
(235,1229,cs),
(235,263,ls),
(235,230,o),
(229,200,o),
(172,200,cs),
(118,200,o),
(60,187,o),
(60,152,cs),
(60,95,o),
(73,12,o),
(113,-11,c),
(177,-6,o),
(263,0,o),
(352,0,cs),
(446,0,o),
(534,-6,o),
(599,-11,c),
(632,12,o),
(642,95,o),
(642,152,cs),
(642,187,o),
(584,200,o),
(530,200,cs),
(467,200,o),
(466,235,o),
(466,265,cs),
(466,1225,ls),
(466,1255,o),
(467,1290,o),
(530,1290,cs),
(584,1290,o),
(642,1303,o),
(642,1338,cs),
(642,1395,o),
(632,1480,o),
(599,1503,c),
(534,1498,o),
(446,1490,o),
(352,1490,cs),
(263,1490,o),
(177,1498,o),
(113,1503,c)
);
}
);
};
layerId = m01;
shapes = (
{
ref = I;
},
{
pos = (161,-10);
ref = ogonekcomb;
}
);
width = 702;
},
{
background = {
shapes = (
{
closed = 1;
nodes = (
(915,-241,l),
(883,-258,o),
(835,-276,o),
(795,-276,cs),
(752,-276,o),
(718,-256,o),
(718,-193,cs),
(718,-131,o),
(765,-44,o),
(846,-2,c),
(846,98,l),
(640,12,o),
(533,-138,o),
(533,-256,cs),
(533,-387,o),
(626,-451,o),
(759,-451,cs),
(824,-451,o),
(900,-435,o),
(979,-404,c)
);
},
{
closed = 1;
nodes = (
(846,1493,o),
(688,1489,o),
(532,1489,cs),
(347,1489,o),
(166,1495,o),
(119,1503,c),
(78,1476,o),
(61,1331,o),
(61,1252,cs),
(61,1198,o),
(105,1191,o),
(150,1186,cs),
(233,1177,o),
(240,1087,o),
(240,974,cs),
(240,535,ls),
(240,432,o),
(230,321,o),
(147,312,cs),
(102,307,o),
(58,301,o),
(58,247,cs),
(58,165,o),
(75,16,o),
(116,-12,c),
(164,-4,o),
(349,0,o),
(528,0,cs),
(694,0,o),
(882,-4,o),
(929,-12,c),
(970,16,o),
(987,165,o),
(987,247,cs),
(987,301,o),
(943,307,o),
(898,312,cs),
(815,321,o),
(805,432,o),
(805,535,cs),
(805,974,ls),
(805,1087,o),
(812,1177,o),
(895,1186,cs),
(940,1191,o),
(984,1198,o),
(984,1252,cs),
(984,1331,o),
(967,1476,o),
(926,1503,c)
);
}
);
};
layerId = "5152A785-FF48-4BC0-8F27-F3AFCF9810FE";
shapes = (
{
ref = I;
},
{
pos = (444,6);
ref = ogonekcomb;
}
);
width = 1045;
}
);
note = Iogonek;
unicode = 302;
},
{
glyphname = Itilde;
lastChange = "2026-02-05 15:38:49 +0000";
layers = (
{
background = {
shapes = (
{
closed = 1;
nodes = (
(735,1835,l),
(707,1842,o),
(658,1853,o),
(617,1853,cs),
(593,1853,o),
(572,1850,o),
(572,1850,c),
(568,1803,o),
(554,1777,o),
(524,1777,cs),
(462,1777,o),
(286,1873,o),
(155,1873,cs),
(38,1873,o),
(-9,1780,o),
(-20,1676,cs),
(-23,1648,l),
(-23,1634,o),
(51,1621,o),
(95,1621,cs),
(119,1621,o),
(138,1623,o),
(142,1629,c),
(148,1678,o),
(157,1705,o),
(190,1705,cs),
(264,1705,o),
(447,1614,o),
(576,1614,cs),
(672,1614,o),
(724,1696,o),
(733,1810,cs)
);
},
{
closed = 1;
nodes = (
(74,1481,o),
(60,1398,o),
(60,1344,cs),
(60,1299,o),
(128,1292,o),
(172,1292,cs),
(229,1292,o),
(235,1262,o),
(235,1229,cs),
(235,263,ls),
(235,230,o),
(229,200,o),
(172,200,cs),
(118,200,o),
(60,187,o),
(60,152,cs),
(60,95,o),
(73,12,o),
(113,-11,c),
(177,-6,o),
(263,0,o),
(352,0,cs),
(446,0,o),
(534,-6,o),
(599,-11,c),
(632,12,o),
(642,95,o),
(642,152,cs),
(642,187,o),
(584,200,o),
(530,200,cs),
(467,200,o),
(466,235,o),
(466,265,cs),
(466,1225,ls),
(466,1255,o),
(467,1290,o),
(530,1290,cs),
(584,1290,o),
(642,1303,o),
(642,1338,cs),
(642,1395,o),
(632,1480,o),
(599,1503,c),
(534,1498,o),
(446,1490,o),
(352,1490,cs),
(263,1490,o),
(177,1498,o),
(113,1503,c)
);
}
);
};
layerId = m01;
shapes = (
{
ref = I;
},
{
pos = (-149,422);
ref = tildecomb;
}
);
width = 702;
},
{
background = {
shapes = (
{
closed = 1;
nodes = (
(905,1994,o),
(869,1996,o),
(833,1996,cs),
(777,1996,o),
(719,1989,o),
(719,1988,cs),
(719,1919,ls),
(719,1889,o),
(696,1875,o),
(670,1875,cs),
(615,1875,o),
(434,1986,o),
(306,1986,cs),
(137,1986,o),
(83,1877,o),
(83,1761,cs),
(83,1718,o),
(89,1674,o),
(98,1633,cs),
(100,1623,o),
(162,1618,o),
(224,1618,cs),
(272,1618,o),
(320,1623,o),
(323,1633,c),
(323,1633,o),
(322,1679,o),
(322,1697,cs),
(322,1723,o),
(328,1747,o),
(368,1747,cs),
(428,1747,o),
(610,1625,o),
(753,1625,cs),
(904,1625,o),
(961,1724,o),
(961,1847,cs),
(961,1892,o),
(949,1941,o),
(930,1990,c)
);
},
{
closed = 1;
nodes = (
(846,1493,o),
(688,1489,o),
(532,1489,cs),
(347,1489,o),
(166,1495,o),
(119,1503,c),
(78,1476,o),
(61,1331,o),
(61,1252,cs),
(61,1198,o),
(105,1191,o),
(150,1186,cs),
(233,1177,o),
(240,1087,o),
(240,974,cs),
(240,535,ls),
(240,432,o),
(230,321,o),
(147,312,cs),
(102,307,o),
(58,301,o),
(58,247,cs),
(58,165,o),
(75,16,o),
(116,-12,c),
(164,-4,o),
(349,0,o),
(528,0,cs),
(694,0,o),
(882,-4,o),
(929,-12,c),
(970,16,o),
(987,165,o),
(987,247,cs),
(987,301,o),
(943,307,o),
(898,312,cs),
(815,321,o),
(805,432,o),
(805,535,cs),
(805,974,ls),
(805,1087,o),
(812,1177,o),
(895,1186,cs),
(940,1191,o),
(984,1198,o),
(984,1252,cs),
(984,1331,o),
(967,1476,o),
(926,1503,c)
);
}
);
};
layerId = "5152A785-FF48-4BC0-8F27-F3AFCF9810FE";
shapes = (
{
ref = I;
},
{
pos = (-10,422);
ref = tildecomb;
}
);
width = 1045;
}
);
note = Itilde;
unicode = 296;
},
{
glyphname = J;
lastChange = "2026-02-05 15:52:47 +0000";
layers = (
{
anchors = (
{
name = bottom;
pos = (479,0);
},
{
name = top;
pos = (589,1509);
}
);
background = {
shapes = (
{
closed = 1;
nodes = (
(482,351,ls),
(482,211,o),
(470,106,o),
(368,106,cs),
(244,106,o),
(315,229,o),
(176,229,cs),
(117,229,o),
(57,194,o),
(57,134,cs),
(57,-34,o),
(250,-85,o),
(376,-85,cs),
(664,-85,o),
(712,145,o),
(712,375,cs),
(712,1225,ls),
(712,1255,o),
(713,1290,o),
(776,1290,cs),
(830,1290,o),
(888,1303,o),
(888,1338,cs),
(888,1395,o),
(878,1475,o),
(845,1498,c),
(780,1493,o),
(692,1490,o),
(598,1490,cs),
(509,1490,o),
(423,1493,o),
(359,1498,c),
(319,1475,o),
(306,1395,o),
(306,1338,cs),
(306,1303,o),
(364,1290,o),
(418,1290,cs),
(475,1290,o),
(481,1260,o),
(481,1227,cs)
);
}
);
};
hints = (
{
horizontal = 1;
origin = (0,12);
target = (0,3);
type = Stem;
},
{
horizontal = 1;
origin = (0,31);
target = (0,37);
type = Stem;
},
{
origin = (0,0);
target = (0,16);
type = Stem;
}
);
layerId = m01;
shapes = (
{
closed = 1;
nodes = (
(482,351,ls),
(482,211,o),
(470,106,o),
(368,106,cs),
(244,106,o),
(315,229,o),
(176,229,cs),
(117,229,o),
(57,194,o),
(57,134,cs),
(57,-34,o),
(250,-85,o),
(376,-85,cs),
(664,-85,o),
(712,145,o),
(712,375,cs),
(712,1225,ls),
(712,1255,o),
(713,1290,o),
(776,1290,cs),
(830,1290,o),
(888,1303,o),
(888,1338,cs),
(888,1395,o),
(878,1475,o),
(845,1498,c),
(780,1493,o),
(692,1490,o),
(598,1490,cs),
(509,1490,o),
(423,1493,o),
(359,1498,c),
(319,1475,o),
(306,1395,o),
(306,1338,cs),
(306,1303,o),
(364,1290,o),
(418,1290,cs),
(475,1290,o),
(481,1260,o),
(481,1227,cs)
);
}
);
width = 957;
},
{
anchors = (
{
name = bottom;
pos = (657,0);
},
{
name = top;
pos = (777,1489);
}
);
background = {
anchors = (
{
name = bottom;
pos = (657,0);
},
{
name = top;
pos = (657,173);
}
);
shapes = (
{
closed = 1;
nodes = (
(505,510,ls),
(505,222,o),
(441,160,o),
(365,160,cs),
(255,160,o),
(317,309,o),
(185,309,cs),
(95,309,o),
(36,247,o),
(36,170,cs),
(36,44,o),
(182,-72,o),
(521,-72,cs),
(889,-72,o),
(1070,66,o),
(1070,490,cs),
(1070,974,ls),
(1070,1087,o),
(1077,1177,o),
(1160,1186,cs),
(1205,1191,o),
(1249,1198,o),
(1249,1252,cs),
(1249,1331,o),
(1232,1476,o),
(1191,1503,c),
(1111,1493,o),
(953,1489,o),
(797,1489,cs),
(612,1489,o),
(431,1495,o),
(384,1503,c),
(343,1476,o),
(326,1331,o),
(326,1252,cs),
(326,1198,o),
(370,1191,o),
(415,1186,cs),
(498,1177,o),
(505,1087,o),
(505,974,cs)
);
}
);
};
hints = (
{
horizontal = 1;
origin = (0,12);
target = (0,3);
type = Stem;
},
{
horizontal = 1;
origin = (0,31);
target = down;
type = TopGhost;
},
{
origin = (0,40);
target = (0,16);
type = Stem;
}
);
layerId = "5152A785-FF48-4BC0-8F27-F3AFCF9810FE";
shapes = (
{
closed = 1;
nodes = (
(505,510,ls),
(505,222,o),
(441,160,o),
(365,160,cs),
(255,160,o),
(317,309,o),
(185,309,cs),
(95,309,o),
(36,247,o),
(36,170,cs),
(36,44,o),
(182,-72,o),
(521,-72,cs),
(889,-72,o),
(1070,66,o),
(1070,490,cs),
(1070,974,ls),
(1070,1087,o),
(1077,1177,o),
(1160,1186,cs),
(1205,1191,o),
(1249,1198,o),
(1249,1252,cs),
(1249,1331,o),
(1232,1476,o),
(1191,1503,c),
(1111,1493,o),
(953,1489,o),
(797,1489,cs),
(612,1489,o),
(431,1495,o),
(384,1503,c),
(343,1476,o),
(326,1331,o),
(326,1252,cs),
(326,1198,o),
(370,1191,o),
(415,1186,cs),
(498,1177,o),
(505,1087,o),
(505,974,cs)
);
}
);
width = 1313;
}
);
note = J;
unicode = 74;
},
{
glyphname = Jcircumflex;
lastChange = "2026-02-05 15:52:47 +0000";
layers = (
{
background = {
shapes = (
{
closed = 1;
nodes = (
(537,2090,l),
(449,2001,o),
(314,1839,o),
(285,1802,cs),
(236,1740,o),
(198,1705,o),
(198,1675,cs),
(198,1633,o),
(220,1614,o),
(285,1614,cs),
(354,1614,o),
(373,1639,o),
(411,1687,cs),
(592,1918,l),
(773,1687,ls),
(811,1639,o),
(830,1614,o),
(899,1614,cs),
(957,1614,o),
(976,1633,o),
(976,1675,cs),
(976,1705,o),
(938,1740,o),
(889,1802,cs),
(860,1839,o),
(724,2001,o),
(637,2090,c)
);
},
{
closed = 1;
nodes = (
(482,351,ls),
(482,211,o),
(470,106,o),
(368,106,cs),
(244,106,o),
(315,229,o),
(176,229,cs),
(117,229,o),
(57,194,o),
(57,134,cs),
(57,-34,o),
(250,-85,o),
(376,-85,cs),
(664,-85,o),
(712,145,o),
(712,375,cs),
(712,1225,ls),
(712,1255,o),
(713,1290,o),
(776,1290,cs),
(830,1290,o),
(888,1303,o),
(888,1338,cs),
(888,1395,o),
(878,1475,o),
(845,1498,c),
(780,1493,o),
(692,1490,o),
(598,1490,cs),
(509,1490,o),
(423,1493,o),
(359,1498,c),
(319,1475,o),
(306,1395,o),
(306,1338,cs),
(306,1303,o),
(364,1290,o),
(418,1290,cs),
(475,1290,o),
(481,1260,o),
(481,1227,cs)
);
}
);
};
layerId = m01;
shapes = (
{
ref = J;
},
{
pos = (129,442);
ref = circumflexcomb;
}
);
width = 957;
},
{
background = {
shapes = (
{
closed = 1;
nodes = (
(712,2094,l),
(615,2005,o),
(462,1843,o),
(431,1805,cs),
(381,1744,o),
(343,1709,o),
(343,1679,cs),
(343,1637,o),
(379,1618,o),
(480,1618,cs),
(564,1618,o),
(589,1643,o),
(636,1691,c),
(787,1882,l),
(938,1691,l),
(985,1643,o),
(1010,1618,o),
(1094,1618,cs),
(1195,1618,o),
(1231,1637,o),
(1231,1679,cs),
(1231,1709,o),
(1193,1744,o),
(1143,1805,cs),
(1112,1843,o),
(959,2005,o),
(862,2094,c)
);
},
{
closed = 1;
nodes = (
(505,510,ls),
(505,222,o),
(441,160,o),
(365,160,cs),
(255,160,o),
(317,309,o),
(185,309,cs),
(95,309,o),
(36,247,o),
(36,170,cs),
(36,44,o),
(182,-72,o),
(521,-72,cs),
(889,-72,o),
(1070,66,o),
(1070,490,cs),
(1070,974,ls),
(1070,1087,o),
(1077,1177,o),
(1160,1186,cs),
(1205,1191,o),
(1249,1198,o),
(1249,1252,cs),
(1249,1331,o),
(1232,1476,o),
(1191,1503,c),
(1111,1493,o),
(953,1489,o),
(797,1489,cs),
(612,1489,o),
(431,1495,o),
(384,1503,c),
(343,1476,o),
(326,1331,o),
(326,1252,cs),
(326,1198,o),
(370,1191,o),
(415,1186,cs),
(498,1177,o),
(505,1087,o),
(505,974,cs)
);
}
);
};
layerId = "5152A785-FF48-4BC0-8F27-F3AFCF9810FE";
shapes = (
{
ref = J;
},
{
pos = (250,422);
ref = circumflexcomb;
}
);
width = 1313;
}
);
note = Jcircumflex;
unicode = 308;
},
